<svg width="58" height="66" fill="none" xmlns="http://www.w3.org/2000/svg"><g filter="url(#filter0_d_35_433)"><path d="M27.505 57.574c-.81-.46-3.122-2.258-4.96-3.856a52.701 52.701 0 01-8.113-8.866C9.284 37.767 6.1 29.525 4.709 19.677c-.664-4.698-.922-11.261-.5-12.726a4.427 4.427 0 011.645-2.334c.831-.588 3.486-1.647 5.867-2.34C16.767.806 22.34.103 28.953.1c8.43-.004 15.33 1.134 21.152 3.489 2.078.84 2.847 1.443 3.447 2.702l.395.827-.01 3.619c-.026 10.056-2.268 19.831-6.359 27.716-1.042 2.01-3.507 5.897-4.726 7.455-2.256 2.883-4.864 5.649-7.453 7.903-1.748 1.523-4.334 3.507-5.05 3.876-.882.453-1.92.412-2.844-.113zm1.75-.258a1.118 1.118 0 00-.492 0c-.136.036-.025.066.245.066.271 0 .382-.03.246-.066zm-5.585-3.573c0-.03-.111-.145-.246-.254-.223-.18-.228-.175-.053.055.183.24.299.318.299.199zm-.843-.717c0-.026-.174-.205-.387-.398l-.386-.35.34.397c.319.373.433.465.433.351zM20.86 51.12c-.498-.517-.937-.94-.976-.94-.038 0 .337.423.835.94.498.518.937.941.976.941.038 0-.337-.423-.835-.94zm-2.108-2.17c-.498-.518-.936-.941-.975-.941-.039 0 .337.423.835.94.498.518.937.941.975.941.039 0-.337-.423-.835-.94zm-1.264-1.423c0-.026-.174-.205-.386-.398l-.387-.35.34.397c.32.372.433.465.433.351zm-.843-1.016c0-.027-.142-.174-.316-.326l-.317-.275.268.325c.252.306.365.392.365.276zm-.562-.724c0-.027-.142-.174-.316-.325l-.316-.276.267.326c.252.306.365.391.365.275zm-.562-.728c0-.03-.11-.144-.246-.253-.223-.18-.228-.175-.053.054.184.242.299.318.299.199zm-.422-.579c0-.03-.11-.144-.245-.253-.223-.18-.228-.175-.053.054.183.242.298.318.298.2zm-.421-.579c0-.03-.11-.144-.246-.253-.223-.18-.228-.175-.053.054.184.242.299.318.299.2zm-1.967-2.985c-.083-.159-.182-.29-.22-.29-.04 0-.003.131.08.29.082.16.181.29.22.29.039 0 .003-.13-.08-.29zm-.421-.724c-.083-.159-.182-.289-.221-.289-.039 0-.003.13.08.29.083.159.182.289.22.289.04 0 .003-.13-.08-.29zm-.422-.723c-.083-.16-.182-.29-.22-.29-.04 0-.003.13.08.29.082.159.182.29.22.29.039 0 .003-.131-.08-.29zm-1.295-2.527c-.401-.833-.753-1.491-.78-1.463-.062.064 1.35 2.977 1.443 2.977.038 0-.26-.681-.663-1.514zm-1.217-2.637c-.165-.293-.205-.2-.07.165.048.13.117.204.154.167.036-.037-.002-.187-.084-.332zM22.853 9.263c-.102-.042-.223-.037-.27.011-.046.048.037.083.185.076.164-.007.197-.041.085-.087zM5.178 6.532c.048-.13.024-.187-.055-.137-.077.05-.14.15-.14.225 0 .208.101.162.195-.088zm47.855.095c0-.07-.13-.282-.29-.47l-.292-.342.251.47c.26.489.331.562.331.342zm-33.27-2.14c-.102-.042-.223-.037-.27.01-.047.049.036.083.184.077.164-.007.197-.041.085-.088zm6.084-.191c.14-.16.223-.29.184-.29-.038 0-.184.13-.324.29-.14.159-.223.29-.184.29.038 0 .185-.131.324-.29zm-3.556-.099c-.101-.042-.223-.037-.27.011-.046.048.037.083.185.076.164-.007.197-.04.085-.087zm16.86-2.75c-.102-.042-.223-.037-.27.011-.046.048.037.083.185.076.163-.007.197-.041.085-.087zm-1.124-.145c-.102-.042-.223-.037-.27.011-.046.049.037.083.185.077.163-.007.197-.042.085-.088zM36.91 1.16a.528.528 0 00-.35 0c-.097.04-.018.073.175.073.193 0 .272-.032.175-.073zm-13.917-.147c-.102-.042-.223-.037-.27.011-.046.048.037.082.185.076.163-.007.197-.041.085-.087zm12.3-.002a.781.781 0 00-.422.006c-.096.04.016.07.248.066.232-.003.31-.035.173-.072zm-9.625-.15a3.64 3.64 0 00-.843.002c-.21.033-.004.06.46.059.463 0 .636-.028.383-.06zm7.447 0a3.64 3.64 0 00-.843.002c-.212.033-.005.06.459.059.463 0 .636-.028.384-.06z" fill="#F9CE5C"/><path d="M27.688 57.631c-2.516-1.36-8.392-6.746-11.449-10.492C8.46 37.606 4.58 26.088 4.053 10.97c-.131-3.746.11-4.717 1.491-5.995C7.308 3.34 14.255 1.31 20.438.619 31.92-.664 42.943.54 50.816 3.937c2.2.95 3.054 2.213 3.17 4.693.076 1.626-.174 6.488-.467 9.1-1.807 16.092-8.342 28.272-20.287 37.811-2.503 2-3.1 2.354-4.058 2.413-.645.04-.93-.022-1.486-.323zm3.244-1.08c4.543-3.177 9.226-7.878 12.615-12.666 4.484-6.337 7.44-13.85 8.917-22.655.865-5.163 1.232-12.607.71-14.401-.308-1.057-1.255-1.814-3.317-2.65C43.851 1.745 35.633.49 27.252.728 19.63.944 13.475 2.057 8.195 4.172c-1.51.604-1.893.825-2.55 1.467-.756.74-.776.78-.948 1.92-.204 1.345-.015 6.533.36 9.908 1.823 16.388 8.482 28.608 20.8 38.173 1.931 1.5 2.424 1.776 3.17 1.776.583 0 .823-.11 1.905-.866zm-3.331.118c-.655-.41-2.5-1.852-3.932-3.07-7.646-6.513-12.916-14.44-15.944-23.983-1.164-3.671-2.041-7.987-2.528-12.447-.235-2.159-.513-8.35-.405-9.038.171-1.092.177-1.103.491-.93.446.246.645-.046.35-.511-.183-.287-.202-.437-.084-.663.769-1.481 7.808-3.746 14.116-4.542 3.048-.385 5.442-.518 9.358-.518 7.566 0 13.273.813 18.741 2.671 2.472.84 3.962 1.512 4.36 1.966.25.283.25.314.015.724-.308.537-.205.718.408.718.51 0 .5-.017.687 1.136.115.71-.168 7.015-.418 9.285-1.15 10.461-4.377 19.374-9.677 26.732-3.122 4.335-7.919 9.12-12.149 12.121l-1.006.714-.226-.332c-.192-.282-.312-.32-.799-.253-.315.043-.643.178-.729.298-.136.193-.212.183-.63-.078zM24.573 38.66c.247-.254.295-.64.08-.64a.143.143 0 00-.14.142c0 .077-.159.182-.352.232-.351.091-.433.216-.257.397.157.163.437.108.669-.13zm-3.713-1.88c0-.035-.064-.063-.14-.063-.078 0-.142.069-.142.153 0 .084.064.113.141.064.077-.05.14-.119.14-.154zm9.817-1.227c-.235-.395-.45-.718-.478-.718-.027 0 .12.348.328.774.208.425.423.749.479.718.055-.03-.093-.379-.329-.774zm2.335-2.455c.05-.083-.048-.13-.232-.108-.252.028-.339-.056-.413-.398-.088-.406-.095-.41-.11-.066-.026.559.517.97.755.572zm-3.174-2.224c.632-.123.856-.334.856-.805 0-.424-.409-1.137-.417-.728-.002.123-.283.505-.625.85-.34.346-.653.756-.692.912-.065.255-.048.263.163.074.13-.116.452-.252.715-.303zm4.506-.233c-.931-.124-1.254-.287-1.738-.88-.602-.737-.436-1.585.382-1.952l.446-.2-.5-.005c-1.474-.017-1.497 2.08-.033 2.876.373.203.785.286 1.376.277l.843-.013-.776-.103zm3.926-1.379c-.006-.159-.043-.208-.082-.108-.039.1-.192.18-.34.18-.148 0-.27.05-.27.11 0 .059.159.108.352.108.261 0 .348-.074.34-.29zm-14.958-.838c.235-.371.575-.717.756-.77.385-.11 1.333.171 1.883.559.553.39 1.269.483 1.5.195.103-.127.353-.233.556-.236.355-.004.359-.012.096-.217-.169-.132-.596-.213-1.124-.214-1.033-.003-1.484-.217-1.77-.842l-.219-.474-.266.304c-.378.43-.824.324-.916-.217l-.073-.434-.435.651c-.615.923-.895 1.524-.895 1.923 0 .765.33.682.907-.228zm8.471-1.686c.144-.035-.017-.993-.242-1.45-.212-.427-.388-.583-.738-.654-1.382-.282-1.724-.712-1.596-2.011.097-.99.087-1.013-.665-1.59-.295-.227-.605-.569-.69-.76-.2-.454-.403-.438-1.37.11-1.132.642-1.237.864-.722 1.538.23.299.455.812.508 1.154.053.343.173.615.271.615.26 0 .502.651.502 1.348 0 .515.097.725.618 1.338l.617.727 1.736-.178c.955-.098 1.752-.182 1.771-.187zm3.048-1.1c-.19-.522-.537-1.71-.772-2.642-.247-.985-.693-2.255-1.065-3.033-.608-1.27-.784-1.496-.95-1.218-.093.154.643 2.026 1.173 2.982.224.403.573 1.417.777 2.252.214.875.524 1.75.732 2.063.2.299.382.543.407.543.024 0-.111-.427-.302-.948zm-3.329-7.495c-.728-.614-.358-1.066.531-.648.284.133.355.252.306.517-.042.222-.016.295.072.204.252-.26.043-.676-.469-.934-.92-.463-1.393.082-.672.777.24.231.478.418.528.415.05-.003-.083-.152-.296-.331zm5.873-.89c.112-.275.203-.65.203-.832 0-.442-.47-1.211-.87-1.426l-.323-.174.298.346c.654.756.776 1.413.4 2.162-.133.264-.157.427-.063.427.083 0 .243-.226.355-.502zm-10.308-3.41c-.622-.39-.578-.932.115-1.413.394-.273.638-.331 1.23-.294.502.032.737-.008.737-.126 0-.094.3-.27.667-.39l.668-.218-.843.076c-1.291.116-2.207.43-2.804.962-.458.407-.528.543-.448.87.052.212.267.482.479.6.576.323.735.27.2-.066zm-18.45-3.578c-.047-2.842-.046-2.86.267-3.001.467-.213.38-.373-.107-.198l-.422.152v2.953c0 2.045.048 2.953.154 2.953.108 0 .14-.853.107-2.859zm23.178 2.732c.145-.095.129-.138-.074-.193a.482.482 0 00-.44.125c-.143.159-.13.194.075.193a.962.962 0 00.439-.125zm17.413-5.794c.215.084.322.09.243.012-.078-.076-.283-.182-.457-.236l-.316-.099.032 3.014.032 3.013.041-2.926.041-2.927.384.15zm-38.113 4.293c.092-.093.02-.105-.21-.036-.55.166-1.265.484-1.265.562 0 .106 1.313-.362 1.475-.526zm1.348-2.772c.598-2.666.624-2.74 1.038-2.925l.424-.19-.369-.006c-.203-.003-.432.076-.51.175-.14.18-1.447 5.74-1.43 6.081.019.379.256-.5.847-3.135zm34.145 2.565c-.166-.293-.206-.199-.07.165.048.13.117.204.153.167.036-.037-.002-.186-.084-.332zm-1.916-5.512c.19.038.31.012.27-.056-.04-.068-.228-.124-.417-.124h-.343l.032 2.931.032 2.931.041-2.874.041-2.875.344.067zM14.32 10.6c-.053-.29-.128-.496-.167-.456-.038.04-.027.31.026.6.053.291.128.496.167.456.038-.04.027-.31-.026-.6zm1.808-2.562c.026-2.786.028-2.802.342-2.848.174-.025.316-.114.316-.198 0-.086-.136-.114-.316-.064a2.695 2.695 0 01-.421.09c-.058 0-.106 1.347-.106 2.993 0 1.645.036 2.954.08 2.91.043-.045.09-1.342.105-2.883zm26.618-2.77c.353-.056.347-.062-.073-.082l-.457-.022.032 2.93.032 2.932.041-2.85.041-2.849.384-.06zM17.642 9.294c-.198-.59-.382-1.05-.409-1.022-.027.028.097.574.275 1.213.178.64.362 1.1.408 1.022.047-.078-.077-.624-.274-1.214zm22.71-.62c-.03-.379-.053-.07-.053.687 0 .756.023 1.065.052.687.03-.378.03-.997 0-1.375zm-21.038.156c0-.85-.023-1.517-.051-1.484-.121.142-.193 3.028-.076 3.028.07 0 .127-.695.127-1.544zm1.967-1.568V4.458l.63-.097a5.05 5.05 0 011.124-.038c.271.033.44.004.375-.063s-.618-.103-1.23-.08l-1.11.043-.038 3.014c-.025 2.022.01 2.984.106 2.922.09-.056.143-1.144.143-2.896zM38.249 4.57l.383-.015-.35-.107c-.194-.06-.4-.081-.457-.05-.059.033-.092 1.374-.074 2.981l.032 2.923.041-2.86.041-2.858.384-.014zm8.993 1.948c.373.079.372.076-.04-.117l-.42-.197-.071 1.76c-.039.967-.039 1.856 0 1.976.038.119.088-.62.11-1.643l.039-1.86.382.08zM25.725 9.357c-.434-.531-.577-1.18-.563-2.56.013-1.183.342-2.244.798-2.574.166-.12.556-.219.867-.221.467-.004.52-.032.31-.158-.352-.21-.933-.037-1.399.42-.99.97-1.09 4.136-.163 5.166.463.515.582.457.15-.073zm4.96-5.33c.61.03 1.035.004.945-.054-.09-.059-.621-.108-1.182-.11l-1.018-.002.032 3.004.032 3.003.041-2.946.041-2.946 1.109.052zm.923 4.9c-.132-.408-.271-.71-.31-.67-.039.04.037.407.169.815s.271.71.31.67c.038-.04-.038-.406-.17-.815zm-8.349.207c.332-.31.361-1.192.051-1.59-.21-.272-.213-.27-.07.035.368.785.015 1.636-.681 1.64-.2.001-.46.072-.576.156-.157.115-.056.136.398.083.334-.04.73-.185.878-.324zm10.575-.098c-.315-.621-.424-2.648-.188-3.516.241-.887.85-1.412 1.558-1.343.288.028.494.002.458-.06-.037-.06-.32-.11-.631-.11-.695 0-1.285.54-1.513 1.386-.253.94-.188 2.792.123 3.498.149.338.307.615.352.615.044 0-.027-.211-.159-.47zm-20.024.2c.153-.1.147-.248-.032-.83l-.219-.709.08.66c.07.59.044.677-.249.822-.298.148-.302.164-.047.17a.958.958 0 00.467-.113zm22.078-.154c.08-.154.144-.366.143-.47 0-.105-.083-.028-.183.17-.146.293-.28.36-.697.346-.283-.009-.482.04-.44.109.15.25 1.026.136 1.177-.155zm-8.39-.444c.176-.363.245-.855.245-1.737 0-1.547-.272-2.222-.924-2.287-.258-.026-.504.044-.607.172-.153.19-.12.195.27.044.4-.156.469-.14.705.16.509.647.55 2.978.066 3.74-.184.289-.325.358-.638.31-.22-.033-.367-.003-.326.066.042.07.276.107.52.083.346-.035.497-.156.689-.551zm-8.232-3.91c.065-.063.245-.146.4-.184.189-.047.137-.075-.158-.087l-.438-.017-.44 1.556c-.243.856-.437 1.654-.433 1.773.005.12.22-.49.48-1.354.259-.864.524-1.623.589-1.686zm16.811 2.424l.729-.053-.808-.027c-.798-.026-.807-.021-.788.372.015.33.029.344.079.08.05-.27.17-.327.788-.372zm-12.05.048c-.051-.085-.16-.154-.242-.154-.093 0-.083.083.028.22.193.24.365.186.214-.066zm16.362-1.183V4.843l.386.093c.287.068.332.054.176-.055a.958.958 0 00-.457-.149c-.214-.002-.246.149-.246 1.157v1.16l-.737-.057c-.575-.045-.629-.034-.246.05 1.157.253 1.124.283 1.124-1.025zm-17.274.472c.4-.333.431-1.09.059-1.44-.24-.226-.247-.226-.084-.003.229.315.15 1.142-.123 1.286a5.036 5.036 0 01-.702.253l-.492.142.511.015c.306.008.64-.093.831-.253zm8.563-.167c.336-.346.367-1.048.06-1.365-.32-.329-.392-.279-.138.095.488.718.18 1.258-.812 1.425l-.585.098.597.018c.426.013.677-.064.878-.271zm4.16-.974c-.047-.048-.08.037-.075.19.007.169.04.203.085.087.04-.104.036-.229-.01-.277z" fill="#F9CE5C"/><path d="M27.813 57.662c-1.69-.83-6.112-4.597-9.062-7.719-8.049-8.516-12.54-18.59-14.187-31.825-.22-1.759-.561-7.05-.563-8.705C4 6.73 4.83 5.093 6.641 4.208c1.94-.949 5.833-2.183 8.81-2.795C20.65.346 27.93-.127 33.434.245c6.168.416 10.81 1.293 15.282 2.886 3.195 1.137 4.153 1.794 4.864 3.335.364.79.366.821.34 3.98-.106 12.984-3.44 24.436-9.763 33.546-2.971 4.28-7.183 8.652-11.72 12.163-2.425 1.876-3.296 2.16-4.624 1.507zm3.056-1.017c3.312-2.277 8.525-7.242 11.124-10.592 2.787-3.593 5.75-8.78 7.237-12.665 2.286-5.972 3.568-12.085 4.083-19.467.171-2.466.18-5.885.014-6.616-.082-.367-.071-.553.036-.59.206-.07-.269-.828-.519-.828-.1 0-.336-.169-.523-.376-1.322-1.46-8.123-3.51-14.32-4.317-4.504-.587-12.081-.66-16.579-.16-6.917.768-14.293 2.888-15.792 4.539-.225.247-.455.42-.511.383-.727-.462-.718 6.419.016 12.38 1.61 13.09 6.228 23.218 14.455 31.707 2.9 2.993 6.429 6 8.326 7.099 1.019.589 1.49.51 2.953-.497zm-2.652-.728c-.32-.191-1.232-.855-2.026-1.476-.795-.62-1.529-1.127-1.63-1.127-.102 0-.392-.19-.643-.42l-.459-.42.527.389c.709.523.67.377-.06-.227-.322-.267-.54-.408-.483-.314.234.39-.175.13-.693-.44-.305-.336-.397-.483-.204-.326.193.156-.694-.822-1.971-2.175-2.252-2.385-4.405-5.009-5.82-7.091-.805-1.187-1.018-1.441-.787-.941l.167.362-.288-.362c-.158-.199-.258-.447-.222-.55.037-.104.007-.15-.066-.104-.141.09-.606-.705-.485-.83.038-.039-.241-.662-.622-1.383-1.008-1.912-1.786-3.604-2.689-5.854-.439-1.094-.836-1.95-.883-1.903-.046.047-.05-.067-.01-.253.047-.223.029-.278-.053-.16-.178.255-.652-1.153-.534-1.585.074-.268.06-.29-.067-.115-.123.169-.139.105-.071-.29.07-.4.053-.46-.075-.29-.137.185-.15.178-.079-.046.046-.146-.071-.895-.26-1.665-.913-3.733-1.866-10.375-1.913-13.341-.008-.457-.043-.567-.118-.37-.099.261-.114.256-.199-.072-.05-.195-.093-.696-.094-1.114-.003-1.152-.278-1.004-.47.253-.03.2-.063-.615-.072-1.81-.01-1.193.03-2.235.086-2.315.057-.08.292-.145.523-.145.505 0 .608-.312.306-.935-.196-.406-.188-.448.166-.818.359-.375 1.683-1.075 2.41-1.273.34-.093.338-.089-.035.13-.213.126-.387.29-.387.368 0 .18-.004.18.703-.077.712-.259.892-.272.763-.057-.062.105-.004.13.168.075 3.023-.98 5.613-1.635 8.342-2.11 1.292-.224 2.193-.44 2.037-.488-.155-.047.035-.053.421-.013.537.055.653.034.492-.09-.16-.122-.026-.143.562-.09.425.04 2.132.016 3.793-.053 5.602-.23 7.94-.281 7.764-.167-.095.062.764.193 1.911.29 2.547.216 6.429.787 8.53 1.255.858.191 1.713.313 1.899.27.277-.063.3-.047.128.09-.174.137-.158.15.093.078.363-.104 1.058.052.96.216-.039.063.066.079.233.034.22-.06.273-.032.193.101-.082.137-.029.157.207.08.202-.066.284-.05.227.045-.051.085.226.255.65.4 1.402.477 2.988 1.239 3.385 1.627.835.813.868.983.837 4.19-.024 2.488-.296 6.91-.536 8.719-.076.569-.034.471.38-.869.159-.517.344-1.011.41-1.097.067-.087.183-.51.257-.941.128-.744.131-.728.061.301-.491 7.226-2.919 15.828-6.18 21.902-2.775 5.17-6.786 10.286-10.733 13.695l-.911.788.639-.715c.352-.393.742-.952.868-1.24.126-.29.436-.779.688-1.086l.46-.56-.484.442c-.267.243-.896.826-1.399 1.294-1.098 1.024-3.943 3.374-5.223 4.315-1.165.857-1.555.939-2.312.484zm-3.564-17.173c.596-.614.238-1.049-.453-.55a23.23 23.23 0 01-.515.365c-.114.068.308.474.494.474.106 0 .32-.13.474-.29zm-3.706-2.176c.011-.236-.025-.43-.08-.43-.19 0-.466.705-.372.956.134.361.425.023.452-.526zm10.295-.087c.258-.133.284-.193.127-.291-.11-.068-.333-.352-.497-.63-.371-.63-.883-1.203-.982-1.101-.041.042.131.407.383.81.377.606.445.834.384 1.3-.081.623.062.946.184.414a.87.87 0 01.401-.502zm7.459-.234a.891.891 0 00-.123-.377c-.155-.251-.358.04-.243.348.096.257.369.279.366.029zm-5.618-3.159c0-.068-.126-.194-.28-.279-.155-.085-.282-.25-.282-.367 0-.116-.063-.212-.14-.212-.241 0-.159.844.097.991.255.147.605.07.605-.133zm-11.06-2.016l.076-.796-.218.507c-.12.279-.24.832-.268 1.23-.05.713-.047.717.141.29.105-.24.226-.793.268-1.23zm7.379.92c.035-.245.145-.288.722-.279.788.012 1.206-.284 1.35-.957.069-.327.02-.51-.205-.755-.162-.178-.54-.83-.84-1.447-.616-1.27-.591-1.325.553-1.212.383.038.696.024.696-.03 0-.19.717-.437 1.27-.437.402 0 .602.08.73.29.096.159.27.287.387.285.168-.004.162-.035-.033-.152-.438-.263-.26-.438.196-.195.34.181.397.265.245.363-.143.094-.102.128.156.126.35-.002.35-.002-.108-.432-.35-.328-.593-.43-1.028-.43-.313 0-.691-.067-.84-.15-.334-.183-.377-.646-.049-.516.123.049.392.125.598.17l.373.082-.352-.318a2.711 2.711 0 00-.737-.459c-.463-.168-.504-.51-.08-.672.289-.11.282-.122-.105-.205-.265-.056-.5-.25-.658-.541-.216-.4-.296-.442-.673-.357-.48.109-1.118-.224-1.118-.583 0-.118.133-.351.296-.519l.295-.305-.271-.889c-.26-.851-.304-.906-1.049-1.275-1.154-.573-1.193-1.051-.149-1.783.633-.442 1.128-.46 1.878-.066.607.32.967.952.967 1.703 0 .28.253.773.763 1.486.792 1.106 1.12 1.95 1.04 2.676-.039.344-.125.434-.469.487-.37.057-.345.074.211.145.529.067.668.153.848.523.289.596.975 1.483.977 1.263 0-.097-.13-.52-.291-.94-.162-.422-.511-1.613-.778-2.648-.28-1.087-.734-2.397-1.077-3.104a72.999 72.999 0 01-.639-1.338c-.026-.065.083-.117.241-.117.466 0 1.257.837 1.857 1.964.591 1.109 1.067 1.557 1.575 1.483.265-.04.304-.129.283-.647-.03-.695-.489-1.708-.892-1.967-.409-.264-.34-.399.206-.399.485 0 .763-.194.51-.356-.075-.047-.606-.21-1.181-.361-.575-.152-1.684-.578-2.466-.947-.863-.407-1.525-.637-1.685-.585-.145.047-.604.394-1.021.77-1.152 1.038-2.063 1.683-3.07 2.174-1.69.823-2.037 1.402-2.444 4.074-.127.832-.28 1.549-.343 1.593-.264.186-1.593 2.102-1.783 2.57-.25.617-.26.924-.044 1.41.203.46.722.49 1.014.06.325-.478.652-.257.553.374-.053.335-.025.514.078.514.249 0 .726-.555.948-1.105.267-.657.526-.737 1.173-.363.675.391 1.465.4 1.931.023.195-.159.406-.255.47-.215.152.097.343-.225.343-.58 0-.391.437-.452.627-.088.113.218.107.37-.02.581-.25.41-.023.55.443.275l.398-.235.06.525c.053.472-.01.595-.612 1.2-.742.744-.943 1.265-.7 1.813.181.412.486.388.549-.043zm-5.451-3.028c0-.43.23-.931.426-.931.195 0 .168.922-.033 1.129-.263.271-.393.206-.393-.198zm1.895-1.894a1.976 1.976 0 01-.36-.583c-.184-.501-.513-.568-.91-.185-.415.402-.576.293-.375-.255.08-.221.223-1.015.315-1.764.264-2.139.863-2.492 1.343-.79.12.427.31.87.42.983.11.114.2.468.2.788 0 .469.108.708.563 1.249.309.368.562.697.562.733 0 .035-.343.063-.763.063-.522 0-.836-.075-.995-.24zm5.621-9.094c-.338-.287-.382-.384-.223-.492.389-.265 1.253.315.978.656-.211.262-.266.25-.755-.164zm4.169 12.696c.137-.142-.039-.179-.846-.179-1.536 0-2.269-.517-2.269-1.601 0-1.194 1.476-1.523 1.852-.414.078.233.202.423.274.423.077 0 .072-.116-.014-.28-.237-.457-.17-.587.312-.605.341-.013.268-.05-.291-.145-.411-.07-.865-.193-1.01-.273-.573-.316-1.533-.106-1.926.422-.494.662.081 2.03 1.084 2.582.535.294.788.34 1.646.298.558-.027 1.093-.13 1.188-.228zm2.844-.922a1.2 1.2 0 01-.113-.458c-.009-.162-.103-.325-.21-.361-.119-.041-.157-.003-.098.096.06.1-.008.164-.176.164-.15 0-.31.097-.355.217-.06.162.023.217.328.217.225 0 .448.065.496.145.047.08.118.145.157.145.038 0 .026-.075-.029-.165zm-.565-3.683c.105-.282-.051-1.363-.197-1.363-.224 0-.384 1.291-.186 1.495.154.159.293.111.383-.132zm-14.523-.807c.307-.49.558-.962.557-1.049 0-.087-.158.123-.349.467-.19.344-.478.816-.64 1.05-.16.232-.256.423-.21.423.046 0 .334-.4.642-.89zm14.954-3.193c-.1-.607-.313-.834-.5-.53-.207.337-.14 1.127.12 1.4.235.247.25.246.358-.033.062-.16.072-.537.023-.837zm-14.17.215c-.046-.048-.08.038-.073.19.006.169.04.203.084.088.04-.105.036-.23-.01-.278zm1.11-2.065c.14-.16.222-.29.184-.29-.039 0-.185.13-.325.29-.14.159-.223.29-.184.29.039 0 .185-.131.325-.29zm12.368-3.379c.186-1.02-.714-2.13-1.904-2.35-.487-.09-.486-.09.142.25 1.105.597 1.603 1.879 1.046 2.697-.12.177-.173.398-.117.49.15.25.727-.504.833-1.087zm-8.435.773c.14-.159.223-.289.184-.289-.038 0-.184.13-.324.29-.14.159-.223.29-.184.29.038 0 .184-.131.324-.29zm.914-.796c.096-.119.143-.217.104-.217-.038 0-.149.098-.245.217-.096.12-.143.217-.105.217.04 0 .15-.097.246-.217zm-2.46-2.761c-1.212-.45-1.273-1.287-.125-1.74.556-.218.91-.211 1.518.03.148.058.224.008.224-.148 0-.313.552-.515 1.449-.533.575-.012.655-.039.377-.13-1.44-.476-4.097.279-4.703 1.335l-.257.449.51.483c.399.375.63.48 1.041.472l.529-.01-.562-.208zM8.638 10.237c0-2.419.033-2.884.21-2.954.183-.073.211.257.211 2.445 0 2.809-.051 2.687.984 2.311.687-.25.843-.267.843-.092 0 .07-.477.305-1.06.524-.584.22-1.036.424-1.006.455.03.031.534-.12 1.119-.338.942-.349 1.07-.44 1.122-.8.063-.444.005-.445-1-.021-.905.381-.878.457-.832-2.334.022-1.393.035-2.533.027-2.532-.008 0-.213.071-.457.159l-.442.158v3.034c0 1.986.048 3.003.14 2.945.086-.055.14-1.203.14-2.96zm23.299 2.76c.14-.09.106-.144-.136-.209-.177-.048-.357-.03-.399.04-.042.07-.297.156-.567.19-.394.048-.353.064.212.081.386.012.787-.034.89-.101zm16.912-3.002l-.041-2.84.392.1c.464.119.284-.123-.205-.275l-.316-.099v2.977c0 1.637.047 2.977.106 2.977.058 0 .086-1.278.064-2.84zm-2.715-.038c-.477-1.207-.892-2.169-.923-2.137-.03.032.27.897.667 1.921.398 1.025.782 2.02.853 2.21.071.19.161.313.2.273.038-.04-.32-1.06-.797-2.267zM12.5 11.132c.133-.914.185-1.01.609-1.113.204-.05.408-.105.61-.164.188-.057.267.088.395.72l.16.792.427-.154c.496-.178.53.152-.335-3.308l-.6-2.398-.433.115c-.405.109-.447.185-.672 1.24-.132.618-.448 2.043-.703 3.166l-.464 2.041.456-.144c.401-.127.466-.22.55-.793zm-.442.032c-.046-.123-.052-.255-.013-.295.038-.04.103.061.144.223.088.345-.01.399-.13.072zm.103-.705c-.006-.153.027-.238.074-.19.047.048.052.173.011.277-.045.116-.078.082-.085-.087zm.281-1.303c-.006-.152.027-.238.074-.19.047.048.052.173.011.278-.045.115-.078.08-.085-.088zm.565-.337c.007-.22.09-.724.183-1.122l.17-.724.176 1c.143.816.142 1.021-.008 1.12-.348.226-.535.128-.521-.274zm-.424-.242c-.006-.152.027-.238.073-.19.047.048.052.173.012.278-.045.115-.078.08-.085-.088zm.218-.88c.16-.97.34-1.392.248-.58-.046.399-.141.822-.213.942-.084.141-.097.015-.035-.362zm.335-1.556c-.002-.17.101-.25.314-.242.211.007.246.039.105.094a.764.764 0 00-.314.242c-.063.098-.104.062-.105-.094zm31.328 2.444V5.783l.387.064c.302.05.34.03.175-.09A1.061 1.061 0 0044.5 5.6l-.317-.002v2.895c0 1.833.052 2.894.141 2.894s.14-1.03.14-2.802zM16.586 10.81c.161 0 .203-.368.219-1.918.01-1.055.047-1.755.08-1.556.1.577.906 3.245 1.022 3.374.057.065.145-.13.195-.434.05-.303.308-1.236.575-2.072l.484-1.52-.082 1.896-.083 1.896.435-.066.434-.066.041-2.951.04-2.952h-.442c-.428 0-.454.036-.753 1.05a57.94 57.94 0 00-.553 2.034l-.242.984-.515-1.654c-.283-.91-.515-1.727-.515-1.817 0-.181-.195-.202-.667-.071-.315.086-.316.1-.316 3.053 0 2.645.024 2.956.222 2.877a1.39 1.39 0 01.421-.087zm25.799-2.695l-.04-2.84.356.092c.197.051.357.034.357-.038 0-.072-.19-.16-.421-.195l-.422-.064v2.942c0 1.618.048 2.943.106 2.943.058 0 .087-1.278.064-2.84zm-2.033.343c-.028-.418-.051-.076-.051.76 0 .835.023 1.178.05.76.03-.418.03-1.103 0-1.52zM22.977 9.929c.766-.199 1.15-.714 1.225-1.642.055-.688.02-.83-.28-1.14-.334-.344-.336-.36-.086-.677.393-.5.344-1.518-.095-1.97-.326-.335-.434-.358-1.51-.32l-1.16.043-.038 2.982-.038 2.983.74-.065a9.404 9.404 0 001.241-.194zm-1.134-1.653v-.941h.54c.649 0 1.006.343 1.006.966 0 .57-.388.916-1.03.916h-.516v-.941zm.056-1.868c-.04-.109-.053-.482-.03-.83.04-.565.084-.636.424-.676.61-.073.955.201.955.756 0 .556-.166.732-.813.858-.325.063-.484.031-.535-.108zm16.102.982c0-2.768.007-2.837.28-2.763.155.041.282.024.282-.039 0-.102-.466-.285-.738-.29-.058-.002-.106 1.333-.106 2.965 0 1.881.052 2.967.141 2.967S38 9.187 38 7.39zm9.241-.852c.38.074.379.073-.039-.13l-.422-.203-.04 1.672c-.035 1.504-.06 1.644-.246 1.397-.19-.251-.194-.238-.061.16.308.92.349.81.387-1.051l.039-1.92.382.075zM36.033 9.853c.23-.146.255-.187.07-.12a7.94 7.94 0 01-.772.21c-.483.107-.484.109-.07.12.232.007.58-.088.772-.21zm-8.596-.206c.563-.354.855-1.025.963-2.215.223-2.467-.872-4.173-2.247-3.5-.706.345-1.11 1.254-1.19 2.681-.146 2.609.97 3.978 2.474 3.034zm-1.228-.854c-.578-.596-.586-3.07-.012-3.7.429-.47.777-.46 1.087.028.195.306.25.695.25 1.78 0 1.084-.055 1.473-.25 1.78-.292.46-.697.502-1.075.112zm6.312.852c0-.065-.182-.648-.404-1.295l-.404-1.176.333-.225c.754-.51.731-2.167-.039-2.79-.3-.243-.57-.298-1.472-.298H29.43v5.934h.352c.348 0 .35-.01.35-1.302V7.19l.387.002c.365.001.409.077.787 1.348.396 1.328.406 1.345.808 1.284.224-.034.407-.114.407-.18zm-.605-.103c-.033-.06-.231-.646-.441-1.303l-.382-1.194h-.55c-.348 0-.55-.066-.55-.18.001-.12.263-.19.779-.205.427-.013.863-.097.968-.187.52-.445.347-1.571-.289-1.87-.417-.195-1.27-.216-1.38-.032-.043.072-.09.851-.106 1.733-.015.881-.062 1.566-.105 1.522-.043-.044-.11-.89-.149-1.878l-.07-1.798h.987c1.15 0 1.514.197 1.753.942.22.686.062 1.303-.434 1.703l-.412.332.414 1.262c.315.962.368 1.262.22 1.262-.106 0-.22-.049-.253-.109zM30.19 6.267c-.04-.11-.055-.517-.03-.905.041-.678.06-.707.497-.75.908-.09 1.543 1.129.85 1.63-.389.28-1.216.296-1.317.025zm4.178 3.307c-.55-.476-.768-1.187-.78-2.529-.013-1.448.335-2.413.967-2.685.64-.276 1.4-.018 1.733.587.087.159.16.203.163.097.002-.106-.18-.382-.407-.615-.315-.325-.54-.423-.964-.423-1.217 0-1.775 1.056-1.692 3.207.057 1.481.358 2.37.876 2.586.511.213.54.152.104-.225zm1.428-.278c.491-.506.4-1.672-.131-1.672-.106 0-.194-.104-.194-.232 0-.153.077-.203.223-.145.122.048.372.088.554.088.301 0 .338.072.384.76l.052.76.026-.905.026-.905h-.773c-.725 0-.772.022-.772.353 0 .276.082.362.386.398.339.04.38.099.337.48-.073.64-.273.941-.623.937-.521-.005-.937-.454-1.07-1.156-.084-.442-.128-.526-.14-.261-.046 1.191 1.068 2.166 1.715 1.5zm.772-.156c-.043-.044-.121.036-.174.179-.076.206-.06.223.078.08.096-.097.14-.214.096-.259zm3.821-3.044c0-1.059.006-1.077.36-1.077.203 0 .322-.063.272-.145-.048-.08-.241-.144-.43-.144-.335 0-.343.026-.343 1.157 0 .835-.049 1.156-.175 1.15-.097-.005-.476-.06-.843-.122s-.667-.062-.667 0 .3.154.667.205c.367.051.73.112.808.134.291.086.35-.11.35-1.158h.001zm-6.115-.253c.049-.303.212-.677.362-.832.15-.155.212-.281.136-.281-.248 0-.59.7-.649 1.333-.067.715.02.589.15-.22zm1.76-.166c0-.195-.343-.796-.487-.853-.11-.044-.093.098.055.422.187.413.431.657.431.431zm.562-.22c0-.076-.095-.102-.211-.056-.116.046-.211.109-.211.14 0 .031.095.057.21.057.117 0 .212-.063.212-.14zm-28.869-.41c-.043-.045-.156 0-.252.099-.137.143-.121.16.079.08.139-.053.216-.134.173-.18v.001z" fill="#9F6B08"/><path d="M28.668 57.862c-.53-.075-.888-.252-1.644-.81-2.592-1.914-4.735-3.688-6.654-5.51-.736-.7-2.353-2.38-2.921-3.037-2.322-2.681-4.249-5.43-6.608-9.426-.52-.881-1.154-2.197-2.02-4.192C6.01 28.409 4.54 21.869 4.106 13.895a70.666 70.666 0 01-.105-4.508c.006-1.454.013-1.629.082-2.013.13-.726.381-1.414.686-1.877.378-.573 1.402-1.4 2.222-1.794 1.159-.556 3.98-1.418 6.523-1.992.69-.156 2.052-.438 2.514-.52l.632-.115c.213-.039.498-.086.633-.104.136-.019.357-.058.492-.087.136-.028.389-.07.563-.094.27-.035.54-.072.809-.11.27-.038.563-.078.65-.088a125.1 125.1 0 011.688-.197c2.861-.315 6.662-.463 9.406-.367 1.204.042 3.936.201 4.152.242a8 8 0 00.598.049c.269.015.71.055.98.089.271.033.707.085.968.115 1.224.14 2.288.28 2.742.361.165.03.6.102.967.161 3.87.629 7.074 1.545 9.458 2.703 1.032.502 1.444.783 1.945 1.33.584.637.932 1.31 1.115 2.155.155.716.085 5.18-.125 8.015-.287 3.87-.781 7.126-1.599 10.53-.883 3.68-2.067 7.05-3.79 10.785-.581 1.262-.74 1.573-1.222 2.406-.26.448-.48.83-.49.851-.01.02-.065.11-.123.2-.05.077-.1.155-.148.234l-.193.325c-.084.14-.158.27-.166.29a.157.157 0 01-.035.054c-.013.01-.092.132-.177.272a18.02 18.02 0 01-.289.458 1.18 1.18 0 00-.135.24c0 .021-.012.043-.027.05-.035.016-.219.31-.219.35 0 .019-.024.043-.053.055-.029.011-.053.037-.053.057 0 .02-.087.166-.193.325a2.113 2.113 0 00-.193.322c0 .019-.024.044-.053.056a.088.088 0 00-.053.076c0 .03-.013.055-.03.055-.015 0-.05.045-.078.1a1.269 1.269 0 01-.077.135c-.118.16-.262.365-.518.74-.251.369-.518.744-.876 1.233-3.165 4.323-6.475 7.57-11.674 11.452-.759.567-1.114.769-1.557.885-.31.08-.75.114-1.012.077zm.9-.328c.438-.115.801-.318 1.496-.836 6.641-4.956 10.352-8.987 14.581-15.838 1.137-1.841 1.688-2.817 2.14-3.787 1.231-2.64 2.117-4.839 2.846-7.06 1.77-5.396 2.726-11.103 2.966-17.713.056-1.552.046-4.558-.017-4.932-.173-1.017-.78-1.985-1.674-2.667-.325-.248-1.477-.848-2.213-1.152-2.183-.903-4.678-1.58-7.945-2.157-1.919-.339-4.424-.65-6.84-.852-.25-.02-.543-.046-.65-.056-.328-.03-1.873-.122-2.76-.165-1.692-.08-4.76-.039-6.909.095C18.97.762 12.802 1.9 8.573 3.37c-1.163.405-1.578.594-2.178.995-.976.65-1.422 1.146-1.743 1.939-.376.927-.443 1.71-.386 4.511.072 3.553.278 6.322.686 9.228.81 5.772 2.231 10.642 4.66 15.977.944 2.074 1.216 2.575 2.719 5.012a94.777 94.777 0 001.8 2.75c2.83 4.092 5.57 7.047 9.653 10.413 1.06.873 3.582 2.81 4.008 3.077.155.097.562.257.753.296.272.056.733.04 1.023-.035zm-.946-1.46c-.215-.063-.703-.408-1.702-1.202-6.137-4.88-9.603-8.702-13.062-14.4a78.807 78.807 0 01-1.496-2.588c-.415-.755-1.738-3.588-2.4-5.138-2.342-5.494-3.63-11.194-4.024-17.823-.139-2.33-.16-5.521-.04-6.187.13-.732.367-1.373.69-1.869.352-.54 1.002-1.078 1.62-1.339 1.27-.537 4.145-1.375 6.606-1.926 4.282-.958 8.277-1.454 12.764-1.582 1.234-.036 3.378-.024 3.815.021.077.008.378.024.668.036 2.776.113 6.503.518 9.177.998 3.3.593 5.813 1.345 7.964 2.384.338.164.733.354.878.423 1.19.568 1.733 1.444 1.913 3.083.088.806-.123 4.796-.403 7.605-.792 7.963-2.383 13.78-5.38 19.663-1.209 2.375-3.142 5.621-4.604 7.731-2.507 3.618-4.935 6.146-9.823 10.228l-.918.77a21.3 21.3 0 01-.974.784c-.459.318-.905.433-1.269.328zm-9.114-12.936c.432-.202.575-.51.633-1.363.039-.568.147-.783.423-.843l.14-.03-.018-.341c-.026-.511-.02-1.27.01-1.382.014-.054.19-.306.389-.56.472-.604.754-1.022.834-1.236.035-.096.097-.409.139-.696.084-.586.048-.502.683-1.567.188-.316.47-.843.628-1.172.17-.357.338-.655.418-.743.069-.076.137-.153.204-.23.038-.047.086-.084.105-.084.071 0 .281.227.359.39.078.164.081.205.081 1.015 0 .844 0 .845.083.914.046.038.12.069.164.069.08 0 .08-.002-.019-.11-.143-.158-.177-.375-.151-.99.02-.48.016-.544-.056-.762a1.195 1.195 0 01-.067-.355c.01-.111.02-.118.17-.129.178-.013.259-.073.354-.266.068-.136.085-.245.074-.453-.006-.099-.032-.13-.188-.217-.24-.134-.307-.236-.35-.538-.05-.348-.01-1.425.063-1.672.064-.218.094-.221.345-.044.246.173.992.499 1.36.595.452.117 1.066.13 1.261.028.17-.09.799-.584 1.063-.836.12-.115.314-.28.43-.367a7.45 7.45 0 00.35-.277c.075-.067.174-.12.218-.12.124 0 .459.14.575.24.212.184.106.37-.409.714-.406.272-.84.756-1.04 1.16-.093.186-.52 1.488-.52 1.583 0 .153.115.47.23.635.424.605.628.944.671 1.115.027.104.072.248.102.32.114.28-.023.436-.485.552a5.522 5.522 0 01-.525.106l-.2.024.056.09c.05.075.062.08.088.031.026-.047.104-.057.433-.057.323 0 .437-.015.586-.075l.186-.075.088.113c.099.126.669.73.669.707 0-.09-.273-.727-.488-1.14a25.26 25.26 0 01-.433-.869 5.163 5.163 0 00-.446-.738c-.158-.217-.299-.437-.313-.489-.05-.182-.023-.49.063-.74.136-.394.244-.368.245.06 0 .31.04.403.378.903.387.573.415.623.608 1.115.164.417.365.8.603 1.149.118.172.345.796.345.947 0 .06-.043.138-.118.213l-.119.118-.075-.098c-.042-.055-.087-.088-.1-.074a.974.974 0 00-.039.258c-.014.23-.012.235.113.35.12.109.127.128.127.335 0 .261.076.439.235.548.064.044.275.11.502.156l.39.08.14-.113c.241-.197.525-.547.564-.697.045-.173.017-.322-.078-.411a.679.679 0 01-.12-.161c-.07-.142-.01-.178.305-.178.256 0 .276-.006.357-.105.093-.114.331-.651.471-1.063.072-.21.088-.327.087-.603a1.534 1.534 0 01.09-.615c.125-.37.126-.646.004-.889-.104-.204-.178-.28-.441-.45-.288-.185-.252-.3.143-.455.225-.087.34-.185.34-.29 0-.084-.002-.085-.311-.064-.31.02-.312.02-.378-.08-.194-.29-.306-.331-.506-.19-.217.154-.704 1.062-.704 1.312 0 .146.16.294.449.417.15.063.308.138.353.167.145.095.217.265.218.508 0 .123.016.269.036.323.02.054.038.204.039.332a.855.855 0 01-.107.46c-.142.296-.584.882-.7.927-.126.05-.256-.055-.319-.256-.045-.145-.043-.17.03-.34.167-.387.186-.531.147-1.09-.02-.282-.056-.558-.08-.612-.073-.164-.188-.114-.432.189-.23.284-.379.404-.503.404-.12 0-.162-.122-.141-.413.022-.292.084-.489.335-1.054.19-.427.49-1.232.592-1.59.078-.275.087-.963.016-1.248-.038-.153-.091-.245-.232-.399a7.408 7.408 0 01-.956-1.375c-.254-.494-.426-1.013-.335-1.013.048 0 .439.513.599.786.195.335.297.42.472.397.127-.018.131-.015.151.114.069.428.268.85.58 1.222.143.173.739.665.911.754.201.103.53.214.917.308.235.058.42.073.87.073.601 0 .738-.026.88-.173a.965.965 0 01.276-.148 3.09 3.09 0 00.29-.121c.124-.067.218-.214.194-.303-.018-.07-.051-.077-.465-.098-.533-.026-1.006-.14-1.37-.329a5.971 5.971 0 00-.489-.222c-.413-.16-.727-.418-.8-.658-.035-.12.036-.22.175-.248.067-.013.132-.038.142-.056.01-.017.046-.032.079-.032.15-.002.159-.046.08-.389-.093-.41-.094-.48-.005-.48.144 0 .247.091.447.393.113.172.294.406.404.52.177.187.214.21.34.21.079 0 .152-.016.164-.035.011-.02-.011-.1-.05-.18a.783.783 0 01-.073-.326c0-.15.019-.202.11-.309.1-.118.123-.128.31-.128.238 0 .394.089.527.3.077.123.099.135.244.135a.459.459 0 00.294-.096c.114-.082.147-.09.22-.056a.546.546 0 01.171.178c.047.075.134.183.193.24.1.097.12.103.296.08a.734.734 0 01.281.012c.16.063.178.149.11.51-.056.302-.056.331 0 .481a1.1 1.1 0 00.165.282c.12.137.121.144.175.599.05.434.008.74-.17 1.216l-.266.716c-.07.19-.172.4-.227.468l-.1.124.143.112c.186.145.327.39.526.916.285.75.31.843.315 1.13.004.23-.019.342-.144.73-.199.616-.204.853-.026 1.095.068.09.123.193.123.226s-.086.209-.193.39c-.439.746-.437 1.085.007 1.503.233.219.438.334.567.319.088-.01.095-.025.105-.21.012-.224.11-.373.234-.355.061.01.075.047.096.258.029.306.045.35.126.35.145 0 .635-.393.734-.59l.053-.105-.152.108a1.88 1.88 0 00-.238.203c-.102.113-.207.12-.329.022-.124-.1-.145-.24-.076-.512.08-.316.054-.561-.07-.671-.08-.071-.133-.084-.364-.084-.15 0-.294-.016-.322-.034-.094-.061.014-.208.241-.326.33-.171.347-.292.064-.44-.188-.1-.234-.163-.235-.325a.473.473 0 01.314-.434c.225-.086.318-.212.318-.436 0-.249-.084-.41-.296-.575-.347-.268-.337-.253-.337-.577 0-.234.012-.303.065-.357.048-.05.07-.143.084-.361.013-.19.046-.35.093-.452.117-.247.105-.31-.123-.658-.145-.222-.19-.448-.19-.962 0-.215-.014-.43-.032-.478-.046-.123-.005-.534.056-.558.102-.04.26.072.372.265.124.213.15.231.177.122.03-.116.2-.09.606.092.918.411 1.947.495 2.502.204.316-.166.886-.675 1.032-.921.136-.23.128-.235-.44-.215-.576.02-.921-.023-1.302-.163a2.264 2.264 0 01-.88-.607 5.603 5.603 0 00-.525-.505c-.2-.17-.372-.334-.383-.364a.088.088 0 00-.076-.054c-.108 0-.584-.226-.845-.401a5.902 5.902 0 00-.406-.252c-.254-.133-1.216-.334-1.815-.38l-.324-.024-.024-.132c-.043-.24-.114-.402-.329-.742-.176-.281-.212-.364-.212-.497-.001-.19-.078-.373-.331-.789a2.312 2.312 0 01-.267-.599 5.455 5.455 0 00-.213-.604 3.176 3.176 0 01-.278-1.026 4.342 4.342 0 00-.277-1.145 6.088 6.088 0 01-.216-.773c-.111-.568-.153-.673-.44-1.106-.14-.212-.267-.442-.282-.509a.64.64 0 00-.12-.234 3.148 3.148 0 01-.232-.344 9.857 9.857 0 00-.217-.354.503.503 0 01-.08-.222c0-.154.084-.2.348-.189.557.022.988.452 1.55 1.547.448.87.815 1.319 1.273 1.554.18.093.295.128.414.128.21 0 .287-.08.31-.322.019-.209-.021-.402-.212-1.016-.11-.354-.146-.533-.163-.823-.026-.447-.046-.475-.445-.617-.343-.121-.363-.185-.082-.258.278-.073.575.004.9.234.213.15.254.166.39.15.121-.014.188-.054.352-.211.186-.178.202-.205.189-.324-.017-.145.078-.37.205-.485.104-.096.163-.246.285-.72.161-.632.12-1.16-.128-1.597-.198-.348-1.138-1.117-1.684-1.376-.498-.236-.522-.239-3.221-.271-3.01-.036-4.35-.104-4.739-.24-.562-.195-.966-.55-.907-.793.034-.14.223-.332.392-.398.313-.123.755-.036 1.615.32.788.325 1.266.408 2.178.377.81-.028 1.45-.128 1.614-.252.06-.045.06-.05-.001-.106-.035-.032-.294-.119-.574-.193-.614-.162-.95-.292-.95-.37 0-.048.062-.053.467-.035.47.02.996.112 1.403.243.252.081.822.1 1.009.033.123-.044.145-.137.055-.229-.225-.232-1.461-.687-2.411-.887-.6-.126-1.063-.157-2.062-.137-1.229.025-1.736.117-2.324.422-.48.25-1.041.775-1.218 1.14-.207.427-.067.712.529 1.079.412.254.734.358 1.424.46 1.247.183 2.129.227 4.553.224 1.184-.001 2.128.013 2.25.034.364.062.793.22 1.016.374.262.181.584.57.752.907.11.222.127.287.129.525.002.234-.012.297-.1.46-.135.252-.414.568-.552.627-.165.07-.562-.002-1.032-.184a2.101 2.101 0 00-.774-.18c-.428-.032-.476-.046-1.113-.336-.65-.296-1.64-.627-2.136-.714-.237-.04-.467.006-.796.163-.333.158-.524.314-1.185.965-.623.614-.906.843-1.255 1.014-.632.312-2.44 1.357-2.608 1.508-.246.222-.662.74-.837 1.044-.32.557-.42.994-.458 2.02-.026.698-.03.734-.14 1.021-.123.32-.448.898-.888 1.573-.413.635-.71 1.14-.909 1.545-.39.796-.458 1.101-.492 2.23l-.025.832-.127.382c-.07.21-.217.6-.326.868-.403.993-.395.942-.433 2.767l-.027 1.339-.147.3a5.751 5.751 0 01-.302.53c-.194.293-.25.528-.322 1.377-.022.268-.046.535-.071.802-.015.133-.07.21-.46.652-.745.841-1.03 1.28-1.03 1.583 0 .15-.011.17-.15.269-.273.193-.657.644-.786.923-.151.33-.187.636-.095.82.103.205.172.17.462-.23l.259-.356.084.082c.047.045.085.102.085.127 0 .025-.064.181-.142.347-.079.166-.137.341-.132.392.014.12.136.14.872.13.52-.005.598-.014.755-.088zm-.326-1.963c-.122-.05-.303-.468-.273-.632.025-.14.06-.15.242-.071.19.081.283.067.46-.072.174-.136.229-.152.295-.084.062.064.051.177-.032.338l-.127.245c-.098.19-.405.34-.566.276zm1.134-3.415c-.078-.08-.087-.119-.087-.396 0-.168-.008-.328-.017-.354-.01-.027-.002-.073.017-.103.029-.045.052-.035.142.064.088.096.135.117.253.117.1 0 .17-.024.225-.077.108-.103.19-.066.186.085a.87.87 0 01-.36.657c-.178.118-.25.12-.36.007zm11.189-.325a.686.686 0 01-.205-.084c-.06-.062-.118-.504-.08-.615.074-.217.339-.117.405.154.038.157.044.162.175.162.156 0 .208.067.208.265 0 .11-.012.127-.11.147-.145.03-.193.026-.393-.03zM21.049 34.43c-.147-.067-.2-.245-.181-.621.016-.347.154-.67.34-.8l.118-.08.088.107c.053.065.121.107.173.107.13 0 .396-.156.594-.347.123-.118.248-.234.375-.349.249-.223.31-.373.309-.743-.003-.48-.036-.58-.259-.787-.224-.207-.311-.39-.312-.655 0-.31.147-.485.41-.485.146 0 .247.1.43.422.302.53.742.736 1.032.482.139-.122.184-.13.262-.05.046.046.056.152.056.576 0 .286.014.56.032.607.022.06.095.114.23.17.24.1.317.222.29.461a.406.406 0 01-.311.374c-.197.054-.342.001-.944-.345-.182-.105-.385-.118-.51-.033-.048.032-.168.17-.266.307-.14.194-.256.302-.529.49-.383.263-.492.376-.716.734-.16.257-.35.473-.417.474a.613.613 0 00-.112.018.354.354 0 01-.182-.034zm5.65-7.66a2.32 2.32 0 00-.405-.147c-.225-.05-.354-.118-.422-.224-.048-.076-.048-.107.002-.306.063-.256.03-.456-.093-.57-.063-.059-.124-.069-.378-.064a1.71 1.71 0 00-.458.063 2.68 2.68 0 01-.163.058c-.016 0 .025-.344.057-.477a.323.323 0 01.157-.212c.21-.134.239-.211.216-.574-.027-.437.026-.652.163-.655.017 0 .09.06.162.136a.941.941 0 01.212.389c.137.43.195.524.326.525.21.001.22.022.22.532 0 .557.033.643.4 1.015.562.573.564.778.004.511zm5.717-2.907a2.136 2.136 0 010-.416l.024-.32-.1-.067c-.09-.06-.179-.068-.823-.069-.63-.001-.74-.01-.863-.069l-.14-.067.105-.027c.058-.014.256-.028.44-.03.386-.006.537-.041.7-.165.457-.348.365-.777-.316-1.47-.424-.431-.498-.55-.483-.77l.01-.15.177.182c.096.1.23.28.298.398.193.34.833 1.24 1.074 1.511.35.395.48.74.424 1.117-.03.2-.237.455-.394.486-.097.019-.112.01-.133-.075zm-.765-5.729a2.398 2.398 0 01-.17-.22 4.58 4.58 0 00-.248-.319c-.2-.235-.228-.32-.136-.413.093-.097.491-.099.665-.003.178.097.313.385.34.725l.022.265-.106-.024c-.08-.018-.112-.01-.127.032-.033.087-.142.067-.24-.043zm-1.032-5.101a2.194 2.194 0 01-.236-.09c-.2-.088-.249-.193-.133-.289.102-.085.181-.083.36.011.08.042.24.084.358.094a.675.675 0 01.346.11c.144.1.16.135.076.168-.064.025-.666.022-.77-.004zm-7.24 28.279c.243-.128.466-.393.664-.789.099-.196.235-.4.337-.506.207-.214.25-.296.346-.66.091-.344.246-.667.528-1.101.32-.492.462-.631.882-.863.663-.366.702-.415.744-.925.016-.198.053-.407.081-.464.066-.131.397-.44.666-.622l.208-.14h-.974c-.756 0-1.029.012-1.216.056a1.745 1.745 0 01-.41.045l-.171-.01-.22.56c-.12.309-.219.593-.219.631-.001.12-.112.54-.178.672-.09.184-.688.823-.845.906a.636.636 0 01-.237.071c-.124 0-.263.106-.32.243-.024.056-.154.181-.291.282-.316.23-.705.599-.803.762-.117.195-.174.471-.174.85 0 .386.074.722.16.722.03 0 .166-.082.303-.181.403-.291.485-.23.24.18-.078.13-.141.255-.141.278 0 .07.249.118.562.107.241-.008.334-.028.479-.104zm.345-1.974c-.226-.17-.436-.388-.436-.453 0-.037.083-.103.215-.171l.214-.112.143.097c.194.133.354.148.583.059.256-.1.284-.083.245.15-.017.103-.05.227-.074.275-.055.114-.282.215-.54.242-.19.02-.217.013-.35-.087zm3.696.065c.079-.02.04-.028-.152-.032-.225-.003-.256-.012-.247-.067.007-.035.094-.104.194-.154s.195-.104.211-.12c.016-.017.029-.16.029-.316 0-.342.048-.414.315-.465.184-.035.265-.11.265-.244 0-.062-.038-.1-.155-.153-.194-.088-.26-.196-.171-.276l.353-.314c.257-.228.296-.28.338-.442.092-.356.164-.808.14-.876-.033-.097-.157-.232-.212-.232-.026 0-.079-.032-.117-.072-.047-.048-.07-.056-.07-.024 0 .026-.106.226-.234.443-.129.217-.297.53-.375.696-.126.269-.164.317-.355.45-.535.374-.821.846-.9 1.485-.036.299-.012.496.06.496.029 0 .135-.073.237-.163.102-.09.213-.163.246-.163.055 0 .06.027.038.248l-.024.247.117.039c.136.044.32.048.469.01zm10.978-12.47c.067-.053.191-.193.277-.313l.156-.218-.089-.112c-.352-.447-.57-.78-.739-1.125-.107-.22-.194-.424-.193-.454.002-.088.11-.2.32-.338.477-.31.53-.44.55-1.378.01-.441 0-.763-.026-.904a1.933 1.933 0 00-.439-.878l-.183-.208-.137.043c-.169.052-.425.301-.512.497-.092.207-.08.45.042.943.074.294.108.52.108.706.001.326-.012.411-.163 1.047-.152.643-.198.994-.197 1.53.001.475.048.707.183.91.233.35.756.476 1.042.251zM8.733 13.224c.324-.177 1.18-.549 1.888-.82l.607-.232v-.497c0-.28-.014-.498-.033-.498-.043 0-1.075.43-1.422.594-.152.071-.29.13-.307.13-.018 0-.031-1.117-.031-2.551 0-1.403-.012-2.552-.027-2.552-.014 0-.257.11-.54.244l-.515.245-.015 3.003a183.904 183.904 0 00-.002 3.031c.028.059.18.022.397-.097zm40.792-1.278a747.4 747.4 0 00-.035-3.042l-.025-1.748-.457-.197c-.251-.108-.5-.197-.553-.197h-.097v6.035l.15.04c.082.023.33.121.553.219.222.098.42.179.44.18.023.003.031-.443.024-1.29zM47.58 8.1l.005-1.686-.396-.135a6.265 6.265 0 01-.457-.169.42.42 0 00-.167-.033h-.105l-.005 1.529c-.002.84-.001 1.549.002 1.574.025.201-.15-.195-.772-1.75-.538-1.347-.736-1.804-.79-1.827-.132-.058-.786-.214-.895-.214h-.108v6.08h.09c.074 0 .76.163 1.01.24.058.017.06-.078.04-1.839-.016-1.283-.012-1.846.013-1.821.02.02.408.964.862 2.098l.826 2.061.4.13.399.128.021-1.34c.012-.737.024-2.099.027-3.026zm-35.872 3.93c.058-.03.261-.103.452-.163.19-.06.35-.114.352-.118.003-.005.081-.396.175-.869l.17-.86.161-.049c.555-.168.925-.25.95-.21.013.025.094.357.178.74.084.383.163.709.175.724.013.015.251-.028.53-.095.418-.1.506-.133.498-.182a51.627 51.627 0 00-.293-1.046l-.792-2.776a92.101 92.101 0 00-.524-1.806c-.008-.008-.177.028-.376.08-.198.053-.4.1-.447.106-.085.01-.095.05-.516 1.982l-.709 3.25c-.277 1.268-.279 1.28-.205 1.31.103.043.104.043.221-.018zm1.313-2.797c0-.058.352-1.832.375-1.89.025-.064.069.1.274 1.022l.15.679-.144.038c-.152.04-.488.134-.593.166-.034.01-.062.003-.062-.015zm30.11-1.046l.021-3.01-.201-.042c-.19-.04-.38-.081-.57-.124a4.112 4.112 0 00-.431-.082c-.058.002-.062.134-.07 2.176-.01 2.107.003 3.863.026 3.887.026.028 1.162.245 1.182.226.012-.011.031-1.375.043-3.031zm-26.749 2.612c.153-.031.307-.062.46-.09.006 0 .015-.688.02-1.53.007-1.14.019-1.505.048-1.438.02.05.256.697.524 1.439.267.741.503 1.347.524 1.347.114-.001.103.03.836-2.532.1-.349.194-.65.21-.668.016-.02.03.653.03 1.493 0 .84.011 1.526.026 1.526.042 0 .824-.105.942-.126l.108-.019-.012-2.921c-.007-1.607-.02-2.977-.03-3.043-.018-.114-.026-.12-.131-.102-.302.053-.806.103-.886.087-.05-.01-.096-.007-.104.006-.008.013-.23.732-.493 1.597l-.515 1.692c-.02.066-.044.113-.053.105a65.263 65.263 0 01-.507-1.477l-.505-1.502c-.01-.027-.142-.014-.43.045a4.86 4.86 0 01-.525.085l-.109.001-.023 1.146c-.013.63-.023 1.997-.023 3.037 0 2.022-.01 1.9.146 1.929.012.002.225-.037.472-.086zm24.724-2.997l.009-3.027-.08-.017c-.342-.076-.863-.165-.958-.165h-.116l.02 1.176c.019 1.139.017 1.176-.048 1.176-.036 0-.328-.04-.647-.09-.319-.05-.592-.09-.606-.09-.015 0-.027-.538-.027-1.194V4.376l-.079-.017c-.157-.033-.89-.13-.984-.13h-.097v6.067l.554.074c.304.041.563.069.575.062.012-.007.013-.634.004-1.393l-.018-1.382.084.02c.047.011.341.057.656.102l.571.081v2.811l.114.002c.063.002.313.04.554.086.242.046.455.08.475.076.023-.005.038-1.052.044-3.034zm-5.43 2.382c.534-.143.881-.487 1.047-1.036.059-.192.067-.341.067-1.229v-1.01h-1.617v.175c0 .097-.01.3-.023.453l-.023.277h.685l-.012.482c-.011.45-.018.492-.106.627-.26.404-.797.333-1.11-.147-.228-.348-.238-.429-.238-1.958 0-1.345.002-1.378.078-1.523.093-.18.294-.368.424-.397.053-.012.115-.027.137-.035.084-.025.298.062.42.172a.912.912 0 01.283.553l.022.163h.522c.597 0 .555.033.472-.366-.17-.825-.826-1.371-1.648-1.371-.811 0-1.476.52-1.718 1.343-.035.12-.046.506-.046 1.588 0 1.58.02 1.768.229 2.197.133.274.422.604.678.775.19.126.52.26.727.296.205.035.562.021.75-.029zm-13.302-.198c1.204-.104 1.283-.127 1.588-.462.562-.619.64-1.9.147-2.412-.11-.115-.342-.237-.452-.238-.045 0-.016-.029.083-.08.531-.27.688-1.399.31-2.22-.148-.318-.35-.535-.616-.66l-.198-.094-.58.044c-.595.046-1.735.153-1.749.165-.004.004-.019 1.372-.032 3.041l-.025 3.035.331-.022c.398-.03.796-.062 1.193-.097zm-.466-.854c-.015-.015-.027-.405-.027-.867v-.839l.52-.02.518-.02.116.114c.063.063.158.204.21.314.083.171.096.244.096.525 0 .29-.01.344-.098.497-.15.261-.239.295-.816.31-.271.007-.504 0-.519-.014zm.175-2.648l-.203-.013.01-.785.01-.785.479-.01.479-.01.162.185c.382.438.34 1.145-.082 1.363-.16.084-.287.092-.855.055zm5.083 3.375c.733-.16 1.238-.693 1.324-1.4.018-.146.029-.917.024-1.713-.009-1.596-.015-1.648-.244-2.099-.134-.263-.47-.617-.712-.75a2.091 2.091 0 00-.817-.236c-.614-.042-1.289.426-1.627 1.13-.241.502-.254.629-.225 2.28.026 1.552.04 1.683.218 2.019.326.615 1.225.951 2.059.77zm-.753-.937a.802.802 0 01-.436-.365l-.09-.157-.007-1.515-.008-1.514.098-.203c.245-.515.829-.608 1.25-.2.16.155.253.354.289.616.016.122.034.791.04 1.488.01 1.257.01 1.268-.07 1.435-.179.376-.661.563-1.066.415zm6.333.909c0-.026-.23-.636-.51-1.357-.28-.722-.51-1.326-.51-1.344 0-.018.06-.043.13-.057.522-.1.819-.626.82-1.449 0-.78-.319-1.49-.8-1.78-.18-.108-.465-.135-1.828-.174l-.853-.024v6.077l.114.018c.063.01.31.02.547.024l.432.006-.005-1.295-.005-1.296.295-.01.295-.01.315 1.041c.133.444.268.888.405 1.331l.091.29.384.01c.212.006.408.016.437.023.126.03.246.018.246-.025zM30.274 6.34c-.013-.013-.024-.394-.024-.846v-.822l.433-.026c.48-.028.62.005.806.188.306.302.289 1.133-.03 1.42l-.121.11h-.52c-.287 0-.531-.01-.544-.024z" fill="#9F6B08"/><path d="M28.055 55.716c-1.174-.737-4.104-3.147-6.071-4.996-3.23-3.034-6.467-7.1-8.674-10.89-4.706-8.083-7.151-17.508-7.439-28.677-.084-3.26-.078-3.364.228-4.015.405-.863.77-1.117 2.7-1.88 5.33-2.108 10.958-3.083 18.664-3.234 8.701-.171 15.895.89 21.685 3.2 2.006.8 2.363 1.047 2.77 1.915.308.653.313.75.227 4.087-.471 18.342-6.693 31.945-19.388 42.391-1.54 1.268-3.146 2.423-3.546 2.55-.198.064-.561-.078-1.156-.45zm-8.531-12.51c.22-.104.382-.37.5-.824.097-.368.274-.788.395-.932.132-.158.241-.64.277-1.222.053-.85.122-1.041.598-1.662.308-.4.637-1.057.767-1.528.125-.455.327-1.022.447-1.26.902-1.788 1.484-2.823 1.587-2.823.31 0 .558.686.558 1.545 0 .676.056.934.226 1.031.201.116.203.175.02.55a4.775 4.775 0 00-.306.845c-.136.583-.586 1.202-1.055 1.452-.215.115-.684.502-1.043.861-.517.518-.651.751-.65 1.129.003.637.206.97.442.727.283-.291.411-.207.311.205-.09.37-.077.38.377.287.581-.12 1.108-.464 1.204-.788a2.63 2.63 0 01.197-.462c.068-.12.328-.663.578-1.207.311-.678.652-1.157 1.082-1.52.345-.29.72-.756.832-1.033.332-.818 1.298-1.517 1.298-.939 0 .34-.544 1.364-.941 1.773-.5.515-.885 1.205-.885 1.587 0 .335.197.437.35.18.153-.254.328-.154.252.146-.062.243-.004.289.36.289.721 0 1.4-.419 1.505-.928.05-.246.213-.654.363-.907.177-.301.24-.586.182-.825-.095-.39.163-1.393.357-1.393.146 0 .654 1.08.785 1.665.053.239.221.575.373.747.256.292.369.308 1.632.235 1.307-.075 1.37-.094 1.708-.525.255-.323.373-.687.43-1.32.102-1.117.578-1.877 1.672-2.668l.818-.591.202.324c.11.178.35.699.533 1.157.305.766.317.892.153 1.55-.098.394-.136.853-.085 1.02.052.168-.017.618-.155 1.016l-.25.714.333.364c.377.414.637.465.755.148.107-.287.37-.279.37.012 0 .308.277.195.594-.243.243-.335.245-.398.037-1.004-.122-.356-.194-.759-.16-.896.035-.138 0-.528-.076-.869-.175-.777-.165-1.688.028-2.646.135-.673.116-.82-.2-1.524-.193-.428-.325-.806-.292-.839.032-.033.298.037.59.155 1.363.552 2.428.426 3.074-.363l.383-.467-.83-.073c-.942-.083-.986-.105-1.98-1.003-.702-.633-.728-.682-.653-1.248.045-.334-.025-1.068-.16-1.694-.22-1.018-.22-1.166-.015-1.895.123-.434.223-.982.223-1.215 0-.7-.379-1.78-.824-2.35-.23-.295-.486-.798-.57-1.118a4.483 4.483 0 00-.497-1.106c-.325-.494-.333-.552-.14-1.028.112-.278.204-.863.204-1.3 0-.692-.06-.867-.456-1.332-.861-1.01-1.264-1.102-5.374-1.227-4.745-.145-5.492-.328-4.755-1.167.301-.343.793-.335 1.818.033 1.118.401 2.487.501 3.288.24.688-.225.7-.213-.492-.468-.193-.041-.35-.148-.35-.236 0-.108.218-.13.667-.07 1.836.252 2.142.27 2.142.13 0-.235-1.234-.718-2.52-.986-2.07-.432-4.065-.074-5.01.898-.58.598-.646 1.233-.162 1.558.608.409 1.609.534 5.182.649 3.267.105 3.659.145 4.227.428.698.348 1.002.803.983 1.474-.015.557-.377 1.151-.701 1.151-.548 0-2.363-.47-3.649-.942-.754-.278-1.497-.505-1.652-.505-.349.001-.758.279-1.973 1.335a13.584 13.584 0 01-2.071 1.428c-1.992 1.067-2.607 1.916-2.884 3.982-.15 1.119-.336 1.566-1.193 2.87-.711 1.082-1.215 2.537-1.219 3.52-.002.475-.166 1.236-.439 2.027-.36 1.047-.44 1.516-.467 2.713-.027 1.242-.082 1.544-.39 2.122-.22.417-.395 1.04-.457 1.63-.09.872-.16 1.03-.789 1.787-.38.456-.69.909-.69 1.006-.002.096-.193.4-.426.673-.536.63-.799 1.35-.576 1.58.119.123.215.083.377-.155.308-.454.485-.399.344.106-.08.29-.066.45.045.5.212.095 1.01-.033 1.427-.228zm10.753-30.364c-.394-.257-.018-.325.584-.105l.606.22-.491.01c-.27.005-.585-.051-.699-.125zm-20.27-.177c1.088-.409 1.159-.46 1.159-.856 0-.231-.022-.42-.049-.42-.026 0-.415.13-.865.29-.449.158-.838.288-.865.288-.026 0-.048-1.14-.048-2.532 0-1.394-.022-2.533-.049-2.533-.027 0-.249.071-.492.159l-.442.158v3.041c0 2.838.016 3.034.246 2.94.135-.054.767-.296 1.405-.535zm39.655-2.42V7.219l-.443-.158a4.734 4.734 0 00-.492-.16c-.027 0-.049 1.359-.049 3.02v3.018l.457.15c.25.084.472.158.492.166.019.009.035-1.346.035-3.01zm-2.14-.836l-.038-2.993-.387-.107-.386-.106-.002 1.616c-.003 1.852-.017 1.846-.858-.338-.617-1.601-.817-1.882-1.344-1.882h-.325v2.967c0 2.276.041 2.968.176 2.97.096 0 .316.04.487.087.308.085.312.065.351-1.676l.04-1.763.768 1.975c.423 1.086.865 2.033.984 2.104.558.337.573.256.534-2.854zM12.449 11.88c.049-.03.132-.411.185-.85.109-.893.1-.881.799-1.016l.509-.098.17.73c.166.716.178.728.614.643.244-.048.47-.11.501-.137.07-.062-1.262-5.447-1.378-5.57-.046-.048-.278-.033-.515.034-.426.121-.434.14-.954 2.477a712.95 712.95 0 01-.719 3.196l-.193.841.446-.098c.245-.054.486-.123.535-.152zm.609-2.937c.046-.15.133-.558.193-.905l.109-.63.185.776c.156.654.155.797-.008.903-.34.22-.57.152-.48-.144zm30.14-.658c0-1.627-.047-2.986-.105-3.02a2.923 2.923 0 00-.491-.155l-.387-.096v6.066l.387.06c.212.033.434.07.491.082.058.012.106-1.31.106-2.937zm-26.53 2.596c.137-.054.176-.337.142-1.054a15.94 15.94 0 010-1.555c.042-.532.086-.453.592 1.08l.547 1.653.507-1.854.507-1.855.04 1.626c.034 1.398.07 1.613.257 1.54a1.59 1.59 0 01.487-.087c.258 0 .27-.139.27-3.01v-3.01l-.48.057c-.47.057-.487.083-.85 1.31-.205.689-.454 1.513-.555 1.831l-.184.579-.457-1.52c-.252-.836-.507-1.575-.568-1.643-.06-.068-.306-.079-.545-.025l-.435.099v2.956c0 2.817.012 2.955.27 2.955.147 0 .353-.033.456-.073zM41.06 7.806l-.038-3.003-.386-.046-.387-.046V7.05l-.597-.086c-.98-.142-.948-.096-.948-1.36 0-.833-.05-1.164-.176-1.165a2.533 2.533 0 01-.492-.09l-.316-.087v6.082l.492.059.492.06V9.115c0-1.49-.046-1.434 1.018-1.253l.527.09v1.345c0 1.16.034 1.355.246 1.412.62.167.605.244.565-2.904zM23.376 9.891c.577-.284.904-.884.916-1.679.008-.557-.06-.795-.293-1.035-.3-.31-.301-.316-.036-.765.323-.544.342-1.116.057-1.683-.265-.529-.943-.72-2.106-.595l-.843.09-.038 3.018-.038 3.019 1.021-.102c.562-.056 1.174-.177 1.36-.268zm-1.392-1.516c0-.754.037-.87.296-.94.787-.212 1.356.59.95 1.338-.15.277-.334.383-.724.417l-.522.045v-.86zm0-2.563V5.02h.464c.561 0 .8.22.8.735 0 .46-.191.64-.808.76l-.456.09v-.793zm14.281 4.056c.372-.251.61-1.026.61-1.994.002-.761-.01-.771-1.017-.87l-.667-.067v.489c0 .425.045.489.35.489.284 0 .352.072.352.371 0 .858-.67 1.24-1.171.668-.689-.784-.535-3.77.206-4.013.31-.1.825.279.825.608 0 .126.173.195.491.195.558 0 .62-.193.282-.867-.297-.592-.747-.87-1.406-.87-1.206 0-1.752.927-1.747 2.967.003 1.349.204 2.2.634 2.69.496.565 1.579.663 2.258.204zm-8.69-.154c.172-.124.451-.499.62-.832.44-.871.449-3.058.015-4.033-.295-.664-.868-1.132-1.386-1.132-.491 0-1.153.466-1.46 1.028-.652 1.197-.524 3.846.231 4.77.294.36.45.426 1.007.426.37 0 .796-.099.972-.227zm-1.338-1.032c-.181-.285-.26-.747-.29-1.701-.037-1.12 0-1.379.249-1.79.363-.599.82-.58 1.125.046.317.649.293 2.926-.037 3.444-.317.5-.73.5-1.047 0zm4.036-.09c0-1.222.013-1.274.3-1.23.24.037.39.305.735 1.313l.434 1.266h1.05l-.46-1.364-.462-1.365.377-.366c.46-.448.604-1.1.408-1.852-.22-.838-.77-1.13-2.13-1.131H29.44l-.04 2.979c-.023 1.638-.03 2.99-.018 3.003.013.013.219.024.457.024h.433V8.592zm.105-2.208c-.058-.06-.105-.466-.105-.9v-.792l.592.082c.842.116 1.198.715.777 1.307-.189.267-1.09.483-1.264.303zM4.022 10.375c0-.199.032-.28.071-.18.04.099.04.262 0 .361-.039.1-.07.018-.07-.18zm.02-1.302c0-.438.027-.617.059-.398.032.219.032.577 0 .796-.032.219-.059.04-.059-.398z" fill="#9F6B08"/><path d="M27.653 55.012c-3.453-2.54-7.762-6.667-10.184-9.755-7.316-9.325-10.78-19.82-11.3-34.23-.139-3.83.053-4.3 2.11-5.188 5.38-2.32 12.296-3.48 20.73-3.477 6.356.003 10.795.509 15.665 1.787 2.206.579 5.296 1.684 6.078 2.173.583.366.982 1.043 1.106 1.877.124.832-.157 6.695-.443 9.268-1.481 13.294-6.22 23.581-14.826 32.186-2.765 2.764-6.952 6.17-7.585 6.17-.136 0-.744-.365-1.35-.811zm-8.1-11.774c.33-.208.474-.427.547-.832.054-.302.215-.705.358-.895.191-.252.261-.59.261-1.25 0-.845.038-.953.566-1.61.388-.482.672-1.054.9-1.82.185-.614.46-1.298.611-1.52.152-.221.475-.81.717-1.307.243-.497.496-.905.563-.905.298 0 .495.507.465 1.201-.037.887.062 1.26.336 1.26.177 0 .176.057-.01.427-.117.235-.214.507-.214.606 0 .442-.621 1.442-1.077 1.732a6.115 6.115 0 00-.808.62c-.2.193-.407.38-.62.558-.284.235-.377.639-.309 1.34.041.418.252.6.454.39.265-.272.418-.202.253.117-.137.262-.107.289.31.289.53-.001 1.376-.478 1.376-.775 0-.2.994-2.24 1.341-2.752.1-.148.378-.392.617-.541.238-.15.54-.517.672-.816.316-.72.731-1.195 1.047-1.195.141 0 .257.034.257.076 0 .245-.865 1.783-1.042 1.853-.262.104-.966 1.504-.852 1.695.11.184.489.18.489-.005 0-.08.06-.145.136-.145.075 0 .097.104.05.232-.124.33.186.472.744.343.732-.17 1.177-.528 1.177-.946 0-.2.135-.553.3-.784.231-.32.282-.542.219-.944-.081-.516.118-1.23.343-1.23.162 0 .485.684.682 1.447.275 1.066.383 1.127 1.985 1.127 1.064 0 1.446-.052 1.573-.212.092-.117.288-.349.437-.516.193-.218.277-.541.293-1.133.019-.692.101-.943.502-1.517.6-.86 1.772-1.73 2.032-1.507.099.085.348.587.554 1.116.339.872.358 1.02.206 1.581-.093.34-.135.8-.094 1.02.041.222-.014.623-.123.891-.28.69-.248.993.147 1.4.427.44.612.448.77.03l.122-.326.132.355.133.354.373-.384c.42-.433.466-.805.17-1.395-.112-.223-.167-.548-.123-.723.044-.175 0-.71-.099-1.19-.146-.707-.146-1.096 0-2.06.17-1.124.163-1.217-.12-1.76-.451-.869-.398-.952.406-.637 1.216.476 2.495.278 3-.465.354-.52.295-.713-.187-.614-.746.154-1.341-.07-2.17-.818l-.799-.72-.072-1.267c-.075-1.331-.08-2.105-.02-4.212.035-1.274.034-1.282-.521-2.135-.306-.47-.66-1.167-.788-1.548-.127-.38-.372-.847-.543-1.035-.297-.325-.302-.363-.088-.788.67-1.335.27-2.653-1.033-3.4l-.76-.436-3.596-.115c-4.559-.146-5.419-.316-5.062-1.001.233-.45.732-.467 1.95-.07 1.238.402 2.596.489 3.36.214.515-.185.458-.42-.1-.42-.213 0-.51-.101-.66-.225-.255-.21-.237-.22.29-.147 1.72.236 2.318.261 2.318.097 0-.093-.269-.287-.597-.431-2.034-.892-4.612-.989-6.087-.23-.749.386-1.465 1.14-1.465 1.543 0 .267.685.822 1.211.982.3.091 2.189.229 4.198.306 3.944.152 4.605.275 5.127.958a1.398 1.398 0 01-.037 1.71l-.32.383-1.095-.233a20.343 20.343 0 01-2.314-.683c-2.104-.777-2.115-.776-3.783.66-.564.485-1.669 1.244-2.455 1.687-2 1.127-2.404 1.775-2.714 4.363-.058.485-.288 1.007-.798 1.81-1.076 1.693-1.38 2.476-1.521 3.916-.073.745-.299 1.77-.55 2.495-.353 1.024-.425 1.451-.426 2.55-.002 1.125-.053 1.416-.343 1.955-.186.348-.38.959-.429 1.357-.15 1.227-.2 1.348-.836 2.087-.34.394-.663.867-.72 1.051-.055.185-.28.549-.501.809-.447.527-.624 1.062-.48 1.444.085.222.141.2.45-.18l.354-.435-.09.543-.09.543h.604c.35-.001.792-.12 1.052-.283zm10.784-30.412c-.145-.243-.031-.255.498-.055l.492.188-.449.01c-.246.006-.49-.058-.54-.143zM8.827 25.247c-.658-3.475-1.09-7.417-1.308-11.905-.229-4.72-.234-4.774-.496-5.187-.135-.212-.301-.385-.37-.385-.406 0 .124 8.21.805 12.447.39 2.43 1.266 6.08 1.459 6.08.06 0 .02-.473-.09-1.05zm2.479-13.46c0-.3-.022-.544-.048-.544-.027 0-.416.131-.866.29-.45.16-.85.257-.89.216-.04-.041-.101-1.149-.136-2.461C9.331 7.975 9.252 6.9 9.189 6.9c-.062 0-.275.064-.473.142l-.36.14V13.4l1.475-.536 1.474-.536v-.543zm38.253-4.612c-.06-.06-.282-.153-.495-.207l-.386-.098v6.11l.457.192.456.192.038-3.04c.021-1.672-.01-3.09-.07-3.149zm-1.864 2.34c0-1.667-.048-3.06-.106-3.095-.058-.035-.317-.11-.575-.168l-.47-.104.048 1.462c.027.805.017 1.462-.021 1.462-.039-.001-.34-.701-.67-1.557-.733-1.904-.703-1.857-1.262-1.982l-.457-.102v3.042c0 1.674.048 3.07.106 3.104.058.033.279.103.491.156l.387.095v-1.696c0-.933.052-1.635.117-1.559.064.076.423.942.797 1.925.661 1.739.851 2.008 1.439 2.039.135.007.175-.689.175-3.022zM12.122 12.1c.39-.14.455-.248.599-.999.147-.769.197-.848.584-.928.635-.13.638-.129.734.458.138.843.22.918.82.747.286-.082.52-.183.52-.225 0-.042-.244-1-.543-2.128a230.91 230.91 0 01-.73-2.816c-.183-.75-.196-.763-.616-.673-.236.051-.474.136-.53.19-.102.096-1.512 6.012-1.514 6.35 0 .221.114.225.676.024zm1.064-3.344c.047-.244.086-.546.086-.671 0-.366.234-.005.326.502.068.377.033.469-.208.533-.259.07-.28.03-.204-.364zm38.429.533c.009-1.043-.088-1.664-.258-1.664-.054 0-.211.086-.35.19-.242.183-.243.258-.014 1.773.132.871.275 1.68.32 1.8.115.314.292-.914.302-2.098zm-8.417-.994V5.2l-.444-.092c-.245-.05-.457-.075-.473-.054-.015.02-.07 1.382-.12 3.025l-.093 2.989.53.145c.291.08.545.151.565.16.019.008.035-1.378.035-3.08zm-26.59 2.713c.3-.083.318-.164.33-1.482l.014-1.394.456 1.412c.251.778.491 1.449.533 1.492.042.043.204-.365.36-.906.165-.57.33-1.14.493-1.709l.209-.724.015 1.461.014 1.461.527-.089.527-.09-.053-3.035c-.029-1.67-.07-3.057-.09-3.081-.02-.024-.247.012-.504.08-.456.122-.48.167-.957 1.837l-.49 1.712-.511-1.575c-.504-1.555-.516-1.575-.92-1.527-.225.027-.453.092-.507.145-.053.053-.116 1.448-.14 3.1-.046 3.245-.075 3.124.695 2.912zm24.623-3.085c0-1.667-.048-3.06-.106-3.097-.058-.037-.295-.09-.527-.117l-.421-.051-.041 1.122c-.04 1.113-.044 1.121-.422 1.12-.948-.006-.998-.07-1.042-1.353l-.04-1.179-.457-.045-.457-.045V7.31c0 3.244-.008 3.21.709 3.21.237 0 .268-.14.304-1.34l.041-1.338.562.05c.31.027.61.08.667.117.058.036.106.677.106 1.424v1.357l.456.059c.251.032.504.068.562.081.058.013.106-1.34.106-3.008zm-17.882 2.08c.92-.384 1.314-1.811.758-2.75-.226-.382-.236-.48-.07-.715.264-.37.245-1.523-.031-1.93-.34-.499-.845-.632-1.986-.521L21 4.185v6.198l.948-.095c.521-.053 1.152-.18 1.401-.285zm-1.31-.986c-.04-.11-.054-.485-.03-.833.04-.572.081-.636.439-.678.551-.065.8.202.8.864 0 .473-.06.588-.361.706-.498.195-.76.177-.847-.06zm-.056-3.186c0-.551.044-.647.34-.723.474-.123.771.027.872.44.113.464-.289.92-.813.92-.378 0-.4-.035-.4-.637zm14.106 4.234c.509-.238.786-.96.786-2.044v-.936l-.651-.092c-1.024-.144-1.035-.14-1.035.415 0 .41.054.506.281.506.409 0 .413 1.096.006 1.229-.714.233-1.127-.576-1.129-2.21 0-1.215.283-1.913.777-1.913.285 0 .408.103.533.443.15.41.2.437.655.35.271-.053.512-.115.536-.14.024-.023-.047-.267-.158-.541-.617-1.52-2.438-1.636-3.057-.193-.373.87-.487 2.263-.27 3.336.236 1.175.956 1.955 1.803 1.955.315 0 .73-.074.923-.165zm-8.545-.253c.626-.393.942-1.19 1.014-2.562.115-2.21-.568-3.533-1.823-3.533-.453 0-.658.095-1.03.479-.62.639-.814 1.451-.748 3.142.043 1.104.115 1.48.364 1.895.515.858 1.408 1.091 2.223.58zm-1.122-.963c-.72-.743-.593-3.742.172-4.044.894-.354 1.318 3.066.495 4.002-.283.323-.387.33-.667.042zm6.379 1.119c0-.065-.189-.693-.42-1.395l-.418-1.277.434-.51c.395-.464.43-.58.373-1.284-.105-1.304-.804-1.783-2.603-1.784l-.879-.001V9.94h1.124V8.638c0-1.737.235-1.739.84-.008.4 1.139.498 1.301.826 1.353.664.105.723.104.723-.015zm-2.388-4.404v-.776l.486.059c.613.073.81.314.752.923-.042.453-.078.482-.642.524l-.597.045v-.775zm-22.626 1.3c.01-.19-.484-.115-.817.125l-.322.233.32.351.32.351.247-.475c.135-.262.248-.524.252-.584z" fill="#040404"/><path d="M26.897 54.321C17.02 46.667 10.91 37.27 8.078 25.37c-1.139-4.786-1.83-10.698-1.83-15.663 0-2.71.189-3.008 2.496-3.952 7.412-3.033 18.413-4.102 29.116-2.828 5.417.645 12.272 2.662 13.35 3.928.439.514.54.806.243.695-.096-.035-.32.05-.498.191-.32.256-.321.26-.118 1.481.113.674.25 1.925.304 2.781.055.856.147 1.556.205 1.556.186 0 .279-1.03.312-3.474l.032-2.388.05 1.954c.092 3.67-.435 9.126-1.306 13.542-1.627 8.237-4.786 15.356-9.568 21.558-3.017 3.912-10.643 10.928-11.88 10.928-.207 0-1.01-.521-2.089-1.358zm3.39.18c1.833-1.22 3.625-2.771 5.693-4.929 2.836-2.958 4.48-4.933 5.048-6.065.173-.346.165-.412-.08-.64-.265-.248-.33-.197-2.207 1.712-2.348 2.388-3.972 3.738-3.972 3.302 0-.258-1.819-1.32-2.904-1.696-1.94-.67-4.045-.61-5.765.168l-.73.33-.235-.822c-.66-2.319-1.031-5.4-.678-5.638.085-.057.33-.51.545-1.007a4.04 4.04 0 011.122-1.547c.443-.39.783-.828.861-1.109.133-.477.755-1.076 1.02-.981.229.082-.276 1.116-.915 1.877-.307.366-.643.875-.746 1.13-.162.406-.157.497.04.7.208.214.234.21.33-.046.095-.253.112-.246.187.083.108.474.526.529 1.309.172.546-.25.627-.348.707-.86.049-.317.19-.663.312-.767.15-.128.21-.383.187-.779-.038-.617.118-1.384.28-1.384.17 0 .549.781.65 1.34.055.299.223.706.375.904.261.343.347.36 1.723.36h1.449l.4-.539c.31-.419.404-.71.421-1.298.03-1.027.543-1.896 1.563-2.648l.8-.591.23.312c.125.171.362.696.526 1.166.233.668.267.94.156 1.242-.079.213-.167.781-.196 1.263a15.38 15.38 0 01-.146 1.398c-.082.455-.045.562.29.833.483.392.604.39.762-.016.092-.235.129-.258.136-.08.015.413.293.453.663.096.3-.29.34-.427.268-.92-.047-.319-.139-1.002-.206-1.52-.066-.517-.168-1.057-.225-1.2-.057-.142-.024-.858.074-1.592.17-1.273.163-1.363-.124-1.943-.412-.832-.384-.962.143-.68.61.324 1.966.435 2.506.205.459-.196.984-.782.984-1.099 0-.142-.17-.17-.667-.111-.554.065-.743.02-1.11-.26-.34-.26-.68-.518-1.022-.774-.55-.413-.574-.463-.5-1.03.045-.34-.021-1.05-.153-1.648-.127-.578-.194-1.254-.148-1.502.046-.248.147-.764.224-1.146.191-.96-.038-1.94-.693-2.963-.292-.456-.612-1.09-.71-1.409a4.384 4.384 0 00-.45-.978c-.262-.385-.263-.428-.034-1.138.451-1.4-.014-2.538-1.302-3.185-.625-.314-.905-.344-4.113-.44-3.083-.092-4.687-.247-5.069-.49-.26-.166-.124-.652.23-.819.302-.141.555-.101 1.58.25 1.308.448 2.683.54 3.443.231.506-.205.392-.388-.313-.504-.307-.05-.596-.157-.644-.236-.12-.2.18-.182 1.255.075.87.208 1.625.174 1.625-.073 0-.16-1.186-.661-2.197-.93-1.142-.304-3.181-.3-4.108.009-.853.284-1.774 1.051-1.905 1.586-.118.484.276.95 1.013 1.201.296.101 2.234.258 4.458.361 4.18.195 4.562.27 5.05.986.32.472.273 1.19-.107 1.646-.32.382-.341.387-1.09.216-.419-.096-1.586-.45-2.594-.788-1.42-.476-1.925-.587-2.248-.495-.229.064-.89.54-1.47 1.055-.583.52-1.667 1.271-2.428 1.684-1.937 1.052-2.53 1.87-2.77 3.815-.135 1.094-.368 1.659-1.345 3.255-.667 1.089-1.044 2.192-1.044 3.055 0 .445-.19 1.313-.491 2.24-.415 1.278-.492 1.716-.492 2.802 0 1.089-.054 1.395-.35 1.988a5.068 5.068 0 00-.431 1.424c-.132 1.194-.163 1.27-.9 2.165-.389.474-.707.98-.707 1.122 0 .143-.061.26-.136.26-.235 0-.848 1.063-.848 1.472 0 .547.27.662.58.25l.26-.347-.086.47c-.075.409-.048.47.206.47.202 0 .41.213.674.688 1.487 2.682 4.767 6.622 7.217 8.667 1.237 1.032 2.934 2.225 3.166 2.225.09 0 .567-.27 1.063-.599zm-9.572-13.357c.077-.208.133-.7.124-1.091-.013-.587.059-.811.405-1.264.535-.702.808-1.254 1.02-2.066.181-.695 1.646-3.624 1.812-3.624.293 0 .437.437.437 1.325 0 .732.054 1.008.218 1.102.357.206-.153 1.681-.809 2.336-.85.85-1.28 1.23-1.688 1.494-.278.18-.411.412-.477.832-.05.32-.14.582-.202.582-.061 0-.307.17-.546.377l-.434.376.14-.379zm9.699-28.308c-.174-.116-.162-.14.07-.133.154.005.407.064.562.133.257.114.251.125-.07.132-.194.004-.447-.055-.562-.132zM10.515 31.254c-.263-.856-.759-2.729-1.103-4.162-1.178-4.91-1.572-8.218-1.978-16.593-.069-1.424-.147-1.93-.354-2.28-.312-.529-.547-.58-.56-.124-.18 5.942.77 13.501 2.391 19.018.704 2.395 1.853 5.697 1.984 5.697.054 0-.117-.7-.38-1.556zm4.374-8.5c2.733-.741 5.284-2.91 6.476-5.504.146-.318.27-.611.277-.651.006-.04.13-.463.276-.941.197-.644.267-1.318.271-2.605.006-1.948-.096-2.525-.454-2.551-.133-.01.12-.072.561-.14 1.525-.23 2.076-.796 2.076-2.135 0-.49-.084-.822-.27-1.057-.252-.32-.254-.358-.035-.61.153-.175.235-.52.235-.989 0-.63-.057-.773-.459-1.142-.483-.446-1.111-.535-2.316-.33L21 4.19v1.923c0 1.058-.038 2.026-.085 2.152-.047.126-.236.23-.421.23h-.337v-2.1c0-2.08-.002-2.098-.316-2.096-.819.005-.879.085-1.374 1.845l-.474 1.682-.494-1.548-.493-1.548-.497.092c-.273.05-.544.12-.602.154-.057.034-.105.963-.105 2.064v2l-.371.096c-.205.053-.417.043-.472-.02-.054-.065-.295-.89-.534-1.835-.24-.945-.464-1.747-.498-1.782-.035-.036-.287-.022-.56.031l-.497.096-.37 1.614c-.668 2.92-.538 2.648-1.371 2.849a9.785 9.785 0 00-1.193.368l-.456.191v-1.96c0-1.735-.026-1.951-.224-1.873-.123.049-.38.129-.57.178l-.345.089.054 3.275c.06 3.613.24 4.921 1.14 8.286.688 2.569 1.307 4.169 1.68 4.336.42.189 2.657.052 3.674-.224zm-1.701-13.91c.047-.127.085-.368.085-.536 0-.396.215-.161.336.366.078.339.046.398-.208.398-.214 0-.274-.064-.213-.229zm8.936-.479c0-.602.045-.719.304-.788.488-.132.82.142.82.675 0 .58-.214.82-.73.82-.377 0-.394-.029-.394-.707zm-5.104.466c-.052-.053-.092-.2-.09-.326.004-.188.031-.182.154.035.15.268.107.468-.064.291zm1.895-.482c0-.2.032-.28.071-.181.04.1.04.262 0 .361-.039.1-.07.019-.07-.18zm3.21-2.533c0-.648.002-.652.491-.652.494 0 .573.115.499.724-.034.281-.413.579-.736.579-.208 0-.255-.12-.255-.652zm27.107 13.107c.395-1.013.995-4.69.987-6.05-.003-.519-.107-1.053-.276-1.412-.225-.48-.273-.905-.277-2.473l-.004-1.894-.488-.154-.487-.154-.04 1.758c-.037 1.665-.054 1.756-.32 1.715-.633-.097-.632-.093-.632-2.033V6.358l-.44-.09a4.766 4.766 0 00-.561-.09c-.068 0-.126.634-.129 1.41L46.56 9l-.64-1.592c-.352-.876-.682-1.635-.732-1.686-.051-.051-.298-.138-.549-.192l-.457-.1v1.894c0 1.879-.002 1.893-.323 1.893-.589 0-.66-.237-.66-2.183 0-1.782-.01-1.839-.316-1.923-.823-.227-.808-.261-.808 1.88v1.97l-.316-.087a2.69 2.69 0 00-.422-.09c-.058 0-.105-.905-.105-2.01V4.767l-.44-.09a4.765 4.765 0 00-.561-.09c-.068 0-.123.52-.123 1.157 0 1.25.008 1.24-.82 1.069l-.434-.09-.04-1.177-.04-1.177-.528-.045-.527-.045v6.21l.496.06c.273.032.526.029.563-.009.036-.037.065-.643.065-1.346 0-1.382-.014-1.361.826-1.188l.439.09.009 1.104c.01 1.226.205 3.983.315 4.433.543 2.242 2.287 4.314 4.331 5.146 1.083.441 1.718.55 3.101.532 1.175-.016 1.23-.031 1.368-.387zM45.385 9.47c-.147-.498-.181-.825-.08-.76.19.12.425.941.27.941-.075 0-.161-.081-.19-.18zm-9.107.533c.453-.305.599-.778.599-1.937 0-1.1-.06-1.159-1.16-1.163-.521-.002-.526.004-.526.577 0 .482.046.579.28.579.216 0 .282.097.282.416 0 .61-.327.84-.77.54-.444-.3-.565-.755-.565-2.12 0-1.657.625-2.428 1.165-1.437.205.375.311.433.732.398.44-.036.489-.081.465-.44-.063-.942-1.168-1.731-2.09-1.493-.552.143-1.125.84-1.308 1.59-.343 1.405-.087 3.352.553 4.189.507.664 1.598.804 2.343.301zm-8.56-.279c.59-.511.89-1.392.911-2.675.036-2.12-.618-3.332-1.798-3.332-1.244 0-1.964 1.194-1.964 3.256 0 1.342.318 2.374.87 2.821.524.425 1.447.393 1.981-.07zM26.32 8.689c-.126-.157-.206-.717-.232-1.629-.044-1.536.119-2.082.643-2.16.515-.076.775.778.704 2.311-.06 1.294-.226 1.717-.675 1.717-.136 0-.334-.108-.44-.24zm4.063.058c.054-1.693.283-1.684.88.036l.453 1.302h.613c.337 0 .61-.016.608-.036-.003-.02-.213-.645-.467-1.39l-.462-1.353.396-.408c.33-.34.397-.531.397-1.137 0-1.5-.484-1.928-2.283-2.018l-1.23-.062V6.8c0 3.322-.005 3.298.703 3.242.342-.027.352-.06.392-1.294zm.03-3.149c0-.722 0-.723.463-.723.559 0 .801.219.801.723 0 .505-.242.724-.8.724-.463 0-.464-.001-.464-.724zm-22.9 2.124c0-.096.16-.418.356-.715.286-.433.312-.54.135-.54-.243 0-1.334.54-1.334.66 0 .041.136.265.303.498.295.41.54.454.54.097zm8.18-3.349c5.881-.977 11.71-1.284 17.882-.94 2.522.14 6.798.568 8.5.85.738.123.978.104.815-.064-.12-.124-3.418-.757-5.17-.992-3.287-.44-5.889-.56-10.6-.484-4.903.08-6.975.264-10.194.91-2.385.477-4.394 1.077-3.61 1.077.126 0 1.195-.16 2.376-.357z" fill="#040404"/></g><defs><filter id="filter0_d_35_433" x="0" y="0" width="57.999" height="66" filterUnits="userSpaceOnUse" color-interpolation-filters="sRGB"><feFlood flood-opacity="0" result="BackgroundImageFix"/><feColorMatrix in="SourceAlpha" values="0 0 0 0 0 0 0 0 0 0 0 0 0 0 0 0 0 0 127 0" result="hardAlpha"/><feOffset dy="4"/><feGaussianBlur stdDeviation="2"/><feComposite in2="hardAlpha" operator="out"/><feColorMatrix values="0 0 0 0 0 0 0 0 0 0 0 0 0 0 0 0 0 0 0.25 0"/><feBlend in2="BackgroundImageFix" result="effect1_dropShadow_35_433"/><feBlend in="SourceGraphic" in2="effect1_dropShadow_35_433" result="shape"/></filter></defs></svg>