<svg width="91" height="104" fill="none" xmlns="http://www.w3.org/2000/svg"><g filter="url(#filter0_d_32_72)"><path d="M43.019 95.226c-1.344-.759-5.184-3.727-8.233-6.364a87.143 87.143 0 01-13.469-14.629c-8.545-11.69-13.83-25.292-16.14-41.54-1.102-7.753-1.53-18.583-.829-21 .444-1.53 1.453-2.954 2.73-3.852 1.38-.97 5.786-2.717 9.739-3.861C25.193 1.556 34.444.394 45.422.389c13.995-.007 25.45 1.87 35.113 5.756 3.45 1.387 4.726 2.382 5.722 4.46l.655 1.364-.016 5.971c-.043 16.593-3.766 32.723-10.555 45.734-1.73 3.317-5.822 9.73-7.846 12.302-3.746 4.757-8.075 9.32-12.372 13.04-2.901 2.513-7.195 5.787-8.385 6.396-1.462.748-3.185.68-4.719-.186zm2.904-.426a1.87 1.87 0 00-.817 0c-.224.06-.04.109.408.109.45 0 .633-.05.409-.11zm-9.271-5.897c0-.05-.184-.238-.408-.418-.37-.297-.378-.288-.088.09.305.398.496.525.496.328zm-1.4-1.182c0-.043-.288-.338-.64-.657l-.642-.579.565.657c.529.614.718.767.718.58zm-3.265-3.146c-.826-.854-1.554-1.553-1.618-1.553-.065 0 .56.699 1.385 1.553.827.854 1.555 1.552 1.62 1.552.064 0-.56-.698-1.387-1.552zm-3.498-3.583c-.826-.853-1.555-1.552-1.619-1.552-.064 0 .56.699 1.386 1.552.826.854 1.555 1.553 1.62 1.553.063 0-.56-.699-1.387-1.553zm-2.099-2.346c0-.043-.288-.339-.641-.657l-.641-.58.565.658c.528.614.717.766.717.579zm-1.4-1.677c0-.045-.235-.287-.524-.537l-.525-.455.444.537c.418.505.606.646.606.455zm-.932-1.194c0-.045-.236-.287-.525-.537l-.525-.455.445.537c.417.505.605.646.605.455zm-.933-1.202c0-.05-.183-.237-.408-.418-.37-.297-.378-.288-.088.09.304.398.496.525.496.328zm-.7-.955c0-.05-.183-.238-.408-.418-.37-.297-.378-.289-.088.09.305.398.496.524.496.328zm-.7-.956c0-.05-.183-.237-.407-.418-.37-.296-.379-.288-.088.09.304.399.496.525.496.328zm-3.264-4.925c-.138-.263-.303-.477-.366-.477-.065 0-.005.214.132.477.138.263.302.478.366.478.065 0 .005-.215-.132-.478zm-.7-1.194c-.137-.263-.302-.478-.366-.478s-.005.215.133.478c.137.262.302.477.366.477s.004-.214-.133-.477zm-.7-1.194c-.137-.263-.302-.478-.366-.478s-.004.215.133.478c.137.262.302.477.366.477s.005-.215-.133-.477zm-2.149-4.17c-.667-1.374-1.25-2.46-1.295-2.413-.104.105 2.24 4.91 2.395 4.91.063 0-.432-1.123-1.1-2.497zm-2.02-4.35c-.275-.485-.342-.33-.117.27.08.214.195.338.255.277s-.002-.308-.138-.548zm22.404-41.32c-.168-.07-.369-.062-.446.018-.078.08.06.136.306.125.271-.011.327-.068.14-.144zM5.956 11c.08-.212.04-.308-.092-.224-.127.08-.23.247-.23.37 0 .344.166.268.321-.146zm79.44.159c0-.117-.218-.466-.484-.777l-.483-.563.417.776c.432.805.55.925.55.563zm-55.23-3.534c-.169-.068-.37-.06-.447.02-.078.079.06.135.306.125.271-.012.327-.068.14-.145zm10.101-.314c.232-.263.37-.478.305-.478-.064 0-.306.215-.538.478-.232.263-.37.478-.306.478s.307-.215.54-.478zm-5.904-.163c-.168-.069-.37-.06-.446.019-.078.08.06.136.306.125.271-.011.327-.068.14-.144zM62.35 2.61c-.168-.069-.37-.06-.447.019-.077.08.06.136.306.125.272-.011.328-.068.141-.144zm-1.866-.239c-.168-.069-.37-.06-.447.019-.077.08.06.136.307.126.271-.012.327-.069.14-.145zm-1.85-.234a.88.88 0 00-.584 0c-.16.067-.029.12.292.12.32 0 .452-.053.291-.12zM35.53 1.894c-.169-.068-.37-.06-.447.02-.078.079.06.135.306.125.271-.012.327-.068.14-.145zm20.417-.002c-.227-.06-.542-.056-.7.01-.158.064.028.114.413.11.385-.006.514-.06.287-.12zM39.97 1.646a6.113 6.113 0 00-1.4.002c-.35.055-.006.098.763.097.77-.001 1.056-.046.637-.1zm12.361 0a6.112 6.112 0 00-1.4.002c-.35.055-.007.098.763.097.77-.001 1.056-.046.637-.1z" fill="#F9CE5C"/><path d="M43.322 95.32c-4.175-2.245-13.93-11.132-19.004-17.313-12.913-15.73-19.356-34.736-20.23-59.68-.217-6.181.184-7.783 2.476-9.893 2.928-2.697 14.46-6.05 24.723-7.189 19.06-2.116 37.359-.13 50.428 5.476 3.653 1.566 5.07 3.652 5.262 7.742.126 2.684-.288 10.707-.775 15.017-3 26.552-13.847 46.65-33.676 62.392-4.156 3.299-5.145 3.884-6.736 3.981-1.072.066-1.544-.036-2.468-.533zm5.385-1.783c7.543-5.241 15.315-12.998 20.94-20.9C77.093 62.18 82 49.785 84.45 35.256c1.437-8.52 2.046-20.803 1.179-23.764-.511-1.744-2.084-2.993-5.506-4.372-9.97-4.017-23.612-6.088-37.524-5.695-12.653.357-22.87 2.192-31.635 5.682-2.506.998-3.142 1.362-4.232 2.421-1.256 1.221-1.288 1.287-1.575 3.168-.337 2.22-.024 10.782.599 16.35 3.025 27.04 14.078 47.206 34.527 62.989 3.206 2.474 4.024 2.93 5.263 2.93.967 0 1.365-.18 3.161-1.428zm-5.53.195c-1.086-.676-4.15-3.055-6.525-5.066C23.958 77.919 15.21 64.839 10.184 49.092c-1.933-6.057-3.388-13.178-4.196-20.538-.391-3.562-.852-13.777-.673-14.913.285-1.803.294-1.821.815-1.536.74.407 1.072-.074.58-.842-.302-.473-.334-.722-.139-1.095 1.277-2.443 12.962-6.18 23.434-7.494 5.06-.635 9.032-.854 15.534-.855 12.56 0 22.033 1.342 31.11 4.408 4.103 1.386 6.577 2.494 7.239 3.244.412.467.413.518.023 1.195-.51.885-.34 1.184.677 1.184.846 0 .83-.027 1.14 1.875.193 1.173-.279 11.575-.693 15.321-1.91 17.262-7.266 31.969-16.063 44.11-5.184 7.152-13.146 15.05-20.168 20l-1.67 1.179-.375-.548c-.319-.466-.519-.53-1.327-.418-.523.072-1.067.293-1.209.492-.227.318-.353.303-1.046-.129zm-5.026-29.714c.41-.42.491-1.058.133-1.058a.233.233 0 00-.233.235c0 .129-.262.302-.583.384-.584.15-.719.357-.428.655.263.269.726.178 1.111-.216zm-6.164-3.102c0-.058-.105-.105-.233-.105s-.233.114-.233.253.105.187.233.105c.128-.081.233-.195.233-.253zm16.298-2.025c-.391-.652-.75-1.185-.794-1.185-.046 0 .2.575.544 1.277.345.702.703 1.236.795 1.185.092-.05-.153-.625-.545-1.277zm3.876-4.05c.083-.138-.081-.214-.386-.18-.418.047-.562-.091-.686-.657-.145-.668-.157-.676-.183-.107-.042.921.86 1.599 1.255.944zm-5.27-3.672c1.05-.203 1.422-.55 1.422-1.328 0-.699-.679-1.876-.692-1.2-.005.202-.471.834-1.038 1.403-.566.57-1.084 1.246-1.15 1.504-.107.421-.079.434.272.123.216-.192.75-.417 1.187-.501zm7.48-.383c-1.545-.204-2.08-.474-2.885-1.452-1-1.217-.724-2.616.635-3.222l.74-.329-.83-.01c-2.446-.027-2.486 3.433-.054 4.747.619.335 1.303.471 2.283.457l1.4-.02-1.289-.171zm6.517-2.275c-.01-.263-.07-.343-.136-.18-.064.165-.318.3-.564.3-.246 0-.447.08-.447.179 0 .098.262.179.583.179.434 0 .578-.123.565-.478zM36.06 47.127c.39-.612.955-1.182 1.255-1.269.638-.183 2.212.281 3.125.92.918.643 2.107.797 2.49.323.171-.21.586-.385.923-.389.589-.007.595-.02.16-.358-.28-.218-.99-.352-1.866-.354-1.715-.005-2.464-.358-2.94-1.389l-.361-.781-.443.5c-.626.709-1.368.535-1.52-.357l-.122-.716-.721 1.074c-1.022 1.523-1.486 2.515-1.486 3.173 0 1.262.548 1.125 1.506-.377zm14.061-2.782c.24-.057-.027-1.639-.402-2.391-.352-.706-.643-.963-1.225-1.08-2.294-.465-2.86-1.175-2.65-3.32.162-1.632.145-1.67-1.103-2.623-.49-.374-1.005-.938-1.145-1.252-.333-.75-.67-.723-2.273.18-1.881 1.059-2.055 1.425-1.2 2.538.38.493.755 1.34.843 1.904.089.567.288 1.015.45 1.015.431 0 .834 1.075.834 2.224 0 .85.161 1.197 1.025 2.208l1.025 1.2 2.882-.294c1.584-.162 2.908-.3 2.94-.309zm5.06-1.816c-.316-.86-.892-2.822-1.28-4.359-.411-1.624-1.152-3.72-1.77-5.004-1.008-2.096-1.3-2.469-1.578-2.01-.154.255 1.07 3.343 1.95 4.92.37.666.95 2.338 1.288 3.717.355 1.444.87 2.888 1.216 3.404.33.493.634.895.675.895.04 0-.184-.703-.5-1.563zm-5.526-12.366c-1.209-1.014-.595-1.76.882-1.07.471.22.588.417.506.854-.068.367-.026.486.12.337.419-.429.072-1.115-.778-1.541-1.528-.765-2.312.135-1.115 1.28.4.383.793.691.876.686.083-.005-.138-.25-.491-.546zm9.749-1.468c.186-.455.337-1.073.337-1.373-.001-.73-.78-2-1.444-2.353l-.537-.287.495.57c1.086 1.248 1.288 2.333.665 3.567-.221.437-.26.705-.105.705.138 0 .403-.373.589-.829zm-17.11-5.627c-1.034-.645-.961-1.538.19-2.332.653-.45 1.059-.547 2.04-.485.835.053 1.225-.013 1.225-.207 0-.157.498-.447 1.107-.645l1.108-.36-1.4.126c-2.142.192-3.663.71-4.653 1.588-.76.672-.876.895-.744 1.434.086.35.444.797.795.992.956.532 1.22.444.331-.11zm-30.63-5.904c-.077-4.69-.074-4.718.445-4.953.776-.35.632-.614-.178-.325l-.7.25v4.872c0 3.374.079 4.873.256 4.873.18 0 .232-1.407.178-4.717zm38.477 4.508c.242-.157.214-.229-.123-.319-.24-.064-.567.028-.729.206-.24.262-.216.321.123.318a1.61 1.61 0 00.73-.205zm28.905-9.56c.358.138.534.146.403.018-.128-.124-.47-.3-.758-.389l-.525-.162.054 4.972.053 4.972.068-4.829.068-4.828.637.246zm-63.267 7.083c.153-.153.032-.174-.35-.06-.911.274-2.098.798-2.098.928 0 .175 2.179-.598 2.448-.868zm2.238-4.574c.993-4.399 1.036-4.52 1.723-4.827l.704-.314-.613-.01c-.337-.004-.717.126-.846.29-.232.297-2.403 9.47-2.375 10.034.032.625.426-.824 1.407-5.173zm56.68 4.233c-.275-.484-.342-.33-.117.271.08.214.195.338.255.277.06-.062-.002-.308-.138-.548zm-3.18-9.095c.315.061.516.02.448-.093-.067-.112-.38-.204-.692-.204h-.57l.054 4.836.052 4.837.069-4.744.069-4.744.57.112zM21.13 17.715c-.088-.48-.212-.818-.276-.752-.064.065-.045.511.043.99.088.48.212.818.277.753.064-.066.044-.512-.044-.991zm3.002-4.228c.043-4.596.046-4.623.568-4.699.289-.042.525-.189.525-.326 0-.143-.225-.189-.525-.106-.289.079-.603.145-.7.147-.096.002-.175 2.224-.175 4.94 0 2.714.06 4.875.131 4.8.073-.073.151-2.214.176-4.756zm44.186-4.572c.586-.09.577-.101-.122-.135l-.758-.035.053 4.836.053 4.837.069-4.702.068-4.702.637-.099zm-41.671 6.646c-.328-.973-.634-1.732-.678-1.686-.045.046.16.947.456 2.002.295 1.055.6 1.814.677 1.686.078-.128-.127-1.03-.456-2.002zm37.698-1.024c-.049-.624-.088-.114-.088 1.134s.04 1.759.088 1.135a17.91 17.91 0 000-2.27zm-34.922.259c0-1.401-.038-2.503-.086-2.448-.2.233-.32 4.995-.125 4.995.116 0 .21-1.146.21-2.547zm3.265-2.587V7.58l1.046-.16c.575-.088 1.415-.117 1.866-.063.45.054.73.007.622-.103-.108-.111-1.026-.17-2.04-.132l-1.844.07-.063 4.974c-.042 3.336.015 4.923.175 4.822.149-.094.238-1.889.238-4.78zm28.167-4.443l.636-.024-.583-.177c-.32-.098-.662-.134-.758-.082-.096.053-.151 2.266-.122 4.919l.053 4.822.069-4.717.068-4.717.637-.024zm14.928 3.214c.62.13.618.127-.065-.192l-.7-.325-.117 2.903c-.064 1.596-.064 3.064 0 3.261.065.197.146-1.023.183-2.711l.065-3.07.634.134zm-35.718 4.684c-.72-.877-.958-1.948-.934-4.224.02-1.953.567-3.704 1.325-4.248.274-.197.921-.36 1.438-.365.775-.006.865-.052.514-.26-.584-.348-1.547-.06-2.32.693-1.645 1.6-1.81 6.824-.272 8.525.769.849.966.753.248-.12zm8.233-8.794c1.012.047 1.718.006 1.57-.091-.15-.097-1.032-.178-1.962-.18l-1.691-.003.053 4.955.053 4.956.069-4.861.068-4.862 1.84.086zm1.532 8.085c-.219-.674-.45-1.172-.514-1.106-.064.066.062.67.28 1.345.22.673.45 1.17.515 1.105.064-.065-.063-.67-.281-1.344zm-13.859.341c.552-.511.6-1.967.086-2.624-.35-.448-.354-.446-.117.058.611 1.295.024 2.7-1.13 2.706-.334.002-.764.118-.956.258-.261.19-.095.224.66.136.555-.065 1.21-.305 1.457-.534zm17.555-.162c-.523-1.025-.703-4.37-.312-5.801.4-1.465 1.412-2.331 2.586-2.216.479.046.82.002.76-.1-.061-.1-.532-.183-1.048-.183-1.152 0-2.132.893-2.51 2.288-.421 1.552-.313 4.608.203 5.773.248.558.51 1.015.584 1.015.074 0-.044-.35-.263-.776zm-33.24.33c.254-.165.244-.409-.054-1.37l-.362-1.17.132 1.09c.118.972.073 1.117-.413 1.357-.494.243-.502.269-.078.28.256.007.606-.077.775-.188zm36.65-.255c.132-.254.24-.603.237-.776-.002-.173-.138-.046-.304.283-.242.482-.465.592-1.156.57-.47-.014-.8.066-.732.18.25.414 1.703.223 1.954-.257zm-13.928-.732c.292-.599.408-1.411.408-2.866 0-2.552-.453-3.666-1.535-3.774-.428-.043-.837.073-1.009.285-.253.312-.197.32.449.072.665-.257.78-.231 1.17.263.845 1.068.914 4.915.11 6.172-.305.477-.54.59-1.059.512-.366-.055-.61-.006-.54.11.07.114.457.176.862.135.575-.057.825-.256 1.144-.909zm-13.665-6.45c.108-.105.407-.243.663-.306.314-.077.228-.124-.261-.142l-.728-.028-.731 2.567c-.402 1.413-.725 2.73-.717 2.926.008.197.366-.808.796-2.234.43-1.426.87-2.679.978-2.783zm27.907 3.998l1.21-.087-1.342-.044c-1.325-.043-1.34-.036-1.309.613.026.545.049.567.132.131.084-.446.282-.539 1.309-.613zm-20.004.08c-.085-.14-.266-.255-.402-.255-.155 0-.137.137.047.364.32.395.606.307.355-.11zm27.16-1.953V8.216l.642.152c.476.113.551.09.292-.09a1.597 1.597 0 00-.758-.246c-.356-.003-.409.246-.409 1.91v1.912l-1.224-.093c-.953-.074-1.044-.055-.408.083 1.92.417 1.866.467 1.866-1.692zm-28.673.78c.664-.55.715-1.799.097-2.377-.398-.373-.41-.373-.14-.005.38.52.25 1.884-.203 2.121-.193.101-.717.289-1.166.418l-.816.234.848.025c.508.014 1.063-.153 1.38-.416zm14.214-.276c.558-.572.609-1.73.1-2.252-.53-.543-.652-.46-.23.155.811 1.186.3 2.076-1.348 2.352l-.971.163.991.03c.708.02 1.125-.107 1.458-.448zm6.904-1.608c-.077-.079-.133.062-.122.314.01.278.066.335.14.144.068-.172.06-.378-.018-.457z" fill="#F9CE5C"/><path d="M43.53 95.371c-2.805-1.37-10.147-7.586-15.043-12.736C15.127 68.582 7.67 51.96 4.935 30.121c-.363-2.902-.93-11.634-.933-14.365C4 11.329 5.377 8.629 8.384 7.167c3.222-1.565 9.683-3.602 14.624-4.61C31.64.795 43.723.014 52.861.628c10.238.688 17.943 2.134 25.367 4.762 5.304 1.877 6.894 2.961 8.074 5.504.605 1.304.609 1.354.566 6.568-.177 21.423-5.71 40.32-16.207 55.352-4.933 7.064-11.925 14.277-19.456 20.07-4.025 3.096-5.47 3.564-7.675 2.487zm5.073-1.677c5.498-3.758 14.151-11.95 18.465-17.478 4.626-5.93 9.546-14.488 12.014-20.898 3.795-9.856 5.923-19.943 6.777-32.123.285-4.069.298-9.711.025-10.917-.138-.605-.12-.912.058-.973.342-.117-.445-1.366-.86-1.366-.168 0-.56-.28-.87-.62-2.194-2.41-13.483-5.792-23.771-7.125-7.477-.967-20.054-1.088-27.52-.264C21.438 3.197 9.192 6.696 6.704 9.42c-.372.407-.754.692-.848.633-1.206-.763-1.191 10.59.026 20.426 2.673 21.6 10.34 38.314 23.996 52.32 4.816 4.939 10.672 9.902 13.822 11.713 1.69.973 2.473.843 4.902-.818zM44.2 92.493c-.53-.317-2.044-1.412-3.364-2.436-1.319-1.023-2.537-1.86-2.705-1.86-.169 0-.65-.312-1.068-.694l-.761-.694.875.643c1.176.864 1.112.623-.1-.374-.535-.441-.896-.674-.802-.518.389.644-.29.216-1.15-.725-.507-.555-.66-.798-.339-.54.32.259-1.152-1.356-3.272-3.588-3.738-3.935-7.312-8.264-9.66-11.701-1.338-1.958-1.69-2.377-1.307-1.552l.277.597-.478-.597c-.263-.329-.428-.737-.368-.908.06-.172.01-.249-.11-.172-.234.148-1.006-1.163-.806-1.368.065-.066-.4-1.093-1.031-2.283-1.674-3.155-2.965-5.947-4.464-9.659-.73-1.806-1.389-3.22-1.466-3.141-.076.078-.085-.11-.018-.418.08-.367.049-.458-.087-.264-.295.421-1.082-1.902-.886-2.614.122-.443.1-.48-.112-.191-.204.279-.23.173-.117-.477.114-.661.088-.761-.125-.478-.228.303-.248.292-.13-.078.075-.24-.119-1.476-.432-2.747-1.517-6.16-3.099-17.12-3.177-22.014-.012-.753-.07-.936-.195-.61-.164.43-.189.422-.33-.12-.084-.32-.154-1.148-.156-1.837-.005-1.901-.462-1.656-.78.418-.051.328-.105-1.015-.12-2.986-.016-1.97.048-3.69.142-3.821.095-.132.485-.239.868-.239.84 0 1.01-.516.51-1.543-.327-.67-.313-.74.274-1.35.596-.62 2.794-1.774 4-2.101.564-.153.562-.146-.058.216-.353.206-.641.479-.641.606 0 .296-.006.296 1.166-.127 1.182-.427 1.482-.45 1.267-.094-.104.173-.007.215.278.124 5.02-1.618 9.318-2.698 13.848-3.48 2.145-.371 3.642-.728 3.381-.807-.256-.078.059-.088.7-.022.891.09 1.084.056.817-.147-.267-.202-.044-.238.932-.148.706.064 3.54.024 6.297-.089 9.299-.38 13.18-.464 12.889-.276-.16.103 1.268.318 3.172.479 4.228.356 10.672 1.298 14.158 2.07 1.425.316 2.844.516 3.153.446.46-.104.499-.077.213.147-.289.227-.262.25.155.131.603-.173 1.755.085 1.592.356-.064.105.111.13.388.056.366-.098.453-.053.32.167-.135.225-.048.259.343.132.336-.11.472-.083.378.074-.085.14.374.421 1.078.66 2.329.787 4.96 2.044 5.62 2.684 1.385 1.342 1.441 1.622 1.39 6.915-.04 4.105-.493 11.401-.891 14.386-.126.939-.055.778.63-1.433.264-.854.572-1.669.682-1.811.111-.142.303-.841.426-1.553.213-1.227.218-1.201.102.498-.816 11.922-4.846 26.116-10.26 36.14C70.15 72.281 63.493 80.725 56.94 86.35l-1.512 1.299 1.06-1.18c.584-.648 1.233-1.57 1.441-2.046.21-.478.724-1.284 1.143-1.792l.763-.923-.804.73c-.443.4-1.487 1.361-2.32 2.134-1.824 1.69-6.547 5.568-8.672 7.12-1.934 1.414-2.58 1.55-3.838.8zm-5.916-28.339c.99-1.013.395-1.73-.752-.907-.42.301-.805.572-.855.602-.19.114.512.783.82.783.176 0 .531-.215.788-.478zm-6.153-3.59c.02-.39-.04-.708-.131-.708-.317 0-.774 1.163-.619 1.576.224.597.706.039.75-.868zm17.09-.144c.428-.218.472-.317.211-.48-.18-.112-.552-.58-.825-1.04-.616-1.037-1.466-1.984-1.63-1.816-.068.07.218.671.636 1.338.627 1 .738 1.374.637 2.144-.135 1.029.103 1.561.305.683.07-.304.37-.677.667-.829zm12.382-.385c-.002-.165-.093-.445-.204-.623-.256-.414-.593.066-.403.574.159.425.612.461.607.049zm-9.325-5.212c0-.113-.21-.32-.466-.46-.257-.141-.467-.414-.467-.606 0-.193-.105-.35-.233-.35-.4 0-.263 1.392.16 1.635.424.243 1.006.116 1.006-.219zm-18.361-3.327l.127-1.313-.362.836c-.198.46-.398 1.373-.444 2.03-.083 1.175-.079 1.183.234.477.175-.394.375-1.307.445-2.03zm12.25 1.517c.058-.404.242-.474 1.2-.459 1.307.02 2-.469 2.238-1.58.116-.539.035-.84-.338-1.246-.27-.294-.897-1.368-1.394-2.387-1.023-2.097-.982-2.186.916-2 .636.063 1.157.04 1.157-.051 0-.314 1.19-.72 2.108-.72.667 0 1 .131 1.21.478.161.262.45.474.644.47.28-.006.268-.057-.056-.25-.725-.433-.432-.723.326-.322.565.3.659.437.408.6-.238.155-.17.21.257.208.583-.004.583-.005-.178-.713-.582-.542-.985-.71-1.706-.71-.52 0-1.148-.11-1.396-.247-.553-.303-.625-1.066-.08-.852.205.08.65.207.991.281l.62.135-.583-.525c-.32-.289-.872-.629-1.224-.756-.77-.278-.837-.843-.133-1.11.48-.181.469-.2-.175-.338-.439-.093-.83-.413-1.091-.893-.36-.66-.493-.73-1.118-.589-.796.18-1.856-.37-1.856-.963 0-.193.22-.579.49-.855l.492-.503-.45-1.468c-.431-1.405-.506-1.494-1.742-2.104-1.915-.944-1.98-1.734-.246-2.941 1.05-.73 1.872-.76 3.115-.11 1.01.527 1.606 1.572 1.606 2.811 0 .462.42 1.276 1.267 2.451 1.315 1.825 1.86 3.218 1.726 4.416-.064.568-.208.717-.777.804-.616.093-.573.122.35.239.877.11 1.108.252 1.406.864.48.982 1.62 2.445 1.623 2.083.001-.16-.217-.858-.484-1.552-.267-.695-.848-2.66-1.29-4.368-.465-1.794-1.22-3.956-1.788-5.121a115.417 115.417 0 01-1.061-2.21c-.043-.105.137-.192.4-.192.773 0 2.086 1.38 3.083 3.24.98 1.83 1.77 2.57 2.614 2.447.44-.064.505-.212.469-1.066-.049-1.147-.81-2.82-1.48-3.247-.68-.434-.563-.658.342-.658.805 0 1.267-.32.845-.587-.124-.079-1.005-.347-1.96-.597-.953-.25-2.795-.953-4.093-1.562-1.432-.672-2.53-1.051-2.796-.965-.24.078-1.004.65-1.696 1.27-1.913 1.713-3.424 2.777-5.096 3.587-2.805 1.358-3.382 2.315-4.057 6.724-.21 1.373-.466 2.555-.569 2.627-.438.307-2.645 3.47-2.96 4.243-.415 1.016-.43 1.522-.073 2.326.337.758 1.198.809 1.684.099.54-.789 1.082-.425.918.616-.088.553-.043.848.129.848.413 0 1.204-.916 1.574-1.822.443-1.085.872-1.218 1.947-.6 1.12.646 2.431.66 3.205.037.324-.26.674-.42.779-.354.254.16.571-.372.571-.958 0-.645.725-.745 1.04-.144.188.36.179.61-.034.96-.413.675-.037.907.736.453l.662-.389.099.868c.089.778-.016.981-1.016 1.979-1.232 1.228-1.566 2.087-1.163 2.992.302.68.808.64.912-.072zm-9.049-4.995c0-.71.381-1.537.708-1.537.323 0 .279 1.522-.055 1.863-.437.448-.653.34-.653-.327zm3.146-3.127a3.257 3.257 0 01-.596-.961c-.307-.827-.853-.937-1.511-.304-.689.662-.956.482-.624-.422.135-.365.37-1.675.524-2.911.438-3.53 1.432-4.111 2.229-1.304.2.705.514 1.435.697 1.623.183.188.334.773.334 1.3 0 .774.178 1.169.932 2.061.513.607.933 1.15.933 1.209 0 .057-.57.105-1.266.105-.867 0-1.387-.125-1.652-.395zm9.332-15.005c-.562-.474-.635-.634-.371-.812.646-.437 2.08.52 1.624 1.083-.35.433-.442.413-1.253-.27zm6.92 20.95c.227-.234-.065-.295-1.404-.295-2.55 0-3.767-.853-3.767-2.643 0-1.97 2.45-2.513 3.073-.682.131.384.336.698.456.698.128 0 .119-.192-.022-.462-.395-.755-.284-.97.516-.999.567-.02.445-.081-.482-.24-.683-.116-1.437-.318-1.676-.45-.952-.52-2.545-.174-3.199.697-.819 1.092.136 3.35 1.8 4.26.889.486 1.308.561 2.733.492.926-.045 1.813-.215 1.971-.377zm4.722-1.522c-.09-.149-.175-.49-.19-.756-.013-.267-.17-.535-.348-.596-.197-.067-.26-.004-.161.16.1.165-.014.27-.293.27-.25 0-.515.16-.59.358-.1.267.038.358.545.358.373 0 .744.107.823.239.08.131.197.239.26.239.065 0 .043-.122-.046-.272zm-.94-6.077c.175-.465-.084-2.25-.326-2.25-.371 0-.637 2.132-.309 2.469.256.261.486.182.636-.219zm-24.107-1.331c.51-.809.926-1.588.925-1.731-.002-.145-.263.202-.58.77a25.688 25.688 0 01-1.062 1.731c-.267.385-.424.7-.349.7.076 0 .555-.662 1.066-1.47zm24.824-5.27c-.165-1.001-.52-1.375-.83-.873-.344.556-.233 1.858.197 2.308.392.41.416.407.595-.054.103-.264.12-.885.038-1.38zm-23.522.356c-.078-.08-.133.062-.123.314.011.278.067.335.14.144.068-.172.06-.379-.017-.458zm1.841-3.408c.232-.263.37-.478.306-.478-.065 0-.307.215-.54.478-.231.262-.369.477-.305.477s.307-.215.539-.477zm20.532-5.575c.308-1.682-1.186-3.516-3.16-3.879-.809-.148-.808-.146.235.413 1.835.985 2.66 3.1 1.737 4.45-.2.292-.288.656-.196.809.249.412 1.208-.832 1.384-1.793zm-14.002 1.276c.233-.263.37-.478.306-.478s-.307.215-.539.478c-.232.262-.37.477-.305.477.064 0 .306-.214.538-.477zm1.516-1.314c.16-.197.238-.358.174-.358s-.247.161-.407.358c-.16.197-.238.358-.174.358s.248-.16.407-.358zm-4.08-4.556c-2.014-.742-2.115-2.125-.209-2.87.923-.36 1.51-.35 2.52.047.246.097.37.015.37-.244 0-.515.917-.85 2.407-.88.955-.018 1.087-.063.626-.214-2.39-.784-6.802.461-7.807 2.203l-.428.741.849.797c.66.62 1.043.793 1.727.78l.878-.017-.933-.344zm-31.602-6.3c0-3.99.055-4.758.35-4.874.303-.119.35.425.35 4.035 0 4.635-.086 4.435 1.632 3.814 1.14-.413 1.4-.44 1.4-.152 0 .114-.793.503-1.76.865-.969.361-1.72.699-1.67.75.05.052.886-.2 1.858-.557 1.563-.576 1.778-.728 1.862-1.319.105-.734.01-.736-1.66-.036-1.502.63-1.457.754-1.381-3.85.037-2.3.058-4.18.045-4.18-.013 0-.354.118-.758.262l-.734.262v5.007c0 3.276.08 4.955.233 4.858.143-.09.233-1.984.233-4.884zm38.677 4.557c.232-.152.176-.239-.225-.346-.295-.079-.593-.05-.663.067-.07.116-.494.255-.942.31-.654.082-.585.108.352.136.642.019 1.306-.056 1.477-.167zm28.073-4.954l-.067-4.686.65.165c.77.194.472-.205-.34-.456l-.524-.162v4.912c0 2.701.078 4.912.175 4.912.096 0 .144-2.108.106-4.685zm-4.507-.064c-.79-1.992-1.48-3.579-1.531-3.526-.052.053.446 1.48 1.107 3.17.66 1.691 1.298 3.332 1.416 3.646.118.313.267.517.33.451.065-.065-.53-1.748-1.322-3.74zm-55.832 1.939c.22-1.508.307-1.665 1.01-1.837.34-.082.679-.173 1.015-.27.31-.095.443.145.654 1.188l.265 1.307.71-.254c.824-.294.88.25-.557-5.46l-.995-3.956-.718.19c-.673.18-.742.306-1.116 2.046a542.6 542.6 0 01-1.168 5.224l-.77 3.369.757-.238c.667-.21.774-.364.913-1.31v.001zm-.733.053c-.076-.202-.086-.422-.022-.487.063-.065.171.1.24.369.145.57-.016.657-.218.118zm.171-1.164c-.01-.251.045-.392.123-.313.077.08.085.285.018.458-.074.19-.13.134-.14-.145zm.466-2.15c-.01-.25.046-.392.123-.313.078.08.086.286.018.458-.074.19-.13.134-.14-.144zm.937-.556c.013-.362.15-1.195.305-1.851l.282-1.195.292 1.65c.238 1.347.236 1.686-.013 1.847-.577.375-.888.213-.866-.451zm-.703-.398c-.01-.252.045-.393.122-.314.078.08.086.285.019.458-.075.19-.13.134-.141-.144zm.363-1.453c.264-1.6.564-2.297.41-.956-.075.657-.233 1.356-.352 1.553-.14.233-.161.025-.058-.597zm.555-2.568c-.003-.28.168-.412.52-.399.352.013.41.064.176.155-.192.075-.427.255-.521.4-.106.161-.173.102-.175-.156zm52.005 4.034V9.767l.642.105c.501.082.565.05.291-.15-.192-.139-.586-.255-.874-.257l-.525-.003v4.776c0 3.025.085 4.777.233 4.777.148 0 .233-1.701.233-4.624zm-46.276 3.668c.267 0 .337-.607.363-3.164.017-1.74.078-2.896.134-2.567.164.951 1.504 5.354 1.695 5.567.096.107.241-.216.324-.716.082-.5.512-2.04.954-3.419l.805-2.507-.137 3.127-.137 3.128.721-.108.722-.109.067-4.87.067-4.87h-.735c-.71 0-.753.06-1.249 1.731a92.843 92.843 0 00-.918 3.357l-.403 1.625-.854-2.73c-.47-1.501-.855-2.85-.855-2.998 0-.299-.323-.333-1.108-.118-.522.143-.524.164-.524 5.038 0 4.364.04 4.878.369 4.748.202-.08.517-.145.7-.145zm42.826-4.446l-.068-4.686.593.152c.326.084.593.055.593-.064 0-.118-.315-.263-.7-.321l-.7-.105v4.855c0 2.67.08 4.855.175 4.855.097 0 .145-2.109.107-4.686zm-3.375.566c-.047-.69-.085-.126-.085 1.254 0 1.379.038 1.943.085 1.253.047-.69.047-1.818 0-2.508zm-28.843 2.428c1.272-.327 1.91-1.177 2.034-2.708.092-1.136.034-1.37-.463-1.88-.556-.569-.559-.595-.145-1.119.653-.825.572-2.504-.157-3.25-.54-.553-.72-.591-2.507-.527l-1.926.07-.063 4.92-.063 4.922 1.23-.107c.676-.059 1.603-.203 2.06-.32zm-1.88-2.727v-1.552h.896c1.076 0 1.669.566 1.669 1.593 0 .942-.645 1.511-1.71 1.511h-.856V13.88zm.092-3.082c-.067-.18-.09-.796-.05-1.37.066-.932.14-1.05.704-1.116 1.01-.12 1.585.333 1.585 1.248 0 .918-.276 1.208-1.35 1.416-.54.105-.803.052-.889-.178zM60.44 12.42c0-4.567.011-4.682.466-4.56.257.069.467.04.467-.064 0-.169-.773-.471-1.225-.48-.096-.002-.175 2.2-.175 4.893 0 3.105.086 4.896.234 4.896.147 0 .233-1.72.233-4.685zm15.34-1.407c.63.123.63.121-.064-.213l-.7-.336-.066 2.758c-.06 2.482-.1 2.713-.41 2.306-.313-.414-.322-.392-.101.264.512 1.519.58 1.336.642-1.735l.066-3.167.634.123zm-18.605 5.47c.382-.24.422-.308.116-.198a13.13 13.13 0 01-1.282.347c-.803.176-.805.18-.117.198.385.01.962-.145 1.283-.347zm-14.271-.34c.936-.583 1.42-1.69 1.599-3.654.37-4.07-1.447-6.886-3.73-5.777-1.173.57-1.842 2.07-1.975 4.426-.243 4.304 1.61 6.564 4.106 5.006zm-2.038-1.409c-.96-.982-.973-5.066-.02-6.104.711-.776 1.289-.76 1.805.046.323.505.414 1.146.414 2.936s-.09 2.431-.414 2.936c-.486.76-1.157.83-1.785.186zm10.478 1.406c0-.107-.302-1.068-.67-2.136l-.672-1.942.553-.37c1.252-.841 1.214-3.575-.064-4.605-.497-.4-.946-.49-2.443-.49h-1.835v9.792h.583c.579 0 .583-.016.583-2.15v-2.15l.642.003c.605.003.678.127 1.306 2.224.657 2.193.674 2.22 1.341 2.12.372-.056.676-.189.676-.296zm-1.004-.17c-.055-.098-.385-1.065-.733-2.149l-.633-1.97h-.914c-.577 0-.913-.11-.912-.299.001-.198.437-.311 1.292-.337.71-.02 1.433-.16 1.608-.308.864-.735.575-2.593-.48-3.085-.692-.323-2.109-.357-2.291-.055-.072.119-.15 1.406-.176 2.86-.025 1.454-.104 2.585-.175 2.511-.072-.072-.182-1.467-.246-3.098l-.117-2.967h1.639c1.907.001 2.513.325 2.91 1.555.364 1.131.103 2.15-.72 2.81l-.685.548.687 2.082c.524 1.587.61 2.082.366 2.082-.177 0-.366-.08-.42-.18zm-2.865-5.403c-.068-.181-.091-.853-.051-1.493.07-1.12.1-1.167.826-1.238 1.507-.15 2.561 1.862 1.41 2.688-.645.462-2.018.489-2.185.043zm6.934 5.455c-.91-.785-1.275-1.958-1.294-4.171-.02-2.39.556-3.983 1.605-4.432 1.063-.454 2.325-.03 2.876.969.145.263.267.335.271.16.004-.174-.3-.63-.675-1.015-.522-.535-.895-.698-1.6-.698-2.021 0-2.946 1.743-2.809 5.292.095 2.445.595 3.912 1.455 4.268.848.351.895.25.172-.372zm2.37-.457c.817-.836.666-2.759-.216-2.759-.177 0-.321-.172-.321-.384 0-.252.127-.333.369-.239.202.08.617.145.92.145.5 0 .56.12.638 1.254l.085 1.254.044-1.493.043-1.492h-1.283c-1.203 0-1.283.036-1.283.581 0 .457.138.597.642.657.563.066.631.163.559.792-.121 1.057-.453 1.553-1.034 1.547-.865-.009-1.555-.75-1.776-1.909-.14-.73-.214-.867-.231-.43-.078 1.966 1.771 3.575 2.845 2.476zm1.283-.257c-.071-.074-.202.059-.29.294-.126.34-.1.368.131.134.16-.162.231-.355.16-.428zm6.343-5.024c0-1.747.01-1.777.596-1.777.339 0 .535-.103.453-.239-.08-.131-.4-.239-.713-.239-.556 0-.57.045-.57 1.911 0 1.377-.081 1.907-.291 1.896-.16-.007-.79-.098-1.4-.2-.609-.103-1.107-.103-1.107 0 0 .102.498.255 1.108.338.609.084 1.212.184 1.34.221.484.143.584-.183.584-1.91zm-10.152-.417c.082-.5.353-1.118.602-1.373.25-.255.351-.465.226-.465-.412 0-.979 1.157-1.077 2.2-.112 1.18.031.972.25-.362zm2.922-.274c0-.322-.57-1.314-.807-1.407-.185-.073-.155.16.09.695.31.681.717 1.085.717.712zm.932-.362c0-.127-.157-.17-.35-.094-.192.076-.35.18-.35.232 0 .051.158.094.35.094.193 0 .35-.104.35-.232zm-47.92-.678c-.073-.073-.26 0-.419.163-.228.236-.202.264.13.134.23-.09.36-.223.288-.297z" fill="#9F6B08"/><path d="M44.949 95.7c-.879-.123-1.474-.415-2.73-1.336-4.303-3.158-7.86-6.086-11.045-9.093-1.222-1.154-3.906-3.927-4.85-5.01-3.854-4.425-7.052-8.96-10.967-15.555-.863-1.453-1.916-3.624-3.354-6.916C7.334 47.1 4.896 36.309 4.176 23.15c-.14-2.561-.186-4.536-.174-7.437.01-2.4.021-2.688.135-3.321.216-1.198.634-2.334 1.14-3.099.627-.945 2.327-2.31 3.688-2.959 1.923-.918 6.607-2.34 10.828-3.287 1.145-.257 3.406-.722 4.173-.859L25.016 2c.353-.064.826-.142 1.05-.172.225-.03.593-.095.818-.143.224-.047.645-.117.934-.155.448-.059.895-.12 1.342-.182.45-.063.936-.128 1.08-.146 1.41-.17 1.866-.223 2.802-.325C37.79.358 44.102.113 48.655.271c2 .07 6.534.332 6.893.4.1.019.546.055.992.08a30.42 30.42 0 011.629.147c.449.055 1.172.14 1.605.19 2.033.232 3.797.463 4.553.596.272.048.995.168 1.604.266 6.424 1.037 11.743 2.548 15.701 4.46 1.712.827 2.396 1.292 3.228 2.194.97 1.05 1.548 2.16 1.851 3.556.257 1.182.142 8.548-.207 13.226-.477 6.384-1.297 11.758-2.654 17.376-1.466 6.07-3.432 11.633-6.29 17.794-.967 2.084-1.23 2.596-2.031 3.971-.431.74-.797 1.371-.813 1.405a6.028 6.028 0 01-.204.33c-.084.127-.166.256-.246.386l-.32.536c-.139.23-.262.445-.275.478a.26.26 0 01-.06.09c-.02.016-.151.218-.292.448-.14.23-.357.57-.48.755-.123.186-.225.365-.225.398 0 .034-.02.07-.044.08-.06.028-.364.512-.364.58 0 .03-.04.07-.088.09-.048.018-.087.06-.087.094s-.145.275-.321.535c-.177.26-.321.5-.321.532 0 .032-.04.073-.088.092a.147.147 0 00-.087.126c0 .05-.022.091-.049.091-.027 0-.086.074-.131.165a2.53 2.53 0 01-.127.224c-.197.263-.435.601-.86 1.221a77.867 77.867 0 01-1.454 2.033c-5.254 7.134-10.749 12.492-19.38 18.897-1.259.935-1.85 1.269-2.584 1.46-.515.133-1.245.19-1.68.128zm1.493-.541c.727-.19 1.331-.525 2.484-1.38C59.95 85.601 66.11 78.951 73.131 67.646c1.887-3.039 2.802-4.648 3.552-6.248 2.044-4.357 3.514-7.985 4.724-11.65 2.938-8.905 4.525-18.322 4.924-29.229.094-2.56.076-7.521-.029-8.137-.286-1.68-1.294-3.277-2.777-4.402-.54-.409-2.453-1.399-3.675-1.901-3.623-1.489-7.766-2.607-13.19-3.559-3.184-.559-7.343-1.074-11.352-1.405-.418-.034-.904-.076-1.08-.092-.546-.05-3.11-.203-4.582-.273-2.81-.133-7.903-.064-11.469.156-9.33.575-19.567 2.455-26.586 4.88-1.932.668-2.62.98-3.617 1.641-1.62 1.074-2.36 1.892-2.892 3.2-.624 1.53-.735 2.823-.641 7.444.12 5.862.461 10.432 1.138 15.226 1.346 9.524 3.704 17.561 7.736 26.364 1.567 3.423 2.018 4.25 4.513 8.27.616.993 2.294 3.542 2.988 4.538 4.699 6.752 9.247 11.629 16.025 17.181 1.76 1.442 5.946 4.637 6.653 5.078.257.16.932.425 1.25.49.451.092 1.217.066 1.697-.06zm-1.57-2.41c-.356-.102-1.167-.672-2.825-1.983-10.188-8.053-15.94-14.357-21.682-23.76a129.821 129.821 0 01-2.485-4.27c-.689-1.247-2.885-5.922-3.982-8.48-3.89-9.064-6.026-18.47-6.681-29.408-.23-3.844-.265-9.111-.067-10.21.217-1.208.61-2.264 1.145-3.083.585-.892 1.664-1.779 2.69-2.21 2.11-.886 6.881-2.268 10.967-3.178 7.107-1.581 13.74-2.398 21.187-2.61 2.049-.06 5.609-.04 6.333.034.128.013.627.04 1.109.06 4.609.186 10.795.855 15.234 1.647 5.478.978 9.65 2.219 13.22 3.934l1.458.698c1.974.936 2.877 2.382 3.175 5.086.146 1.33-.204 7.914-.668 12.55-1.315 13.139-3.957 22.736-8.93 32.444-2.008 3.92-5.218 9.276-7.644 12.758-4.161 5.97-8.192 10.142-16.305 16.877-.165.136-.85.708-1.524 1.271-.675.563-1.403 1.145-1.619 1.294-.76.523-1.502.713-2.105.54zM29.745 71.404c.716-.333.954-.841 1.05-2.25.064-.935.244-1.29.703-1.388l.231-.05-.029-.564c-.043-.843-.035-2.095.015-2.28.025-.089.315-.505.647-.925.784-.995 1.252-1.685 1.384-2.04.058-.157.162-.673.23-1.146.141-.968.08-.83 1.134-2.587.313-.522.782-1.392 1.043-1.933.283-.59.562-1.081.694-1.226.114-.126.227-.253.338-.381.065-.076.143-.138.175-.138.119 0 .467.375.596.644.13.27.135.338.135 1.675 0 1.392 0 1.393.138 1.507a.514.514 0 00.272.115c.132 0 .132-.003-.031-.18-.239-.262-.294-.621-.251-1.634.033-.795.025-.9-.093-1.259-.071-.215-.121-.479-.111-.585.017-.184.031-.195.28-.213.297-.022.431-.121.59-.44.111-.223.14-.404.122-.746-.01-.164-.053-.214-.313-.358-.398-.222-.509-.39-.58-.888-.084-.575-.016-2.352.105-2.76.106-.359.155-.365.573-.073.408.286 1.646.824 2.258.982.75.193 1.768.216 2.093.047.28-.147 1.325-.965 1.764-1.38.2-.19.521-.462.714-.605.198-.147.39-.3.58-.458.125-.11.289-.199.362-.199.206 0 .762.232.956.399.351.302.175.608-.68 1.177-.674.448-1.395 1.247-1.728 1.914-.153.308-.862 2.456-.862 2.613 0 .252.192.775.383 1.047.703.998 1.041 1.557 1.114 1.84.043.17.119.408.168.528.189.463-.038.72-.806.911a9.197 9.197 0 01-.87.174l-.332.04.094.147c.08.126.1.134.145.053.042-.077.172-.094.718-.094.537 0 .726-.024.974-.124l.307-.125.147.187c.164.209 1.11 1.204 1.11 1.168 0-.15-.452-1.2-.81-1.883a41.536 41.536 0 01-.718-1.433 8.531 8.531 0 00-.74-1.218c-.263-.358-.496-.721-.52-.806-.082-.301-.038-.81.104-1.222.225-.65.405-.607.407.098.001.512.066.667.627 1.492.643.946.689 1.028 1.01 1.84.272.688.606 1.32 1 1.895.196.284.574 1.315.574 1.563 0 .1-.072.227-.197.352l-.197.195-.125-.163c-.069-.09-.143-.144-.165-.121-.022.023-.051.214-.064.426-.024.379-.021.387.187.576.198.18.21.212.21.553 0 .431.127.725.39.904.107.073.457.182.833.258l.65.133.23-.187c.401-.326.872-.903.937-1.15.075-.286.028-.533-.13-.68a1.124 1.124 0 01-.198-.265c-.118-.234-.016-.293.505-.293.425 0 .458-.01.592-.172.156-.189.551-1.076.783-1.756.12-.347.147-.54.144-.994-.003-.46.025-.646.15-1.015.208-.611.21-1.067.006-1.467-.172-.337-.295-.462-.733-.742-.478-.306-.417-.497.238-.75.375-.146.565-.307.565-.479 0-.14-.003-.14-.517-.107-.514.035-.517.034-.627-.13-.322-.48-.507-.549-.84-.315-.36.254-1.168 1.752-1.168 2.166 0 .24.264.484.745.686.248.105.512.23.586.277.24.157.361.436.361.838 0 .203.028.443.062.533.033.09.061.336.063.547.002.312-.031.454-.178.759-.235.489-.969 1.456-1.161 1.531-.209.081-.425-.092-.53-.424-.075-.238-.071-.28.051-.562.276-.637.308-.875.242-1.796-.033-.467-.092-.921-.132-1.01-.12-.271-.312-.188-.717.31-.381.47-.629.668-.835.668-.2 0-.269-.202-.234-.682.036-.482.14-.806.557-1.74.315-.703.812-2.032.982-2.623.13-.453.145-1.588.027-2.06-.064-.252-.152-.403-.386-.656-.526-.57-1.216-1.558-1.586-2.27-.423-.816-.708-1.672-.556-1.672.08 0 .727.847.993 1.298.325.552.494.694.784.654.211-.029.218-.024.252.188.113.707.444 1.402.96 2.018.239.284 1.228 1.096 1.515 1.242.333.171.88.354 1.52.51.391.094.698.12 1.447.12.997 0 1.223-.044 1.46-.286.063-.064.269-.174.457-.243a5.12 5.12 0 00.483-.201c.204-.11.36-.352.321-.5-.03-.116-.086-.127-.772-.161-.885-.044-1.67-.231-2.274-.542a9.998 9.998 0 00-.812-.367c-.685-.264-1.206-.69-1.327-1.086-.06-.198.058-.365.289-.41.112-.02.219-.062.236-.091.018-.03.077-.054.13-.054.25-.003.265-.075.135-.641-.155-.677-.156-.791-.009-.791.24 0 .41.15.741.647.188.283.49.67.671.86.294.306.355.344.566.344.13 0 .252-.026.27-.058.02-.032-.018-.165-.083-.296a1.286 1.286 0 01-.12-.538c0-.249.03-.333.182-.51.168-.195.206-.21.517-.21.394 0 .651.146.873.494.128.203.164.222.405.222a.764.764 0 00.488-.158c.19-.134.245-.148.366-.092.078.037.206.168.284.293.077.124.221.303.319.397.165.16.2.17.491.132.175-.022.382-.014.468.02.264.103.295.245.183.84-.093.499-.094.548-.001.795.054.144.177.353.274.464.197.227.2.238.29.99.085.715.014 1.221-.28 2.005a420.4 420.4 0 00-.443 1.183c-.117.313-.287.66-.378.772l-.166.204.239.185c.308.24.541.644.872 1.51.473 1.238.516 1.392.523 1.865.006.379-.03.565-.239 1.207-.33 1.015-.34 1.407-.042 1.805.112.15.204.319.204.373 0 .055-.144.344-.32.642-.73 1.233-.727 1.793.01 2.483.386.36.727.55.942.525.145-.017.157-.041.174-.347.02-.368.184-.615.388-.585.102.015.125.077.159.426.049.505.075.577.21.577.241 0 1.054-.648 1.218-.972l.088-.175-.253.18a2.961 2.961 0 00-.394.334c-.17.186-.344.198-.546.035-.206-.165-.24-.396-.127-.844.133-.522.09-.926-.115-1.107-.134-.118-.221-.138-.606-.139-.247 0-.487-.026-.533-.055-.157-.102.023-.344.4-.538.547-.283.576-.483.106-.728-.312-.163-.388-.267-.39-.535-.003-.309.207-.598.52-.716.375-.141.528-.35.528-.72 0-.41-.139-.678-.491-.949-.575-.442-.56-.416-.56-.951 0-.387.021-.501.108-.59.08-.082.116-.235.14-.596.021-.314.077-.578.155-.745.194-.408.174-.513-.204-1.086-.242-.367-.315-.739-.315-1.587 0-.355-.025-.71-.054-.79-.076-.203-.008-.88.093-.92.17-.066.431.119.618.438.205.351.248.38.293.201.05-.191.334-.148 1.006.152 1.524.678 3.232.817 4.153.336.525-.274 1.471-1.113 1.714-1.52.226-.38.212-.387-.732-.354-.955.033-1.528-.038-2.16-.27-.535-.195-1.127-.601-1.46-1-.148-.178-.54-.552-.872-.834-.332-.281-.618-.552-.636-.6a.146.146 0 00-.127-.09c-.179 0-.968-.373-1.401-.662a9.749 9.749 0 00-.675-.416c-.42-.22-2.019-.551-3.013-.626l-.538-.04-.04-.217c-.071-.398-.19-.663-.545-1.225-.294-.464-.352-.6-.353-.82-.002-.315-.129-.616-.55-1.302a3.802 3.802 0 01-.443-.989 8.981 8.981 0 00-.352-.996c-.282-.655-.38-1.014-.463-1.693a7.129 7.129 0 00-.459-1.889 9.985 9.985 0 01-.359-1.276c-.184-.938-.253-1.11-.729-1.825-.234-.35-.445-.729-.468-.84a1.056 1.056 0 00-.201-.386 5.17 5.17 0 01-.384-.567 18.528 18.528 0 00-.36-.585.826.826 0 01-.134-.366c0-.254.14-.33.579-.312.924.037 1.639.745 2.573 2.552.742 1.436 1.352 2.176 2.112 2.565.298.153.49.212.688.212.349 0 .475-.132.513-.532.032-.345-.034-.663-.351-1.678-.183-.584-.241-.879-.27-1.356-.044-.739-.077-.784-.739-1.018-.57-.201-.603-.307-.136-.427.462-.12.954.007 1.494.386.354.248.421.274.646.249.203-.023.314-.09.586-.35.308-.293.334-.338.313-.534-.027-.24.13-.609.34-.801.173-.158.271-.404.473-1.187.269-1.044.199-1.914-.212-2.635-.329-.575-1.888-1.843-2.794-2.27-.827-.39-.868-.395-5.348-.448-4.997-.06-7.22-.171-7.866-.395-.933-.323-1.604-.907-1.506-1.31.057-.231.37-.547.65-.656.52-.204 1.254-.059 2.681.527 1.309.538 2.102.674 3.615.622 1.345-.046 2.407-.21 2.68-.415.1-.074.1-.081-.002-.175-.058-.053-.487-.196-.952-.318-1.02-.267-1.576-.482-1.576-.61 0-.08.1-.088.773-.059a9.453 9.453 0 012.33.401c.419.135 1.364.166 1.674.055.204-.073.241-.226.092-.378-.374-.383-2.426-1.133-4.003-1.463-.994-.21-1.764-.26-3.422-.227-2.04.041-2.883.194-3.858.697-.797.412-1.728 1.278-2.022 1.88-.343.705-.111 1.175.877 1.78.684.42 1.22.591 2.364.759 2.072.304 3.534.376 7.559.372 1.965-.003 3.532.02 3.735.055.605.102 1.317.361 1.687.616.435.3.97.94 1.248 1.498.184.366.21.473.213.866.004.386-.02.49-.164.758-.225.416-.688.939-.918 1.035-.273.116-.932-.002-1.713-.303-.541-.21-.736-.256-1.284-.296-.71-.053-.79-.077-1.847-.556-1.08-.488-2.723-1.034-3.546-1.177-.393-.068-.775.009-1.322.268-.552.261-.87.518-1.967 1.593-1.035 1.013-1.505 1.39-2.083 1.674-1.05.514-4.05 2.238-4.33 2.488-.409.366-1.099 1.222-1.39 1.723-.531.917-.696 1.64-.76 3.332-.042 1.152-.05 1.212-.232 1.685-.203.529-.744 1.48-1.473 2.595-.686 1.048-1.18 1.882-1.51 2.55-.648 1.313-.76 1.816-.816 3.68l-.042 1.373-.211.63a29.1 29.1 0 01-.54 1.433c-.67 1.637-.657 1.553-.719 4.565l-.046 2.209-.244.494a9.66 9.66 0 01-.5.876c-.324.483-.415.871-.535 2.273-.036.44-.076.882-.119 1.323-.024.218-.115.346-.763 1.074-1.237 1.39-1.71 2.113-1.71 2.613 0 .248-.019.281-.25.443-.452.319-1.089 1.064-1.303 1.524-.252.544-.311 1.05-.158 1.352.171.34.285.283.768-.378l.428-.587.14.135c.078.074.141.168.141.21 0 .04-.106.298-.235.571-.13.275-.229.564-.22.647.023.2.226.23 1.447.216.864-.01.994-.025 1.255-.147zm-.543-3.239c-.201-.08-.502-.772-.453-1.042.043-.231.1-.248.403-.118.315.135.47.11.764-.119.287-.224.379-.25.488-.137.104.105.086.29-.053.557l-.21.404c-.163.315-.672.562-.939.456zm1.883-5.635c-.13-.133-.144-.195-.144-.652 0-.278-.012-.541-.028-.585-.016-.044-.003-.12.028-.17.048-.074.086-.057.236.105.146.158.224.194.42.194.166 0 .283-.04.374-.127.178-.171.314-.11.308.14-.009.404-.26.86-.598 1.084-.295.195-.414.197-.596.01zm18.574-.536c-.154-.043-.307-.105-.34-.138-.1-.103-.197-.831-.134-1.015.123-.359.564-.193.674.254.063.259.073.267.29.267.258 0 .345.11.345.437 0 .182-.02.21-.182.243-.241.049-.32.043-.653-.048zm-17.357-4.957c-.244-.11-.33-.404-.3-1.025.027-.571.256-1.105.565-1.318l.195-.134.146.177c.088.107.201.176.288.176.214 0 .656-.257.985-.571.205-.195.412-.387.623-.576.413-.368.516-.615.513-1.227-.005-.793-.06-.958-.43-1.298-.372-.342-.517-.644-.518-1.08-.001-.513.244-.8.682-.8.241 0 .41.163.713.695.5.876 1.232 1.215 1.712.795.23-.201.306-.216.436-.083.075.076.092.251.092.951 0 .472.024.923.053 1.002.037.099.159.188.383.28.398.166.525.367.482.762-.035.32-.214.532-.518.616-.326.09-.567.002-1.567-.57-.301-.172-.639-.194-.848-.054-.078.053-.276.28-.44.506-.232.32-.425.499-.877.808-.636.436-.818.622-1.189 1.213-.265.424-.581.78-.693.782a.93.93 0 00-.185.03.589.589 0 01-.303-.057zm9.379-12.639a3.855 3.855 0 00-.671-.243c-.374-.081-.59-.195-.701-.37-.08-.125-.08-.177.002-.504.106-.422.051-.753-.154-.942-.104-.096-.205-.113-.628-.104-.29.005-.612.05-.76.104-.14.052-.261.095-.27.095-.027 0 .041-.567.095-.787a.534.534 0 01.26-.35c.349-.22.397-.348.36-.948-.047-.72.043-1.075.27-1.08.028 0 .149.1.269.224.151.156.258.351.351.642.228.711.324.866.542.867.35.002.364.036.364.877 0 .92.056 1.062.664 1.676.934.944.937 1.284.007.843zm9.49-4.798c-.02-.087-.02-.395 0-.686l.04-.527-.166-.111c-.149-.1-.296-.112-1.365-.113-1.047-.003-1.229-.016-1.433-.114l-.233-.112.175-.043c.096-.024.425-.047.73-.051.64-.009.89-.068 1.162-.272.76-.573.606-1.282-.524-2.425-.705-.712-.828-.907-.802-1.27l.018-.25.291.302c.16.166.384.462.496.657.32.56 1.383 2.046 1.782 2.494.581.651.798 1.22.704 1.842-.05.33-.393.75-.654.802-.16.031-.186.017-.22-.123zm-1.27-9.452a3.981 3.981 0 01-.281-.365 7.446 7.446 0 00-.412-.524c-.333-.39-.379-.528-.227-.683.156-.16.816-.162 1.106-.004.294.16.519.636.565 1.195l.035.44-.176-.04c-.131-.03-.186-.016-.212.052-.053.143-.234.11-.397-.071zm-1.712-8.418a3.603 3.603 0 01-.392-.148c-.333-.145-.413-.318-.222-.477.17-.14.302-.136.598.018.132.07.4.14.595.156.247.021.421.076.574.18.24.166.266.223.126.278-.106.042-1.105.037-1.279-.006zM36.17 68.393c.401-.211.771-.648 1.1-1.302.164-.323.39-.66.56-.835.343-.353.413-.487.574-1.09.151-.567.408-1.1.877-1.816.53-.81.767-1.04 1.464-1.424 1.1-.603 1.165-.684 1.235-1.525.026-.328.088-.673.135-.767.11-.215.658-.725 1.105-1.026l.345-.231h-1.617c-1.255 0-1.707.02-2.017.093-.22.051-.528.085-.683.075l-.283-.019-.364.926c-.2.509-.364.977-.364 1.04-.003.2-.187.89-.296 1.11-.15.303-1.141 1.358-1.403 1.495-.123.064-.3.117-.394.117-.205 0-.436.174-.53.4-.04.093-.255.3-.484.465-.524.38-1.17.99-1.333 1.259-.194.32-.288.777-.289 1.403 0 .636.124 1.19.267 1.19.048 0 .274-.134.502-.299.669-.48.805-.378.398.299-.129.213-.233.419-.233.457 0 .116.413.195.933.178.4-.014.555-.047.795-.173zm.57-3.257c-.374-.28-.723-.64-.723-.748 0-.06.139-.17.357-.282l.356-.184.236.16c.322.218.587.245.968.097.425-.166.472-.137.408.247a2.17 2.17 0 01-.123.454c-.093.188-.469.355-.898.4-.314.032-.36.021-.58-.144zm6.136.108c.13-.034.068-.048-.253-.053-.373-.006-.425-.02-.409-.111.011-.058.156-.172.322-.254a2.29 2.29 0 00.35-.2c.026-.027.048-.261.048-.52 0-.564.08-.682.523-.766.305-.059.44-.183.44-.404 0-.102-.063-.163-.258-.252-.321-.145-.432-.323-.283-.456l.586-.518c.427-.377.491-.46.561-.73.152-.587.272-1.331.233-1.444-.055-.16-.26-.383-.353-.383-.043 0-.13-.053-.194-.12-.078-.079-.117-.092-.117-.039 0 .044-.175.373-.388.731a17.21 17.21 0 00-.622 1.149c-.209.443-.272.523-.59.743-.887.616-1.362 1.396-1.492 2.45-.06.493-.021.819.1.819.046 0 .222-.121.392-.27.169-.147.353-.268.409-.268.09 0 .098.044.062.408l-.04.408.194.064c.227.074.531.08.779.016zM61.1 44.666a3.16 3.16 0 00.46-.516l.258-.36-.147-.185c-.584-.737-.947-1.287-1.227-1.856-.177-.363-.322-.699-.32-.748.003-.145.181-.332.531-.558.792-.512.879-.727.913-2.274.016-.728.001-1.259-.043-1.493a3.18 3.18 0 00-.728-1.449l-.305-.342-.228.07c-.28.087-.705.498-.85.821-.151.342-.133.743.071 1.556.122.486.18.857.18 1.165 0 .538-.022.678-.272 1.727-.253 1.061-.328 1.642-.326 2.525 0 .784.078 1.167.302 1.501.387.578 1.256.786 1.732.416zm-49.245-22.62c.538-.292 1.961-.906 3.135-1.353l1.007-.382v-.822c0-.462-.023-.82-.053-.82-.073 0-1.785.71-2.361.979-.253.118-.483.215-.511.215-.029 0-.051-1.844-.051-4.21 0-2.315-.02-4.21-.044-4.21-.024 0-.428.18-.898.402l-.853.404-.025 4.956c-.014 2.726-.016 4.977-.004 5.002.046.096.298.035.658-.161zm67.715-2.109c-.01-1.174-.036-3.433-.058-5.02l-.04-2.884-.76-.325c-.417-.178-.83-.325-.918-.325h-.161v9.958l.248.067c.137.037.55.2.92.36.368.161.697.296.73.299.037.003.051-.732.04-2.13zm-3.229-6.35l.008-2.782-.656-.223a10.495 10.495 0 01-.758-.277.7.7 0 00-.278-.056h-.175l-.008 2.523c-.003 1.387-.002 2.556.003 2.597.042.332-.247-.322-1.28-2.888-.894-2.222-1.222-2.976-1.311-3.014-.22-.095-1.306-.353-1.486-.353h-.18v10.032h.15c.122 0 1.262.27 1.675.395.097.03.1-.127.066-3.033-.026-2.118-.019-3.046.023-3.005.033.033.677 1.59 1.431 3.462l1.371 3.402.663.212.663.213.035-2.211c.02-1.216.04-3.463.044-4.994zm-59.546 6.486c.095-.049.433-.17.75-.27.316-.1.58-.188.584-.195.004-.008.135-.652.29-1.433l.282-1.419.268-.08c.921-.278 1.535-.413 1.575-.346.024.039.157.588.296 1.22.14.631.271 1.169.292 1.194.02.024.417-.046.88-.157.694-.166.84-.219.826-.301-.01-.054-.228-.83-.486-1.724-.257-.894-.849-2.956-1.314-4.581-.466-1.626-.858-2.967-.871-2.98-.013-.014-.294.046-.623.132-.33.087-.664.165-.743.174-.14.016-.158.082-.856 3.27-.392 1.79-.921 4.204-1.177 5.365-.46 2.09-.463 2.11-.34 2.16.17.07.171.07.367-.03zm2.18-4.617c0-.094.583-3.022.62-3.117.043-.107.116.163.456 1.686l.25 1.12-.24.063c-.252.066-.81.22-.985.273-.056.017-.102.006-.102-.024zm49.981-1.725l.035-4.967-.334-.069a74.559 74.559 0 01-.947-.205 6.853 6.853 0 00-.714-.134c-.096.002-.103.22-.117 3.59-.014 3.476.006 6.373.044 6.414.044.046 1.93.405 1.962.373.02-.019.052-2.27.072-5.002zm-44.402 4.31c.254-.052.508-.102.763-.15.01 0 .025-1.134.033-2.522.011-1.882.031-2.485.079-2.373.035.082.426 1.15.87 2.373.444 1.223.836 2.224.87 2.223.19-.002.172.05 1.388-4.179.166-.574.323-1.07.35-1.101.026-.032.048 1.077.048 2.463 0 1.386.02 2.52.044 2.52.07 0 1.368-.174 1.564-.209l.178-.031-.02-4.821c-.01-2.652-.033-4.912-.05-5.022-.03-.187-.043-.198-.217-.167-.5.088-1.338.17-1.47.144-.082-.016-.16-.012-.172.01a175.28 175.28 0 00-.819 2.634l-.856 2.793c-.034.11-.073.187-.087.172-.014-.014-.393-1.11-.841-2.437l-.84-2.477c-.016-.046-.235-.024-.714.073-.38.076-.772.14-.87.14l-.181.003-.039 1.89a329.89 329.89 0 00-.038 5.012c0 3.336-.016 3.136.242 3.182.021.004.374-.06.785-.142zm41.041-4.945l.015-4.994-.132-.03c-.569-.124-1.433-.272-1.59-.272h-.193l.032 1.941c.031 1.88.029 1.94-.079 1.94-.06 0-.544-.066-1.074-.148a48.5 48.5 0 00-1.007-.149c-.024 0-.044-.887-.044-1.97v-1.97l-.13-.027c-.261-.055-1.478-.214-1.635-.214h-.16v10.01l.919.122c.505.067.935.113.954.102.02-.01.023-1.045.006-2.3l-.029-2.279.14.034c.077.018.566.093 1.088.167l.949.134v4.639l.19.003c.104.002.517.065.919.141.4.076.756.133.787.126.039-.007.064-1.736.074-5.006zm-9.014 3.93c.887-.236 1.463-.803 1.739-1.71.097-.317.11-.563.11-2.027v-1.667h-2.684v.29c0 .159-.017.495-.038.746l-.038.457h1.138l-.02.796c-.02.743-.031.81-.176 1.035-.431.666-1.324.549-1.844-.243-.377-.574-.394-.707-.394-3.23 0-2.221.003-2.275.128-2.514.155-.297.489-.607.705-.655.088-.02.19-.045.228-.057.138-.043.494.102.695.283.253.227.423.557.471.912l.036.27h.868c.99 0 .92.054.783-.605-.282-1.36-1.372-2.262-2.736-2.262-1.346 0-2.45.858-2.852 2.217-.058.198-.077.833-.076 2.62.001 2.605.033 2.917.38 3.625.22.452.7.997 1.124 1.278.316.209.864.43 1.209.49.34.057.932.034 1.244-.049zM34.5 16.7c2-.172 2.13-.21 2.636-.764.933-1.02 1.063-3.134.244-3.98-.183-.189-.567-.39-.75-.392-.076 0-.027-.047.138-.13.881-.447 1.142-2.31.513-3.664-.244-.526-.58-.884-1.02-1.091l-.33-.154-.964.073c-.987.075-2.88.252-2.902.272a491.18 491.18 0 00-.054 5.018l-.04 5.007.55-.036c.66-.049 1.32-.102 1.979-.16zm-.774-1.41c-.024-.025-.044-.668-.044-1.43v-1.384l.861-.034.861-.034.192.189c.106.104.264.337.35.518.137.284.159.403.159.866 0 .48-.017.568-.163.82-.248.432-.396.488-1.355.513-.45.012-.837 0-.86-.024zm.29-4.369l-.336-.021.016-1.296.016-1.296.795-.017.796-.016.27.307c.634.721.563 1.888-.137 2.249-.266.137-.476.15-1.419.09zm8.438 5.57c1.218-.265 2.056-1.145 2.198-2.312.03-.24.048-1.512.04-2.826-.015-2.634-.025-2.72-.405-3.463-.222-.434-.78-1.018-1.183-1.238a3.487 3.487 0 00-1.354-.39c-1.02-.07-2.14.704-2.702 1.867-.4.827-.421 1.036-.374 3.76.044 2.561.068 2.777.363 3.332.54 1.015 2.033 1.57 3.417 1.27zm-1.249-1.548a1.33 1.33 0 01-.725-.602l-.148-.26-.013-2.498-.012-2.499.161-.335c.407-.849 1.377-1.003 2.077-.33.266.256.42.584.478 1.018.027.2.057 1.304.067 2.454.017 2.075.017 2.092-.116 2.369-.297.62-1.098.929-1.769.683zm10.513 1.5c0-.042-.381-1.049-.846-2.239-.466-1.19-.847-2.187-.847-2.217 0-.03.097-.072.216-.095.866-.166 1.358-1.031 1.359-2.39 0-1.287-.528-2.459-1.325-2.937-.3-.179-.774-.224-3.037-.287l-1.415-.04v10.028l.19.03c.104.016.512.034.907.039l.718.01-.009-2.138-.008-2.137.49-.017.489-.018.522 1.72c.222.732.446 1.464.673 2.196l.151.478.638.017c.35.009.677.026.725.037.21.05.409.03.409-.04zm-4.105-5.756c-.021-.022-.039-.65-.039-1.396V7.934l.72-.042c.795-.047 1.027.007 1.337.31.507.497.479 1.869-.049 2.343l-.203.182h-.863c-.475 0-.881-.018-.903-.04z" fill="#9F6B08"/><path d="M43.932 92.16c-1.95-1.217-6.813-5.195-10.079-8.245-5.36-5.007-10.735-11.715-14.399-17.97-7.812-13.337-11.87-28.889-12.348-47.318-.14-5.382-.13-5.552.378-6.626.673-1.424 1.278-1.843 4.483-3.103 8.848-3.477 18.19-5.086 30.982-5.336 14.443-.282 26.385 1.47 35.996 5.281 3.33 1.32 3.923 1.727 4.6 3.16.51 1.077.519 1.237.376 6.744-.782 30.266-11.11 52.712-32.184 69.95-2.556 2.09-5.222 3.996-5.887 4.207-.329.105-.932-.13-1.918-.745zM29.77 71.515c.365-.17.633-.609.83-1.359.161-.608.455-1.3.655-1.538.22-.261.4-1.056.46-2.016.088-1.402.202-1.718.993-2.743.51-.661 1.057-1.743 1.273-2.522.208-.75.543-1.686.743-2.08 1.496-2.948 2.462-4.657 2.633-4.657.515 0 .927 1.133.927 2.55 0 1.116.093 1.54.374 1.701.335.192.338.289.033.908a7.896 7.896 0 00-.506 1.395c-.226.96-.973 1.982-1.752 2.395-.357.189-1.136.828-1.731 1.42-.858.854-1.082 1.24-1.079 1.862.005 1.053.34 1.603.733 1.202.47-.481.683-.342.517.337-.15.612-.128.628.624.474.966-.198 1.84-.766 2-1.3a4.37 4.37 0 01.327-.763c.113-.197.545-1.093.96-1.991.516-1.118 1.083-1.91 1.796-2.507.573-.481 1.194-1.248 1.38-1.705.551-1.351 2.155-2.504 2.155-1.55 0 .56-.902 2.25-1.562 2.925-.83.85-1.468 1.988-1.47 2.619 0 .553.328.721.583.298.254-.42.544-.255.418.239-.103.401-.008.478.596.478 1.199 0 2.326-.692 2.5-1.532.083-.406.354-1.079.601-1.496.295-.497.4-.967.303-1.361-.158-.643.27-2.299.594-2.299.24 0 1.085 1.78 1.302 2.747.089.394.367.949.619 1.233.426.482.612.508 2.71.388 2.169-.124 2.273-.156 2.835-.866.422-.534.619-1.134.714-2.179.168-1.843.959-3.097 2.775-4.402l1.358-.975.335.534c.184.294.582 1.153.885 1.91.505 1.264.526 1.47.254 2.557-.162.65-.226 1.407-.14 1.682.085.278-.029 1.021-.26 1.677l-.413 1.179.551.601c.627.683 1.059.766 1.255.243.178-.474.615-.46.615.02 0 .508.458.322.985-.4.403-.554.407-.657.061-1.658-.203-.586-.322-1.252-.264-1.478.057-.227 0-.871-.127-1.433-.29-1.284-.275-2.787.045-4.367.225-1.111.193-1.352-.332-2.514-.32-.707-.538-1.33-.485-1.385.054-.055.496.06.982.256 2.261.91 4.028.703 5.1-.6l.637-.77-1.377-.12c-1.565-.138-1.637-.174-3.289-1.655-1.164-1.044-1.207-1.126-1.082-2.06.074-.55-.041-1.761-.266-2.795-.365-1.68-.367-1.924-.025-3.126.203-.718.37-1.62.37-2.006 0-1.154-.628-2.935-1.367-3.877-.382-.486-.808-1.317-.947-1.845-.139-.529-.51-1.35-.825-1.825-.54-.815-.553-.912-.233-1.697.187-.458.34-1.423.34-2.146 0-1.14-.1-1.429-.758-2.197-1.43-1.667-2.098-1.818-8.92-2.025-7.877-.238-9.118-.54-7.894-1.925.5-.566 1.317-.552 3.017.055 1.857.662 4.13.826 5.46.395 1.141-.37 1.162-.351-.817-.772-.32-.068-.583-.243-.583-.389 0-.178.363-.216 1.108-.114 3.049.415 3.557.445 3.557.212 0-.387-2.048-1.183-4.185-1.627-3.436-.712-6.747-.122-8.314 1.483-.964.987-1.074 2.034-.27 2.57 1.01.675 2.67.882 8.601 1.071 5.424.174 6.075.24 7.017.707 1.16.575 1.663 1.325 1.633 2.432-.026.92-.627 1.9-1.164 1.9-.91 0-3.924-.775-6.057-1.556-1.252-.458-2.486-.832-2.742-.831-.58.001-1.26.458-3.276 2.2-.87.753-2.416 1.813-3.438 2.357-3.307 1.762-4.328 3.163-4.787 6.571-.25 1.846-.558 2.585-1.98 4.736-1.181 1.786-2.017 4.187-2.024 5.809-.003.783-.276 2.039-.728 3.344-.598 1.727-.732 2.502-.776 4.477-.045 2.049-.137 2.547-.646 3.502-.367.688-.658 1.716-.76 2.69-.15 1.437-.266 1.699-1.31 2.947-.63.754-1.145 1.5-1.147 1.66 0 .16-.319.66-.706 1.111-.89 1.038-1.326 2.229-.955 2.608.197.201.356.136.625-.257.512-.748.805-.658.571.176-.134.48-.11.742.075.824.351.157 1.678-.054 2.369-.376zm17.85-50.103c-.654-.424-.03-.535.97-.173l1.005.364-.816.015c-.449.009-.97-.084-1.16-.206zm-33.65-.292c1.808-.675 1.925-.76 1.925-1.412 0-.382-.036-.694-.08-.694-.044 0-.69.215-1.436.478-.746.262-1.392.477-1.436.477-.044 0-.08-1.88-.08-4.18 0-2.298-.037-4.179-.082-4.179-.045 0-.412.118-.816.262l-.735.262v5.018c0 4.683.028 5.007.409 4.852a169.52 169.52 0 012.332-.884zm65.828-3.993v-4.993l-.734-.262c-.404-.144-.772-.262-.817-.262-.045 0-.082 2.241-.082 4.981v4.98l.758.25c.417.137.785.26.817.273.032.014.058-2.222.058-4.967zm-3.552-1.38l-.063-4.939-.641-.175-.642-.176-.003 2.666c-.004 3.056-.028 3.047-1.425-.558-1.023-2.641-1.356-3.104-2.23-3.104h-.54v4.896c0 3.756.068 4.896.292 4.9.16 0 .524.066.809.144.511.14.518.107.583-2.766l.066-2.909 1.275 3.258c.701 1.792 1.436 3.355 1.632 3.473.928.556.953.423.887-4.71zm-58.221 4.078c.081-.049.22-.68.308-1.401.18-1.475.165-1.456 1.325-1.678l.845-.163.282 1.205c.277 1.182.296 1.203 1.02 1.062.405-.079.78-.18.832-.226.117-.103-2.095-8.988-2.288-9.19-.077-.08-.461-.055-.854.055-.709.2-.721.232-1.585 4.087-.393 1.759-.79 3.517-1.192 5.274l-.321 1.388.74-.163c.407-.089.807-.202.888-.25zm1.01-4.847c.078-.248.222-.92.322-1.492l.18-1.04.308 1.28c.258 1.079.256 1.314-.014 1.49-.563.365-.946.25-.795-.237zm50.035-1.085c0-2.685-.079-4.927-.175-4.982-.096-.056-.464-.172-.816-.258l-.642-.157v10.009l.642.1c.352.054.72.114.816.134.096.02.175-2.16.175-4.846zm-44.04 4.283c.227-.089.29-.555.235-1.739-.042-.89-.042-2.044 0-2.565.07-.879.142-.749.983 1.78l.907 2.729.842-3.06.842-3.06.066 2.682c.057 2.307.117 2.663.427 2.54.199-.077.562-.141.808-.141.427 0 .448-.23.448-4.968V7.408l-.796.095c-.78.093-.809.138-1.412 2.161-.34 1.137-.754 2.497-.922 3.022l-.305.955-.759-2.508c-.417-1.379-.841-2.599-.942-2.71-.1-.113-.507-.13-.905-.041l-.722.162v4.877c0 4.649.02 4.877.447 4.877.246 0 .587-.054.758-.121zm40.488-5.073l-.064-4.956-.64-.076-.642-.075v3.858l-.991-.142c-1.627-.233-1.575-.158-1.575-2.244 0-1.374-.082-1.919-.291-1.922-.16-.001-.528-.067-.816-.147l-.525-.144V17.29l.816.097.816.098v-2.22c0-2.461-.076-2.368 1.691-2.069l.875.149v2.22c0 1.913.056 2.235.408 2.329 1.029.275 1.004.402.937-4.791zm-29.354 3.44c.959-.47 1.501-1.458 1.52-2.77.013-.92-.098-1.312-.486-1.71-.5-.51-.5-.52-.059-1.26.535-.899.567-1.842.094-2.778-.44-.872-1.565-1.188-3.497-.982l-1.399.149-.063 4.98-.063 4.98 1.696-.167c.932-.092 1.948-.292 2.257-.443zm-2.311-2.502c0-1.243.061-1.436.491-1.551 1.306-.35 2.252.973 1.578 2.208-.25.458-.555.633-1.202.688l-.867.074v-1.42zm0-4.228V8.506h.77c.932 0 1.329.362 1.329 1.213 0 .76-.318 1.057-1.341 1.256l-.758.146V9.814zm23.707 6.692c.618-.415 1.011-1.694 1.014-3.29.001-1.256-.019-1.273-1.69-1.437l-1.108-.11v.807c0 .701.076.807.583.807.47 0 .583.118.583.613 0 1.415-1.11 2.045-1.944 1.102-1.143-1.294-.888-6.221.343-6.621.513-.167 1.368.46 1.368 1.002 0 .208.288.322.816.322.926 0 1.03-.318.468-1.431-.493-.977-1.24-1.436-2.334-1.436-2.002 0-2.907 1.53-2.9 4.896.006 2.226.339 3.631 1.052 4.438.824.933 2.62 1.095 3.749.338zm-14.427-.253c.287-.206.75-.824 1.03-1.374.731-1.437.745-5.046.026-6.654-.49-1.097-1.44-1.868-2.301-1.868-.815 0-1.914.769-2.422 1.695-1.084 1.975-.872 6.346.382 7.872.487.593.747.703 1.67.703.615 0 1.322-.164 1.615-.374zm-2.22-1.705c-.3-.47-.432-1.232-.482-2.806-.06-1.85 0-2.275.414-2.953.603-.989 1.36-.959 1.868.076.526 1.07.485 4.828-.061 5.682-.528.824-1.211.825-1.739.001zm6.7-.147c0-2.017.022-2.103.5-2.03.397.06.645.502 1.219 2.166l.72 2.09h1.744l-.766-2.252-.766-2.251.626-.605c.765-.739 1.003-1.815.677-3.056-.364-1.383-1.278-1.865-3.536-1.867h-1.799l-.067 4.916c-.037 2.704-.05 4.934-.029 4.956.022.021.363.04.758.04h.72V14.4zm.175-3.645c-.096-.099-.175-.767-.175-1.485V7.966l.983.135c1.397.192 1.988 1.18 1.29 2.156-.314.44-1.81.796-2.098.5zm-43.75 6.587c0-.328.052-.463.117-.298a.94.94 0 010 .597c-.065.164-.118.03-.118-.299zm.032-2.15c0-.722.044-1.018.097-.656a5.4 5.4 0 010 1.313c-.053.362-.097.066-.097-.656z" fill="#9F6B08"/><path d="M43.265 90.998c-5.732-4.191-12.886-11.002-16.906-16.096C14.215 59.515 8.463 42.196 7.6 18.418c-.23-6.32.089-7.096 3.503-8.56 8.93-3.828 20.412-5.742 34.411-5.737 10.552.004 17.921.84 26.005 2.948 3.663.955 8.791 2.779 10.089 3.587.968.603 1.631 1.72 1.837 3.097.205 1.371-.26 11.047-.736 15.293-2.459 21.935-10.325 38.91-24.612 53.11-4.589 4.56-11.54 10.181-12.59 10.181-.225 0-1.234-.603-2.242-1.34zm-13.448-19.43c.55-.342.789-.703.909-1.371.09-.5.358-1.164.596-1.477.316-.416.432-.972.432-2.064 0-1.394.063-1.572.94-2.655.644-.795 1.114-1.74 1.495-3.003.305-1.014.76-2.143 1.013-2.508.252-.366.788-1.336 1.19-2.157.403-.821.824-1.493.934-1.493.496 0 .822.835.773 1.981-.062 1.464.103 2.08.557 2.08.294 0 .292.094-.016.704-.195.388-.355.837-.355 1 0 .73-1.032 2.38-1.788 2.858-.452.286-1.056.746-1.342 1.024-.332.318-.675.624-1.028.919-.473.388-.628 1.054-.514 2.212.068.689.418.988.753.644.44-.45.695-.335.42.192-.226.432-.177.477.517.476.878 0 2.282-.787 2.282-1.278 0-.33 1.65-3.695 2.227-4.54.166-.245.627-.647 1.024-.894.395-.247.898-.852 1.115-1.346.524-1.189 1.214-1.972 1.738-1.972.235 0 .426.057.426.126 0 .404-1.434 2.942-1.728 3.057-.436.172-1.605 2.482-1.415 2.797.183.303.811.296.811-.009 0-.131.102-.239.226-.239.124 0 .161.172.082.383-.204.545.31.78 1.237.566 1.214-.28 1.953-.871 1.953-1.561 0-.33.225-.913.5-1.293.382-.53.467-.895.361-1.559-.134-.851.196-2.029.57-2.029.27 0 .805 1.129 1.132 2.389.457 1.757.636 1.858 3.296 1.858 1.766 0 2.4-.085 2.61-.35.153-.191.48-.575.726-.85.32-.36.46-.893.486-1.87.031-1.142.169-1.555.834-2.503.997-1.42 2.94-2.854 3.372-2.486.165.14.579.968.92 1.841.563 1.438.595 1.683.342 2.608-.154.562-.224 1.32-.155 1.685.068.365-.025 1.026-.205 1.469-.465 1.138-.412 1.639.243 2.31.71.727 1.018.739 1.279.05l.202-.538.22.585.22.585.62-.634c.698-.715.773-1.33.281-2.303-.185-.367-.277-.904-.203-1.193.073-.288 0-1.171-.164-1.963-.242-1.167-.242-1.808 0-3.397.281-1.857.27-2.01-.199-2.907-.75-1.432-.662-1.57.673-1.05 2.02.786 4.143.459 4.981-.768.587-.858.49-1.176-.31-1.012-1.24.253-2.227-.117-3.604-1.351l-1.325-1.187-.12-2.092c-.125-2.196-.131-3.473-.034-6.95.06-2.102.056-2.115-.864-3.522-.508-.777-1.097-1.926-1.308-2.555-.211-.628-.617-1.396-.902-1.707-.493-.537-.5-.6-.146-1.301 1.112-2.203.448-4.377-1.714-5.609l-1.263-.72-5.968-.19c-7.568-.24-8.995-.521-8.404-1.652.387-.742 1.215-.771 3.239-.117 2.053.665 4.307.808 5.577.355.854-.305.76-.694-.168-.694-.352 0-.845-.166-1.094-.37-.424-.347-.393-.363.48-.243 2.855.39 3.849.431 3.849.16 0-.154-.446-.474-.991-.712-3.376-1.47-7.655-1.63-10.104-.378-1.244.636-2.432 1.88-2.432 2.545 0 .44 1.137 1.357 2.01 1.62.498.15 3.634.378 6.969.506 6.546.25 7.645.454 8.51 1.58.63.82.603 2.032-.061 2.823l-.53.631-1.818-.384c-1-.212-2.729-.72-3.843-1.128-3.492-1.282-3.51-1.28-6.28 1.09-.935.8-2.769 2.053-4.074 2.784-3.32 1.858-3.99 2.929-4.505 7.199-.096.8-.479 1.661-1.325 2.985-1.787 2.795-2.291 4.086-2.526 6.463-.12 1.23-.495 2.92-.91 4.117-.589 1.69-.707 2.395-.71 4.209-.002 1.855-.087 2.334-.568 3.224-.31.575-.63 1.583-.712 2.24-.25 2.024-.331 2.225-1.388 3.443-.564.65-1.101 1.43-1.194 1.735-.093.305-.468.905-.834 1.334-.74.87-1.035 1.753-.795 2.383.14.366.233.329.746-.298l.587-.716-.149.895-.148.896h1.001c.581-.001 1.315-.197 1.747-.467zm17.903-50.18c-.242-.402-.052-.422.826-.09l.817.308-.745.018c-.409.01-.813-.096-.898-.237zM12.013 41.882c-1.091-5.733-1.81-12.24-2.171-19.644-.38-7.788-.388-7.878-.824-8.56-.224-.349-.5-.635-.613-.635-.675 0 .205 13.548 1.335 20.54.648 4.008 2.102 10.03 2.422 10.03.1 0 .032-.778-.15-1.73zm4.115-22.211c0-.493-.036-.896-.08-.896-.044 0-.69.215-1.438.478-.746.263-1.41.423-1.477.356-.066-.068-.167-1.895-.225-4.061-.058-2.166-.19-3.938-.293-3.938-.103 0-.457.105-.786.233l-.598.233v10.26l2.448-.885 2.448-.885v-.895zm63.5-7.61c-.099-.098-.468-.251-.821-.34l-.641-.163V21.64l.758.317.758.317.063-5.017c.034-2.759-.018-5.097-.117-5.195zm-3.095 3.862c0-2.751-.078-5.049-.174-5.107-.097-.058-.527-.183-.956-.277l-.78-.171.08 2.412c.045 1.327.029 2.412-.035 2.411-.065 0-.564-1.156-1.111-2.568-1.217-3.142-1.168-3.065-2.096-3.27l-.758-.17v5.02c0 2.762.079 5.067.175 5.122.096.055.463.17.816.258l.641.156v-2.798c0-1.54.088-2.697.195-2.572.107.124.702 1.553 1.323 3.175 1.098 2.87 1.414 3.315 2.389 3.365.224.012.291-1.136.291-4.986zm-59.048 4.264c.649-.231.755-.408.993-1.647.244-1.269.327-1.4.97-1.532 1.054-.215 1.06-.212 1.22.757.228 1.39.365 1.513 1.36 1.232.475-.135.864-.301.864-.371s-.406-1.65-.901-3.512a379.554 379.554 0 01-1.213-4.647c-.304-1.236-.326-1.26-1.023-1.11-.391.085-.787.225-.88.313-.169.16-2.51 9.921-2.512 10.478-.002.366.189.373 1.122.04zm1.766-5.517c.078-.402.142-.9.142-1.108 0-.603.39-.007.542.83.113.621.054.773-.345.88-.43.115-.467.05-.34-.602zm63.792.88c.015-1.72-.146-2.746-.429-2.746-.089 0-.35.142-.58.314-.402.3-.403.425-.023 2.926.218 1.436.456 2.773.53 2.97.192.517.485-1.508.502-3.463zM69.07 13.91V8.805l-.737-.151c-.405-.083-.758-.123-.784-.09-.026.034-.117 2.28-.2 4.992l-.155 4.931.88.24c.484.13.906.25.938.263.032.014.058-2.272.058-5.08zm-44.138 4.477c.497-.137.527-.27.547-2.445l.023-2.3.758 2.33c.416 1.283.814 2.39.884 2.461.07.072.339-.602.599-1.495l.818-2.82.346-1.193.024 2.41.025 2.41.874-.146.875-.148-.088-5.01c-.048-2.755-.115-5.042-.149-5.083-.034-.04-.411.02-.837.133-.757.2-.796.275-1.59 3.03l-.813 2.826-.848-2.6c-.836-2.566-.856-2.598-1.526-2.519-.374.044-.752.152-.841.239-.09.087-.194 2.389-.234 5.115-.077 5.354-.124 5.156 1.153 4.805zm40.873-5.09c0-2.75-.079-5.05-.175-5.111-.096-.06-.49-.147-.875-.193l-.7-.084-.068 1.851c-.067 1.837-.073 1.851-.7 1.848-1.574-.008-1.656-.115-1.73-2.232l-.067-1.945-.758-.074-.758-.075v5.005c0 5.353-.013 5.295 1.177 5.295.393 0 .445-.23.505-2.209l.068-2.209.932.083c.514.045 1.012.132 1.108.193.096.06.175 1.118.175 2.35v2.24l.758.096c.417.053.837.113.933.135.096.02.175-2.213.175-4.964zM36.122 16.73c1.527-.634 2.18-2.989 1.258-4.536-.376-.632-.392-.793-.115-1.18.437-.613.406-2.514-.054-3.186-.563-.824-1.4-1.042-3.295-.86l-1.695.162v10.227l1.574-.157c.866-.086 1.913-.298 2.327-.47zm-2.174-1.628c-.068-.182-.091-.8-.051-1.373.066-.944.135-1.05.728-1.12.916-.107 1.327.335 1.327 1.426 0 .78-.097.97-.598 1.165-.826.322-1.26.292-1.406-.098zm-.095-5.256c0-.91.075-1.068.565-1.193.787-.203 1.28.045 1.447.726.188.766-.479 1.517-1.348 1.517-.629 0-.664-.056-.664-1.05zm23.417 6.987c.844-.394 1.305-1.585 1.305-3.374v-1.543l-1.082-.152c-1.7-.239-1.717-.232-1.717.684 0 .676.09.836.467.836.677 0 .685 1.807.008 2.027-1.184.385-1.87-.95-1.873-3.647-.001-2.004.47-3.157 1.29-3.157.472 0 .678.17.885.732.25.676.333.72 1.088.576.45-.086.85-.189.89-.229.039-.04-.08-.442-.264-.894-1.024-2.508-4.046-2.698-5.074-.319-.62 1.436-.808 3.736-.45 5.506.394 1.939 1.589 3.226 2.995 3.226.522 0 1.211-.122 1.532-.272zm-14.186-.417c1.04-.65 1.564-1.965 1.684-4.229.192-3.646-.942-5.83-3.026-5.83-.751 0-1.093.158-1.71.791-1.03 1.054-1.35 2.395-1.241 5.185.071 1.821.191 2.443.603 3.126.855 1.417 2.338 1.801 3.69.957zm-1.861-1.59c-1.197-1.226-.986-6.174.284-6.673 1.485-.584 2.188 5.06.824 6.604-.472.533-.644.544-1.108.069zM51.81 16.67c0-.107-.313-1.142-.695-2.302l-.696-2.107.721-.842c.657-.765.713-.957.619-2.118-.175-2.151-1.335-2.941-4.321-2.944l-1.458-.002v10.27h1.866v-2.15c0-2.865.389-2.869 1.394-.013.662 1.88.827 2.148 1.37 2.233 1.103.174 1.2.172 1.2-.025zm-3.964-7.267v-1.28l.808.097c1.017.121 1.343.519 1.248 1.523-.07.747-.13.796-1.065.866l-.991.073v-1.28zm-37.56 2.147c.018-.315-.801-.191-1.354.205l-.535.384.531.58.532.58.408-.785c.225-.432.413-.865.419-.964z" fill="#040404"/><path d="M42.009 89.858c-16.397-12.63-26.538-28.137-31.24-47.772-1.89-7.897-3.037-17.652-3.037-25.844 0-4.472.313-4.964 4.143-6.522C24.179 4.715 42.44 2.952 60.208 5.054c8.992 1.065 20.37 4.391 22.162 6.48.727.849.896 1.33.402 1.148-.16-.059-.532.083-.826.315-.533.422-.534.428-.196 2.444.186 1.112.413 3.177.504 4.59.091 1.411.244 2.566.34 2.566.31 0 .463-1.698.518-5.732l.053-3.94.082 3.224c.153 6.055-.72 15.059-2.168 22.345-2.7 13.592-7.944 25.339-15.882 35.572-5.007 6.455-17.667 18.032-19.72 18.032-.345 0-1.676-.86-3.468-2.24zm5.627.297c3.042-2.013 6.018-4.573 9.451-8.133 4.708-4.882 7.435-8.14 8.379-10.008.288-.57.274-.68-.132-1.057-.44-.408-.547-.325-3.665 2.826-3.897 3.94-6.592 6.168-6.592 5.448 0-.426-3.02-2.178-4.822-2.798-3.219-1.107-6.714-1.006-9.569.276l-1.213.545-.388-1.355c-1.097-3.827-1.713-8.912-1.127-9.304.14-.094.549-.843.905-1.662.464-1.065.996-1.795 1.863-2.553.735-.643 1.299-1.365 1.429-1.829.22-.788 1.253-1.775 1.693-1.62.38.136-.457 1.843-1.519 3.1-.51.602-1.067 1.441-1.237 1.864-.27.668-.262.819.064 1.153.346.355.39.349.55-.075.156-.418.184-.406.309.137.179.781.873.872 2.173.283.906-.41 1.042-.574 1.173-1.417.082-.525.315-1.095.518-1.267.249-.212.35-.632.31-1.285-.061-1.018.197-2.285.467-2.285.28 0 .91 1.29 1.079 2.211.09.494.37 1.166.621 1.493.434.565.577.595 2.861.595h2.405l.663-.89c.515-.692.672-1.172.7-2.142.05-1.695.902-3.13 2.595-4.37l1.329-.976.38.515c.208.284.602 1.15.874 1.925.387 1.101.444 1.55.258 2.05-.13.35-.276 1.288-.325 2.084-.048.795-.158 1.833-.243 2.307-.135.75-.073.927.48 1.373.804.647 1.004.643 1.266-.025.153-.39.215-.426.226-.134.025.683.487.75 1.1.159.499-.479.565-.704.446-1.518-.077-.525-.23-1.654-.34-2.508-.111-.853-.28-1.744-.375-1.979-.095-.234-.04-1.417.122-2.628.282-2.1.272-2.25-.205-3.206-.684-1.373-.638-1.587.238-1.123 1.01.536 3.263.719 4.16.339.761-.324 1.632-1.29 1.632-1.813 0-.234-.282-.281-1.107-.184-.92.108-1.233.035-1.843-.43-.564-.427-1.129-.852-1.696-1.276-.913-.681-.953-.764-.829-1.7.074-.559-.035-1.732-.255-2.718-.211-.954-.322-2.07-.245-2.479.077-.41.243-1.26.37-1.891.32-1.583-.061-3.202-1.149-4.888-.485-.754-1.016-1.8-1.178-2.325-.162-.526-.498-1.252-.747-1.615-.435-.635-.437-.706-.057-1.877.75-2.31-.023-4.188-2.16-5.255-1.039-.519-1.504-.568-6.828-.726-5.12-.152-7.782-.408-8.415-.809-.433-.274-.207-1.077.382-1.352.5-.233.921-.167 2.623.412 2.17.74 4.453.892 5.715.382.839-.34.65-.64-.52-.832-.509-.084-.99-.26-1.069-.39-.198-.329.299-.3 2.084.125 1.443.342 2.698.286 2.698-.121 0-.263-1.97-1.091-3.649-1.535-1.895-.501-5.28-.494-6.819.015-1.416.469-2.945 1.735-3.161 2.618-.196.798.457 1.568 1.681 1.982.492.166 3.707.424 7.4.596 6.94.321 7.573.444 8.382 1.627.532.778.455 1.962-.177 2.714-.53.631-.566.638-1.807.357-.697-.158-2.635-.743-4.308-1.3-2.357-.785-3.196-.969-3.731-.818-.38.107-1.478.891-2.44 1.742-.969.857-2.768 2.097-4.032 2.78-3.214 1.734-4.2 3.083-4.598 6.293-.223 1.805-.61 2.738-2.232 5.37-1.107 1.798-1.733 3.618-1.733 5.043 0 .734-.316 2.166-.816 3.697-.689 2.108-.816 2.83-.816 4.622 0 1.797-.09 2.302-.582 3.28-.32.637-.642 1.695-.715 2.351-.218 1.969-.27 2.094-1.492 3.573-.647.782-1.176 1.615-1.176 1.85 0 .236-.101.429-.225.429-.39 0-1.408 1.755-1.408 2.43 0 .901.448 1.092.964.41l.432-.572-.144.777c-.125.674-.08.776.342.776.335 0 .682.352 1.119 1.135 2.468 4.426 7.914 10.926 11.98 14.3 2.053 1.704 4.87 3.672 5.255 3.672.15 0 .943-.445 1.764-.988zm-15.89-22.04c.128-.343.221-1.154.207-1.801-.021-.968.098-1.338.672-2.086.888-1.157 1.34-2.069 1.693-3.409.3-1.146 2.732-5.98 3.007-5.98.487 0 .726.721.726 2.186 0 1.209.09 1.665.362 1.82.593.34-.254 2.774-1.342 3.855-1.412 1.401-2.124 2.028-2.803 2.464-.462.297-.683.68-.79 1.373-.083.529-.234.961-.337.961-.102 0-.51.28-.906.621l-.72.621.232-.625zm16.1-46.711c-.288-.192-.268-.23.117-.219.256.008.676.106.933.219.427.188.417.206-.117.218-.32.007-.74-.091-.933-.218zm-33.03 30.39c-.437-1.411-1.261-4.501-1.832-6.865-1.955-8.102-2.61-13.561-3.283-27.38-.115-2.35-.245-3.184-.588-3.762-.519-.874-.908-.96-.93-.206-.298 9.805 1.28 22.278 3.97 31.381 1.168 3.953 3.076 9.4 3.292 9.4.09 0-.193-1.155-.63-2.567zm7.26-14.024c4.537-1.223 8.77-4.8 10.749-9.082.243-.526.45-1.01.46-1.075.01-.066.217-.764.459-1.552.327-1.063.443-2.175.45-4.3.01-3.213-.16-4.165-.753-4.208-.223-.016.197-.12.93-.23 2.532-.38 3.447-1.315 3.447-3.524 0-.808-.141-1.357-.448-1.744-.42-.528-.423-.591-.058-1.006.254-.289.39-.858.39-1.632 0-1.04-.096-1.276-.762-1.886-.803-.735-1.845-.882-3.845-.543l-.874.148v3.173c0 1.746-.064 3.344-.142 3.551-.078.208-.393.378-.7.378h-.558v-3.463c0-3.433-.004-3.463-.525-3.46-1.359.009-1.459.142-2.281 3.045l-.787 2.775-.82-2.554-.819-2.555-.824.152c-.453.084-.903.198-.999.254-.096.057-.175 1.59-.175 3.406v3.304l-.617.158c-.339.087-.69.072-.782-.034-.09-.105-.49-1.467-.887-3.027-.398-1.559-.77-2.882-.827-2.94-.058-.06-.476-.036-.93.051l-.825.159-.613 2.663c-1.11 4.817-.893 4.37-2.276 4.7-.672.162-1.563.435-1.98.609l-.758.315V14.56c0-2.864-.043-3.221-.371-3.092-.205.08-.63.213-.945.293l-.573.148.09 5.404c.098 5.962.397 8.12 1.891 13.672 1.141 4.24 2.17 6.88 2.788 7.156.696.31 4.41.086 6.1-.37zm-2.824-22.954c.078-.208.141-.606.141-.884 0-.652.357-.265.558.605.128.559.077.657-.345.657-.357 0-.456-.107-.354-.378zm14.834-.789c0-.994.075-1.186.505-1.301.81-.217 1.361.234 1.361 1.115 0 .956-.356 1.353-1.213 1.353-.626 0-.653-.049-.653-1.167zm-8.473.768c-.086-.087-.153-.329-.149-.537.006-.31.052-.3.255.058.25.442.178.77-.106.48zM28.759 14c0-.328.053-.462.118-.298a.943.943 0 010 .597c-.065.164-.118.03-.118-.299zm5.327-4.18c0-1.068.005-1.074.817-1.074.819 0 .95.19.827 1.194-.056.464-.685.956-1.222.956-.344 0-.422-.198-.422-1.075zm45 21.63c.655-1.672 1.65-7.74 1.637-9.985-.005-.855-.178-1.735-.459-2.33-.373-.791-.451-1.492-.458-4.08l-.008-3.124-.81-.254-.808-.255-.066 2.901c-.061 2.748-.09 2.898-.531 2.83-1.052-.16-1.05-.153-1.05-3.354v-3.083l-.729-.149c-.4-.082-.82-.15-.933-.15-.112 0-.208 1.049-.213 2.33l-.009 2.328-1.062-2.627c-.585-1.445-1.132-2.697-1.216-2.781-.084-.085-.494-.228-.91-.318l-.759-.163v3.124c0 3.1-.004 3.124-.536 3.124-.977 0-1.096-.391-1.096-3.603 0-2.94-.016-3.033-.525-3.173-1.365-.375-1.34-.431-1.34 3.101v3.253l-.526-.144c-.288-.08-.603-.146-.7-.148-.096-.002-.174-1.494-.174-3.317V8.088l-.73-.15c-.4-.081-.82-.148-.932-.148-.112 0-.204.86-.204 1.91 0 2.062.013 2.045-1.361 1.764l-.72-.148-.067-1.942-.068-1.943-.874-.074-.875-.074V17.53l.824.098c.452.054.872.048.932-.014.06-.061.11-1.061.11-2.221 0-2.28-.024-2.246 1.37-1.96l.73.148.014 1.822c.016 2.022.341 6.571.522 7.314.902 3.7 3.798 7.12 7.191 8.493 1.797.727 2.851.907 5.148.877 1.95-.026 2.04-.051 2.27-.639zm-6.389-15.6c-.243-.821-.3-1.361-.131-1.254.314.198.705 1.553.448 1.553-.125 0-.268-.134-.317-.299zm-15.116.88c.75-.504.993-1.284.993-3.196 0-1.815-.099-1.913-1.924-1.92-.866-.003-.875.007-.875.952 0 .796.078.956.466.956.359 0 .467.159.467.687 0 1.006-.542 1.384-1.278.89-.736-.494-.938-1.246-.938-3.499 0-2.734 1.038-4.005 1.935-2.37.34.619.516.714 1.214.657.732-.06.812-.135.772-.727-.104-1.553-1.939-2.856-3.468-2.463-.917.236-1.867 1.385-2.172 2.624-.57 2.318-.144 5.53.917 6.912.842 1.095 2.653 1.327 3.89.497zm-14.21-.46c.978-.844 1.477-2.297 1.512-4.416.06-3.498-1.026-5.497-2.985-5.497-2.065 0-3.26 1.97-3.26 5.373 0 2.214.528 3.917 1.444 4.655.87.702 2.403.647 3.289-.116zm-2.319-1.71c-.21-.258-.343-1.182-.386-2.687-.073-2.534.197-3.435 1.068-3.563.855-.126 1.287 1.282 1.169 3.813-.1 2.135-.376 2.832-1.121 2.832-.226 0-.554-.178-.73-.395zm6.744.096c.09-2.793.47-2.777 1.462.06l.75 2.15h1.018c.56 0 1.014-.027 1.01-.06-.005-.033-.354-1.065-.776-2.293l-.767-2.233.659-.674c.548-.562.658-.877.658-1.876 0-2.476-.803-3.182-3.79-3.33l-2.04-.102v5.144c0 5.482-.009 5.443 1.166 5.35.568-.045.584-.099.65-2.136zm.05-5.194c0-1.192.001-1.195.77-1.195.926 0 1.328.362 1.328 1.195 0 .832-.402 1.194-1.329 1.194-.768 0-.77-.003-.77-1.194zM9.83 12.966c0-.159.266-.69.592-1.18.474-.714.518-.891.223-.891-.404 0-2.214.89-2.214 1.089 0 .068.226.438.503.822.489.676.896.749.896.16zM23.41 7.44c9.764-1.613 19.44-2.119 29.685-1.552 4.186.231 11.286.938 14.11 1.403 1.225.202 1.624.171 1.354-.105-.2-.205-5.675-1.25-8.584-1.637-5.456-.728-9.774-.924-17.595-.799-8.14.13-11.578.436-16.922 1.5-3.959.789-7.294 1.778-5.994 1.778.21 0 1.985-.265 3.946-.588z" fill="#040404"/></g><defs><filter id="filter0_d_32_72" x="0" y=".223" width="91" height="103.705" filterUnits="userSpaceOnUse" color-interpolation-filters="sRGB"><feFlood flood-opacity="0" result="BackgroundImageFix"/><feColorMatrix in="SourceAlpha" values="0 0 0 0 0 0 0 0 0 0 0 0 0 0 0 0 0 0 127 0" result="hardAlpha"/><feOffset dy="4"/><feGaussianBlur stdDeviation="2"/><feComposite in2="hardAlpha" operator="out"/><feColorMatrix values="0 0 0 0 0 0 0 0 0 0 0 0 0 0 0 0 0 0 0.25 0"/><feBlend in2="BackgroundImageFix" result="effect1_dropShadow_32_72"/><feBlend in="SourceGraphic" in2="effect1_dropShadow_32_72" result="shape"/></filter></defs></svg>