<?xml version="1.0" standalone="no"?>
<!DOCTYPE svg PUBLIC "-//W3C//DTD SVG 20010904//EN"
 "http://www.w3.org/TR/2001/REC-SVG-20010904/DTD/svg10.dtd">
<svg version="1.0" xmlns="http://www.w3.org/2000/svg"
 width="832.000000pt" height="832.000000pt" viewBox="0 0 832.000000 832.000000"
 preserveAspectRatio="xMidYMid meet">
<metadata>
Created by potrace 1.14, written by Peter Selinger 2001-2017
</metadata>
<g transform="translate(0.000000,832.000000) scale(0.100000,-0.100000)"
fill="#000000" stroke="none">
<path d="M4077 8304 c-1 -1 -94 -5 -207 -9 -333 -11 -404 -15 -655 -40 -27 -3
-72 -8 -100 -11 -57 -7 -78 -10 -155 -18 -30 -3 -66 -8 -80 -10 -14 -3 -47 -7
-75 -11 -43 -5 -177 -26 -255 -41 -14 -2 -38 -6 -55 -9 -27 -5 -144 -28 -205
-40 -205 -43 -238 -50 -335 -75 -44 -12 -91 -23 -105 -26 -14 -2 -36 -9 -50
-14 -14 -5 -34 -11 -45 -13 -36 -6 -350 -105 -395 -124 -8 -3 -17 -7 -20 -8
-53 -18 -113 -48 -122 -60 -4 -5 -8 -7 -8 -3 0 9 -94 -47 -122 -72 -9 -8 -33
-28 -53 -45 -101 -85 -178 -240 -189 -381 -1 -16 -5 -35 -9 -42 -5 -7 -3 -12
3 -12 6 0 8 -5 4 -11 -5 -9 -6 -116 -4 -379 0 -8 -1 -26 -3 -40 -2 -14 0 -35
5 -48 6 -16 5 -21 -4 -16 -7 5 -8 3 -2 -7 12 -20 12 -61 0 -78 -8 -11 -8 -13
0 -8 7 4 11 -5 12 -24 0 -19 -3 -27 -10 -23 -7 5 -8 2 -2 -7 11 -18 12 -26 19
-129 6 -87 8 -161 5 -170 -7 -21 -7 -39 0 -35 4 3 8 -10 9 -28 1 -39 7 -109
17 -197 4 -36 8 -84 8 -107 1 -24 3 -43 6 -43 4 0 10 -51 14 -132 0 -16 4 -28
8 -28 3 0 5 -8 4 -17 -2 -9 1 -36 5 -59 4 -23 11 -68 14 -100 8 -67 13 -99 15
-99 2 0 8 -35 13 -75 2 -19 7 -42 10 -50 4 -8 9 -35 12 -60 9 -63 13 -85 16
-85 1 0 3 -16 4 -35 2 -34 7 -51 26 -99 7 -17 7 -26 -1 -31 -8 -5 -7 -9 3 -13
9 -3 13 -16 12 -31 -2 -14 1 -26 5 -26 5 0 9 -8 9 -17 2 -35 7 -69 14 -79 3
-6 8 -21 11 -35 3 -13 9 -39 15 -58 6 -19 8 -38 5 -42 -3 -5 0 -9 6 -9 6 0 10
-6 9 -12 -1 -7 1 -20 4 -28 5 -12 21 -67 33 -112 1 -5 2 -9 3 -10 2 -3 5 -15
15 -63 1 -5 5 -16 9 -22 5 -7 5 -13 0 -13 -4 0 -3 -4 2 -8 11 -8 38 -95 39
-129 1 -11 3 -20 6 -18 12 8 53 -121 44 -136 -4 -7 -3 -9 3 -6 6 4 16 -13 24
-36 7 -23 23 -66 36 -94 12 -29 20 -53 17 -53 -4 0 -1 -7 6 -15 7 -8 9 -15 4
-15 -5 0 -3 -4 4 -9 8 -5 15 -20 15 -35 1 -14 6 -26 10 -26 5 0 5 -4 2 -10 -3
-5 -2 -10 4 -10 6 0 13 -16 17 -35 3 -19 10 -35 15 -35 5 0 9 -7 9 -15 0 -8 4
-23 10 -33 32 -57 90 -204 84 -214 -4 -6 -3 -8 3 -5 13 8 38 -47 28 -63 -3 -6
-3 -9 2 -8 4 2 9 -1 10 -5 1 -4 9 -15 18 -24 9 -8 14 -20 12 -26 -2 -7 5 -20
15 -31 16 -18 23 -37 19 -58 0 -5 3 -8 8 -8 4 0 23 -30 42 -67 18 -38 36 -70
39 -73 14 -14 39 -68 33 -74 -3 -3 -1 -6 5 -6 5 0 21 -22 33 -50 12 -27 27
-50 32 -50 5 0 7 -9 4 -19 -3 -14 -1 -18 9 -14 9 3 14 -2 14 -16 0 -12 5 -21
10 -21 6 0 10 -5 10 -10 0 -6 18 -38 40 -71 22 -33 40 -65 40 -70 0 -5 5 -9
10 -9 6 0 10 -5 10 -12 0 -6 9 -22 21 -34 11 -12 21 -31 22 -42 0 -11 4 -19 8
-17 3 3 15 -11 25 -30 10 -19 23 -35 28 -35 5 0 6 -3 3 -6 -4 -4 2 -14 13 -24
10 -9 20 -22 22 -29 2 -8 12 -24 23 -36 37 -42 46 -55 39 -55 -4 0 3 -8 14
-19 12 -10 22 -23 22 -29 0 -6 6 -13 13 -15 9 -4 8 -8 -3 -17 -13 -9 -12 -10
5 -8 16 2 19 -2 17 -22 -2 -20 0 -22 9 -10 7 10 12 11 15 4 3 -6 16 -26 29
-44 13 -18 22 -38 18 -43 -3 -6 -2 -8 3 -5 5 3 18 -5 29 -19 11 -14 30 -36 43
-48 12 -13 22 -28 22 -32 0 -5 8 -16 18 -24 9 -9 28 -31 42 -49 14 -18 35 -44
47 -57 13 -14 20 -30 17 -35 -3 -4 -2 -8 3 -7 20 4 33 -2 33 -15 0 -8 6 -17
13 -19 9 -4 8 -8 -3 -17 -12 -9 -11 -10 8 -5 12 3 22 2 22 -3 0 -5 25 -36 55
-68 31 -33 76 -81 101 -108 25 -27 47 -55 48 -62 1 -7 6 -17 11 -21 4 -4 5 -2
1 5 -4 6 -3 12 3 12 5 0 13 -9 16 -21 4 -11 9 -18 12 -15 9 8 35 -23 28 -34
-3 -6 1 -7 9 -4 15 6 21 -6 17 -29 -1 -5 3 -6 8 -3 5 4 14 -2 20 -11 6 -10 11
-15 11 -11 0 12 50 -38 50 -51 0 -6 3 -10 8 -9 13 4 121 -105 115 -116 -3 -6
-3 -8 2 -4 11 11 45 -10 45 -28 0 -8 4 -13 8 -10 5 3 15 -4 22 -15 8 -10 18
-19 23 -19 13 0 107 -92 102 -100 -3 -4 3 -7 13 -6 9 0 16 -5 14 -12 -1 -8 2
-11 7 -8 5 4 21 -5 34 -18 14 -14 28 -22 31 -19 3 4 6 -1 6 -10 0 -9 7 -17 15
-17 7 0 19 -8 24 -17 6 -10 11 -15 11 -10 0 7 44 -29 97 -80 13 -12 23 -20 23
-17 0 4 17 -9 38 -27 20 -18 37 -36 37 -40 0 -4 4 -11 9 -16 5 -5 6 -3 2 4 -4
7 -2 13 3 13 6 0 11 -4 11 -8 0 -4 12 -15 28 -24 15 -9 37 -26 50 -38 12 -11
22 -18 22 -15 0 3 6 1 13 -4 56 -46 76 -61 86 -61 6 0 11 -4 11 -8 0 -5 16
-14 35 -22 19 -8 35 -17 35 -22 0 -4 3 -7 8 -7 21 4 32 -2 26 -13 -5 -9 -2 -9
9 1 11 9 17 10 17 2 0 -6 15 -11 34 -11 19 0 37 -6 39 -12 4 -10 6 -10 6 0 1
6 6 12 12 12 5 0 7 -6 3 -12 -6 -11 -4 -11 7 0 7 6 17 12 22 12 4 0 5 -6 1
-12 -6 -11 -4 -11 7 0 7 6 28 12 46 12 18 0 33 5 33 11 0 6 7 9 15 6 8 -4 17
-2 20 3 4 6 15 10 26 10 10 0 19 5 19 10 0 6 6 10 13 10 7 0 23 9 35 20 12 11
25 20 30 20 5 0 17 9 27 20 10 11 21 17 25 15 4 -3 11 2 14 11 4 9 13 14 22
10 8 -3 13 -2 10 3 -3 5 27 33 67 62 39 29 74 57 75 61 2 4 10 8 17 8 7 0 15
7 19 15 3 8 11 14 18 13 7 -2 12 3 10 10 -1 6 2 12 6 12 5 0 18 8 30 18 54 46
62 51 62 44 0 -4 5 1 11 11 6 9 15 14 21 11 6 -4 8 -3 5 3 -6 10 91 90 105 85
4 -1 8 4 8 11 0 19 34 48 51 44 8 -2 10 -2 6 1 -4 2 -3 10 4 18 6 8 15 11 20
8 5 -3 9 2 9 10 0 11 8 14 28 11 20 -2 29 1 29 11 0 10 -4 11 -14 2 -7 -6 -16
-8 -20 -4 -4 3 3 14 16 22 12 9 38 32 57 51 28 28 38 32 49 23 12 -10 13 -8
10 11 -3 13 -1 26 4 29 15 9 200 190 195 190 -3 0 7 11 22 25 15 14 31 25 36
25 5 0 7 4 4 9 -3 4 6 13 21 20 14 6 23 14 20 17 -3 3 17 28 44 55 27 27 49
54 49 60 0 6 7 8 16 5 8 -3 12 -2 9 4 -3 5 3 17 15 27 11 10 20 24 20 31 0 12
3 12 16 2 9 -9 14 -9 12 -2 -4 16 34 72 49 72 7 0 12 4 10 8 -4 14 75 102 86
95 6 -3 7 -1 3 5 -4 6 1 19 11 29 10 10 31 35 46 56 16 21 33 34 39 31 7 -5 8
-2 3 6 -4 7 -3 15 2 19 5 3 33 39 62 79 29 39 57 72 62 72 5 0 8 6 6 13 -1 6
3 11 10 10 7 -2 10 3 7 10 -2 7 4 22 14 32 10 11 28 37 41 58 12 20 27 35 31
32 5 -3 12 0 16 6 4 8 3 9 -4 5 -7 -4 -12 -5 -12 -2 0 9 84 131 93 134 4 2 5
8 1 13 -3 5 0 9 5 9 6 0 11 7 11 15 0 8 7 15 16 15 9 0 12 5 8 12 -4 6 1 17
10 24 10 7 16 14 15 16 -4 5 54 102 63 106 4 2 8 11 8 19 0 9 6 13 14 10 10
-4 13 -1 10 7 -6 17 35 88 47 80 5 -3 6 2 3 11 -4 9 2 25 14 38 11 12 20 24
19 27 -4 11 30 49 38 42 5 -4 5 -2 1 5 -5 10 36 105 54 123 10 10 50 97 50
109 0 6 5 11 10 11 6 0 10 8 10 19 0 18 23 45 31 37 2 -2 5 10 6 27 2 18 7 33
13 35 5 2 10 9 10 16 0 26 84 195 93 189 6 -4 7 -1 3 6 -13 20 13 71 32 64 14
-4 14 -3 3 5 -9 7 -11 16 -6 28 5 11 9 21 9 24 1 3 7 15 14 28 7 12 11 22 8
22 -3 0 5 24 18 53 13 28 33 81 46 117 12 36 27 76 33 90 6 14 11 28 11 32 1
3 4 10 9 14 4 4 7 15 7 25 0 10 5 30 12 46 6 15 12 30 13 33 1 3 6 20 10 38 4
17 12 32 18 32 6 0 8 3 5 6 -3 3 3 33 14 67 10 34 21 73 24 87 3 14 9 27 15
28 5 2 7 7 5 11 -3 4 2 34 11 67 8 32 17 67 18 76 2 9 8 25 13 35 5 10 7 24 4
32 -3 9 0 11 8 6 8 -5 11 -4 7 2 -4 6 -2 25 3 44 6 19 12 46 15 60 3 14 18 81
34 149 17 68 28 127 25 132 -3 4 -1 8 4 8 5 0 9 8 9 18 0 36 3 43 16 36 9 -6
9 -5 0 8 -7 8 -11 17 -9 19 4 4 7 17 28 142 9 56 17 77 28 77 12 0 12 2 1 9
-8 6 -11 18 -7 37 3 16 9 46 12 68 3 21 8 48 10 60 2 11 6 41 9 66 3 25 8 61
11 80 3 19 7 44 9 55 1 11 3 22 5 25 1 3 1 18 0 34 -1 21 2 26 12 21 10 -6 10
-5 2 4 -7 7 -8 27 -4 50 4 21 5 48 3 60 -2 12 0 20 4 18 5 -3 7 17 6 44 -1 32
2 47 9 43 7 -4 6 0 -1 13 -6 11 -8 23 -5 26 6 5 8 36 16 194 2 35 5 63 8 63 3
0 6 78 8 172 2 121 6 175 15 180 7 5 8 8 1 8 -6 0 -11 16 -12 36 -1 30 1 35
16 30 15 -5 15 -4 2 6 -16 14 -22 100 -6 90 6 -3 6 3 2 14 -11 27 -14 48 -9
57 5 8 7 166 3 177 -2 3 -3 50 -5 105 -2 100 -2 101 -54 202 -103 200 -241
300 -606 440 -149 57 -504 160 -615 179 -14 3 -56 11 -95 20 -38 9 -81 18 -95
20 -14 3 -61 11 -105 19 -44 8 -96 17 -115 20 -19 3 -46 7 -60 10 -59 10 -145
22 -215 30 -27 3 -63 8 -80 11 -30 5 -69 10 -155 19 -25 3 -59 7 -76 9 -17 3
-64 7 -105 11 -41 3 -94 8 -119 10 -43 5 -169 13 -290 20 -196 11 -608 23
-613 19z m-370 -120 c-9 -9 -78 -11 -83 -2 -3 5 16 8 42 8 26 0 45 -3 41 -6z
m976 -1 c-18 -2 -48 -2 -65 0 -18 2 -4 4 32 4 36 0 50 -2 33 -4z m-1313 -17
c0 -9 -30 -14 -35 -6 -4 6 3 10 14 10 12 0 21 -2 21 -4z m1618 -3 c-10 -2 -26
-2 -35 0 -10 3 -2 5 17 5 19 0 27 -2 18 -5z m217 -13 c4 -6 -6 -10 -22 -9 -25
0 -26 1 -8 9 11 5 21 9 22 9 1 1 5 -3 8 -9z m149 -31 c-6 -11 -24 -2 -24 11 0
5 7 7 15 4 8 -4 12 -10 9 -15z m156 -9 c0 -5 -10 -10 -22 -9 -22 0 -22 1 -3 9
11 5 21 9 23 9 1 1 2 -3 2 -9z m-1775 -380 c-16 -16 -31 -28 -33 -25 -5 5 48
55 57 55 3 0 -8 -13 -24 -30z m-465 16 c0 -11 -19 -15 -25 -6 -3 5 1 10 9 10
9 0 16 -2 16 -4z m-343 -42 c-3 -3 -12 -4 -19 -1 -8 3 -5 6 6 6 11 1 17 -2 13
-5z m4399 -231 c13 -14 24 -35 24 -45 0 -20 -20 -15 -20 5 0 7 -9 23 -20 37
-11 14 -19 32 -19 40 0 11 2 12 6 2 3 -7 16 -25 29 -39z m-6337 -44 c-13 -26
-23 -18 -14 10 3 12 11 19 16 16 5 -4 5 -14 -2 -26z m2361 -355 c0 -2 -9 -4
-21 -4 -11 0 -18 4 -14 10 5 8 35 3 35 -6z m-1792 -3309 c6 -13 7 -27 3 -30
-5 -3 -14 9 -20 25 -12 36 1 40 17 5z m79 -195 c10 -22 21 -40 25 -40 5 0 8
-9 8 -20 0 -11 5 -20 10 -20 6 0 10 -4 10 -10 0 -5 13 -39 30 -75 16 -36 29
-68 29 -71 0 -4 3 -10 8 -13 11 -8 35 -62 29 -68 -4 -4 -146 278 -166 332 -15
40 -2 29 17 -15z m247 -477 c9 -18 13 -33 8 -33 -9 0 -32 44 -32 62 0 15 4 10
24 -29z m46 -89 c0 -8 4 -14 9 -14 5 0 11 -7 15 -15 10 -26 -9 -16 -27 14 -19
33 -22 45 -7 36 6 -3 10 -13 10 -21z m75 -132 c-8 -9 -34 31 -35 53 0 15 5 12
21 -14 11 -18 18 -36 14 -39z m249 -359 c8 -19 -18 -5 -32 17 -11 19 -11 19 8
8 11 -7 22 -18 24 -25z m54 -88 c-3 -4 -16 9 -28 27 l-23 33 28 -27 c16 -15
26 -30 23 -33z m62 -78 c0 -13 -29 12 -42 37 -10 19 -8 18 16 -3 14 -14 26
-29 26 -34z m64 -86 c-2 -3 -13 5 -24 16 -10 12 -16 23 -13 27 3 3 14 -5 23
-17 10 -12 16 -24 14 -26z m64 -76 c12 -14 18 -25 14 -25 -5 0 -19 11 -32 25
-13 14 -19 25 -14 25 6 0 20 -11 32 -25z m126 -155 c-5 -4 -39 31 -63 65 -8
11 4 2 26 -20 22 -22 39 -42 37 -45z m149 -165 c118 -121 131 -135 125 -135
-7 0 -108 99 -178 175 -61 66 -19 35 53 -40z m305 -311 c52 -53 92 -98 89
-100 -4 -4 -9 0 -122 115 -43 45 -75 81 -69 81 5 0 51 -43 102 -96z m252 -248
c0 -5 -16 7 -35 28 -19 21 -35 41 -35 44 0 3 16 -9 35 -28 19 -19 35 -38 35
-44z m120 -102 c0 -4 -9 1 -20 11 -11 10 -20 23 -20 28 0 6 9 1 20 -11 11 -12
20 -24 20 -28z m736 -471 c-10 -10 -56 -12 -50 -1 3 4 17 8 31 8 15 0 23 -3
19 -7z"/>
<path d="M955 5200 c-3 -5 -1 -10 4 -10 6 0 11 5 11 10 0 6 -2 10 -4 10 -3 0
-8 -4 -11 -10z"/>
<path d="M7345 4920 c-3 -6 1 -7 9 -4 18 7 21 14 7 14 -6 0 -13 -4 -16 -10z"/>
<path d="M7355 4880 c-3 -5 -1 -10 4 -10 6 0 11 5 11 10 0 6 -2 10 -4 10 -3 0
-8 -4 -11 -10z"/>
<path d="M1026 4722 c-3 -5 1 -9 9 -9 8 0 12 4 9 9 -3 4 -7 8 -9 8 -2 0 -6 -4
-9 -8z"/>
<path d="M1110 4641 c0 -6 4 -13 10 -16 6 -3 7 1 4 9 -7 18 -14 21 -14 7z"/>
<path d="M7195 4640 c3 -5 8 -10 11 -10 2 0 4 5 4 10 0 6 -5 10 -11 10 -5 0
-7 -4 -4 -10z"/>
<path d="M7175 4569 c-4 -6 -5 -12 -2 -15 2 -3 7 2 10 11 7 17 1 20 -8 4z"/>
<path d="M1230 4205 c0 -5 5 -17 10 -25 5 -8 10 -10 10 -5 0 6 -5 17 -10 25
-5 8 -10 11 -10 5z"/>
<path d="M7145 4200 c-3 -6 1 -7 9 -4 18 7 21 14 7 14 -6 0 -13 -4 -16 -10z"/>
<path d="M1333 3985 c0 -8 4 -12 9 -9 5 3 6 10 3 15 -9 13 -12 11 -12 -6z"/>
<path d="M1380 3846 c0 -2 8 -10 18 -17 15 -13 16 -12 3 4 -13 16 -21 21 -21
13z"/>
<path d="M1475 3579 c-3 -4 2 -6 10 -5 21 3 28 13 10 13 -9 0 -18 -4 -20 -8z"/>
<path d="M6830 3501 c0 -6 4 -13 10 -16 6 -3 7 1 4 9 -7 18 -14 21 -14 7z"/>
<path d="M1614 3316 c1 -8 5 -18 8 -22 4 -3 5 1 4 10 -1 8 -5 18 -8 22 -4 3
-5 -1 -4 -10z"/>
<path d="M6699 3328 c-5 -18 -6 -38 -1 -34 7 8 12 36 6 36 -2 0 -4 -1 -5 -2z"/>
<path d="M6695 3261 c-3 -5 -2 -12 3 -15 5 -3 9 1 9 9 0 17 -3 19 -12 6z"/>
<path d="M1656 3222 c-3 -5 1 -9 9 -9 8 0 12 4 9 9 -3 4 -7 8 -9 8 -2 0 -6 -4
-9 -8z"/>
<path d="M6646 3218 c3 -5 10 -6 15 -3 13 9 11 12 -6 12 -8 0 -12 -4 -9 -9z"/>
<path d="M1699 3168 c-5 -18 -6 -38 -1 -34 7 8 12 36 6 36 -2 0 -4 -1 -5 -2z"/>
<path d="M1736 3058 c3 -5 10 -6 15 -3 13 9 11 12 -6 12 -8 0 -12 -4 -9 -9z"/>
<path d="M1775 3020 c-3 -5 -1 -10 4 -10 6 0 11 5 11 10 0 6 -2 10 -4 10 -3 0
-8 -4 -11 -10z"/>
<path d="M6513 2995 c0 -8 4 -12 9 -9 5 3 6 10 3 15 -9 13 -12 11 -12 -6z"/>
<path d="M1810 2939 c0 -5 5 -7 10 -4 6 3 10 8 10 11 0 2 -4 4 -10 4 -5 0 -10
-5 -10 -11z"/>
<path d="M6495 2940 c-3 -5 -1 -10 4 -10 6 0 11 5 11 10 0 6 -2 10 -4 10 -3 0
-8 -4 -11 -10z"/>
<path d="M6475 2889 c-4 -6 -5 -12 -2 -15 2 -3 7 2 10 11 7 17 1 20 -8 4z"/>
<path d="M1747 2839 c7 -7 15 -10 18 -7 3 3 -2 9 -12 12 -14 6 -15 5 -6 -5z"/>
<path d="M6415 2820 c3 -5 8 -10 11 -10 2 0 4 5 4 10 0 6 -5 10 -11 10 -5 0
-7 -4 -4 -10z"/>
<path d="M1870 2802 c0 -5 7 -9 15 -9 8 0 12 4 9 9 -3 4 -9 8 -15 8 -5 0 -9
-4 -9 -8z"/>
<path d="M1910 2739 c0 -5 5 -7 10 -4 6 3 10 8 10 11 0 2 -4 4 -10 4 -5 0 -10
-5 -10 -11z"/>
<path d="M6370 2740 c0 -5 5 -10 11 -10 5 0 7 5 4 10 -3 6 -8 10 -11 10 -2 0
-4 -4 -4 -10z"/>
<path d="M1953 2715 c0 -8 4 -12 9 -9 5 3 6 10 3 15 -9 13 -12 11 -12 -6z"/>
<path d="M1930 2606 c0 -2 7 -7 16 -10 8 -3 12 -2 9 4 -6 10 -25 14 -25 6z"/>
<path d="M2020 2560 c-9 -6 -10 -10 -3 -10 6 0 15 5 18 10 8 12 4 12 -15 0z"/>
<path d="M6255 2540 c3 -5 8 -10 11 -10 2 0 4 5 4 10 0 6 -5 10 -11 10 -5 0
-7 -4 -4 -10z"/>
<path d="M2095 2500 c-3 -5 -1 -10 4 -10 6 0 11 5 11 10 0 6 -2 10 -4 10 -3 0
-8 -4 -11 -10z"/>
<path d="M6254 2496 c1 -8 5 -18 8 -22 4 -3 5 1 4 10 -1 8 -5 18 -8 22 -4 3
-5 -1 -4 -10z"/>
<path d="M2035 2460 c-3 -5 -1 -10 4 -10 6 0 11 5 11 10 0 6 -2 10 -4 10 -3 0
-8 -4 -11 -10z"/>
<path d="M1910 2426 c0 -2 7 -7 16 -10 8 -3 12 -2 9 4 -6 10 -25 14 -25 6z"/>
<path d="M2155 2420 c3 -5 8 -10 11 -10 2 0 4 5 4 10 0 6 -5 10 -11 10 -5 0
-7 -4 -4 -10z"/>
<path d="M2087 2399 c7 -7 15 -10 18 -7 3 3 -2 9 -12 12 -14 6 -15 5 -6 -5z"/>
<path d="M6174 2356 c1 -8 5 -18 8 -22 4 -3 5 1 4 10 -1 8 -5 18 -8 22 -4 3
-5 -1 -4 -10z"/>
<path d="M6134 2316 c1 -8 5 -18 8 -22 4 -3 5 1 4 10 -1 8 -5 18 -8 22 -4 3
-5 -1 -4 -10z"/>
<path d="M2215 2260 c3 -5 8 -10 11 -10 2 0 4 5 4 10 0 6 -5 10 -11 10 -5 0
-7 -4 -4 -10z"/>
<path d="M2259 2248 c-5 -18 -6 -38 -1 -34 7 8 12 36 6 36 -2 0 -4 -1 -5 -2z"/>
<path d="M6055 2220 c3 -5 8 -10 11 -10 2 0 4 5 4 10 0 6 -5 10 -11 10 -5 0
-7 -4 -4 -10z"/>
<path d="M2290 2179 c0 -5 5 -7 10 -4 6 3 10 8 10 11 0 2 -4 4 -10 4 -5 0 -10
-5 -10 -11z"/>
<path d="M2290 2120 c0 -5 5 -10 11 -10 5 0 7 5 4 10 -3 6 -8 10 -11 10 -2 0
-4 -4 -4 -10z"/>
<path d="M2350 2126 c0 -2 7 -7 16 -10 8 -3 12 -2 9 4 -6 10 -25 14 -25 6z"/>
<path d="M2316 2073 c-6 -14 -5 -15 5 -6 7 7 10 15 7 18 -3 3 -9 -2 -12 -12z"/>
<path d="M5955 2059 c-3 -4 2 -6 10 -5 21 3 28 13 10 13 -9 0 -18 -4 -20 -8z"/>
<path d="M5913 2045 c0 -8 4 -12 9 -9 5 3 6 10 3 15 -9 13 -12 11 -12 -6z"/>
<path d="M5880 2040 c-9 -6 -10 -10 -3 -10 6 0 15 5 18 10 8 12 4 12 -15 0z"/>
<path d="M2376 2022 c-3 -5 1 -9 9 -9 8 0 12 4 9 9 -3 4 -7 8 -9 8 -2 0 -6 -4
-9 -8z"/>
<path d="M5825 2000 c-3 -6 1 -7 9 -4 18 7 21 14 7 14 -6 0 -13 -4 -16 -10z"/>
<path d="M5876 1993 c-6 -14 -5 -15 5 -6 7 7 10 15 7 18 -3 3 -9 -2 -12 -12z"/>
<path d="M2419 1988 c-5 -18 -6 -38 -1 -34 7 8 12 36 6 36 -2 0 -4 -1 -5 -2z"/>
<path d="M5926 1982 c-3 -5 1 -9 9 -9 8 0 12 4 9 9 -3 4 -7 8 -9 8 -2 0 -6 -4
-9 -8z"/>
<path d="M5894 1956 c1 -8 5 -18 8 -22 4 -3 5 1 4 10 -1 8 -5 18 -8 22 -4 3
-5 -1 -4 -10z"/>
<path d="M2470 1899 c0 -5 5 -7 10 -4 6 3 10 8 10 11 0 2 -4 4 -10 4 -5 0 -10
-5 -10 -11z"/>
<path d="M2550 1896 c0 -2 8 -10 18 -17 15 -13 16 -12 3 4 -13 16 -21 21 -21
13z"/>
<path d="M5790 1880 c0 -5 5 -10 11 -10 5 0 7 5 4 10 -3 6 -8 10 -11 10 -2 0
-4 -4 -4 -10z"/>
<path d="M2555 1800 c3 -5 8 -10 11 -10 2 0 4 5 4 10 0 6 -5 10 -11 10 -5 0
-7 -4 -4 -10z"/>
<path d="M2679 1788 c-7 -23 -4 -35 7 -35 9 0 11 4 4 12 -5 7 -7 15 -3 18 3 4
3 7 0 7 -4 0 -7 -1 -8 -2z"/>
<path d="M5650 1739 c0 -5 5 -7 10 -4 6 3 10 8 10 11 0 2 -4 4 -10 4 -5 0 -10
-5 -10 -11z"/>
<path d="M5686 1742 c-3 -5 1 -9 9 -9 8 0 12 4 9 9 -3 4 -7 8 -9 8 -2 0 -6 -4
-9 -8z"/>
<path d="M2755 1689 c-4 -6 -5 -12 -2 -15 2 -3 7 2 10 11 7 17 1 20 -8 4z"/>
<path d="M5653 1671 c0 -11 5 -18 9 -15 4 3 5 11 1 19 -7 21 -12 19 -10 -4z"/>
<path d="M2653 1655 c0 -8 4 -12 9 -9 5 3 6 10 3 15 -9 13 -12 11 -12 -6z"/>
<path d="M2710 1646 c0 -2 7 -7 16 -10 8 -3 12 -2 9 4 -6 10 -25 14 -25 6z"/>
<path d="M5560 1620 c-12 -7 -10 -9 7 -7 12 0 19 5 17 9 -6 10 -6 10 -24 -2z"/>
<path d="M2734 1596 c1 -8 5 -18 8 -22 4 -3 5 1 4 10 -1 8 -5 18 -8 22 -4 3
-5 -1 -4 -10z"/>
<path d="M5650 1599 c0 -5 5 -7 10 -4 6 3 10 8 10 11 0 2 -4 4 -10 4 -5 0 -10
-5 -10 -11z"/>
<path d="M5715 1600 c3 -5 8 -10 11 -10 2 0 4 5 4 10 0 6 -5 10 -11 10 -5 0
-7 -4 -4 -10z"/>
<path d="M5515 1531 c-3 -5 -2 -12 3 -15 5 -3 9 1 9 9 0 17 -3 19 -12 6z"/>
<path d="M2740 1520 c8 -5 20 -10 25 -10 6 0 3 5 -5 10 -8 5 -19 10 -25 10 -5
0 -3 -5 5 -10z"/>
<path d="M2890 1460 c0 -5 5 -10 11 -10 5 0 7 5 4 10 -3 6 -8 10 -11 10 -2 0
-4 -4 -4 -10z"/>
<path d="M5456 1422 c-3 -4 4 -9 15 -9 23 -2 25 3 4 10 -8 4 -16 3 -19 -1z"/>
<path d="M2937 1395 c-4 -8 -3 -16 1 -19 4 -3 9 4 9 15 2 23 -3 25 -10 4z"/>
<path d="M5279 1393 c-13 -16 -12 -17 4 -4 16 13 21 21 13 21 -2 0 -10 -8 -17
-17z"/>
<path d="M5395 1379 c-3 -4 2 -6 10 -5 21 3 28 13 10 13 -9 0 -18 -4 -20 -8z"/>
<path d="M2979 1368 c-5 -18 -6 -38 -1 -34 7 8 12 36 6 36 -2 0 -4 -1 -5 -2z"/>
<path d="M3010 1340 c0 -5 5 -10 11 -10 5 0 7 5 4 10 -3 6 -8 10 -11 10 -2 0
-4 -4 -4 -10z"/>
<path d="M5295 1340 c-3 -5 -1 -10 4 -10 6 0 11 5 11 10 0 6 -2 10 -4 10 -3 0
-8 -4 -11 -10z"/>
<path d="M3075 1331 c-3 -5 -2 -12 3 -15 5 -3 9 1 9 9 0 17 -3 19 -12 6z"/>
<path d="M2925 1320 c-3 -6 1 -7 9 -4 18 7 21 14 7 14 -6 0 -13 -4 -16 -10z"/>
<path d="M3100 1326 c0 -2 8 -10 18 -17 15 -13 16 -12 3 4 -13 16 -21 21 -21
13z"/>
<path d="M5280 1300 c-12 -7 -10 -9 7 -7 12 0 19 5 17 9 -6 10 -6 10 -24 -2z"/>
<path d="M2996 1253 c-6 -14 -5 -15 5 -6 7 7 10 15 7 18 -3 3 -9 -2 -12 -12z"/>
<path d="M3056 1258 c3 -4 11 -5 19 -1 21 7 19 12 -4 10 -11 0 -18 -5 -15 -9z"/>
<path d="M5210 1259 c0 -5 5 -7 10 -4 6 3 10 8 10 11 0 2 -4 4 -10 4 -5 0 -10
-5 -10 -11z"/>
<path d="M5246 1262 c-3 -5 1 -9 9 -9 8 0 12 4 9 9 -3 4 -7 8 -9 8 -2 0 -6 -4
-9 -8z"/>
<path d="M3233 1231 c0 -11 5 -18 9 -15 4 3 5 11 1 19 -7 21 -12 19 -10 -4z"/>
<path d="M3170 1180 c0 -5 5 -10 11 -10 5 0 7 5 4 10 -3 6 -8 10 -11 10 -2 0
-4 -4 -4 -10z"/>
<path d="M5035 1181 c-3 -5 -2 -12 3 -15 5 -3 9 1 9 9 0 17 -3 19 -12 6z"/>
<path d="M3176 1142 c-3 -4 4 -9 15 -9 23 -2 25 3 4 10 -8 4 -16 3 -19 -1z"/>
<path d="M5095 1140 c-3 -5 -1 -10 4 -10 6 0 11 5 11 10 0 6 -2 10 -4 10 -3 0
-8 -4 -11 -10z"/>
<path d="M3200 1100 c-12 -7 -10 -9 7 -7 12 0 19 5 17 9 -6 10 -6 10 -24 -2z"/>
<path d="M3109 1083 c-13 -16 -12 -17 4 -4 16 13 21 21 13 21 -2 0 -10 -8 -17
-17z"/>
<path d="M3257 1075 c-4 -8 -3 -16 1 -19 4 -3 9 4 9 15 2 23 -3 25 -10 4z"/>
<path d="M3295 1060 c-3 -5 -1 -10 4 -10 6 0 11 5 11 10 0 6 -2 10 -4 10 -3 0
-8 -4 -11 -10z"/>
<path d="M5093 1063 c4 -3 -1 -16 -10 -27 -18 -21 -18 -21 4 -2 20 16 23 36 6
36 -4 0 -3 -3 0 -7z"/>
<path d="M3195 1041 c-3 -5 -2 -12 3 -15 5 -3 9 1 9 9 0 17 -3 19 -12 6z"/>
<path d="M4935 1020 c-3 -5 -1 -10 4 -10 6 0 11 5 11 10 0 6 -2 10 -4 10 -3 0
-8 -4 -11 -10z"/>
<path d="M3353 995 c0 -8 4 -12 9 -9 4 3 8 9 8 15 0 5 -4 9 -8 9 -5 0 -9 -7
-9 -15z"/>
<path d="M3510 1006 c0 -2 7 -7 16 -10 8 -3 12 -2 9 4 -6 10 -25 14 -25 6z"/>
<path d="M4930 979 c0 -5 5 -7 10 -4 6 3 10 8 10 11 0 2 -4 4 -10 4 -5 0 -10
-5 -10 -11z"/>
<path d="M3326 962 c-3 -5 1 -9 9 -9 8 0 12 4 9 9 -3 4 -7 8 -9 8 -2 0 -6 -4
-9 -8z"/>
<path d="M4755 961 c-3 -5 -2 -12 3 -15 5 -3 9 1 9 9 0 17 -3 19 -12 6z"/>
<path d="M3415 940 c3 -5 8 -10 11 -10 2 0 4 5 4 10 0 6 -5 10 -11 10 -5 0 -7
-4 -4 -10z"/>
<path d="M3490 939 c0 -5 5 -7 10 -4 6 3 10 8 10 11 0 2 -4 4 -10 4 -5 0 -10
-5 -10 -11z"/>
<path d="M4935 941 c-3 -5 -2 -12 3 -15 5 -3 9 1 9 9 0 17 -3 19 -12 6z"/>
<path d="M3453 895 c0 -8 4 -12 9 -9 5 3 6 10 3 15 -9 13 -12 11 -12 -6z"/>
<path d="M3490 899 c0 -5 5 -7 10 -4 6 3 10 8 10 11 0 2 -4 4 -10 4 -5 0 -10
-5 -10 -11z"/>
<path d="M3475 859 c-3 -4 2 -6 10 -5 21 3 28 13 10 13 -9 0 -18 -4 -20 -8z"/>
<path d="M4620 865 c0 -2 6 -8 13 -14 10 -8 14 -7 14 2 0 8 -6 14 -14 14 -7 0
-13 -1 -13 -2z"/>
<path d="M3680 840 c-9 -6 -10 -10 -3 -10 6 0 15 5 18 10 8 12 4 12 -15 0z"/>
<path d="M4779 848 c-5 -18 -6 -38 -1 -34 7 8 12 36 6 36 -2 0 -4 -1 -5 -2z"/>
<path d="M3534 822 c4 -3 14 -7 22 -8 9 -1 13 0 10 4 -4 3 -14 7 -22 8 -9 1
-13 0 -10 -4z"/>
<path d="M4633 815 c0 -8 4 -12 9 -9 5 3 6 10 3 15 -9 13 -12 11 -12 -6z"/>
<path d="M4565 800 c10 -11 20 -20 23 -20 3 0 -3 9 -13 20 -10 11 -20 20 -23
20 -3 0 3 -9 13 -20z"/>
<path d="M4765 760 c-3 -6 1 -7 9 -4 18 7 21 14 7 14 -6 0 -13 -4 -16 -10z"/>
<path d="M3694 716 c1 -8 5 -18 8 -22 4 -3 5 1 4 10 -1 8 -5 18 -8 22 -4 3 -5
-1 -4 -10z"/>
<path d="M4556 718 c3 -5 10 -6 15 -3 13 9 11 12 -6 12 -8 0 -12 -4 -9 -9z"/>
<path d="M4600 720 c-9 -6 -10 -10 -3 -10 6 0 15 5 18 10 8 12 4 12 -15 0z"/>
<path d="M3513 687 c0 -8 6 -14 14 -14 9 0 10 4 2 14 -6 7 -12 13 -14 13 -1 0
-2 -6 -2 -13z"/>
<path d="M3750 696 c0 -2 8 -10 18 -17 15 -13 16 -12 3 4 -13 16 -21 21 -21
13z"/>
<path d="M3795 691 c-3 -5 -2 -12 3 -15 5 -3 9 1 9 9 0 17 -3 19 -12 6z"/>
<path d="M3830 680 c0 -5 5 -10 11 -10 5 0 7 5 4 10 -3 6 -8 10 -11 10 -2 0
-4 -4 -4 -10z"/>
<path d="M4420 686 c0 -2 8 -10 18 -17 15 -13 16 -12 3 4 -13 16 -21 21 -21
13z"/>
<path d="M4635 670 c-4 -6 -11 -7 -17 -4 -7 4 -8 2 -4 -5 6 -9 11 -9 22 0 14
11 18 19 10 19 -3 0 -8 -5 -11 -10z"/>
<path d="M4495 660 c3 -5 8 -10 11 -10 2 0 4 5 4 10 0 6 -5 10 -11 10 -5 0 -7
-4 -4 -10z"/>
<path d="M4535 660 c-3 -5 -1 -10 4 -10 6 0 11 5 11 10 0 6 -2 10 -4 10 -3 0
-8 -4 -11 -10z"/>
<path d="M3915 649 c-4 -6 -5 -12 -2 -15 2 -3 7 2 10 11 7 17 1 20 -8 4z"/>
<path d="M4310 656 c0 -2 8 -10 18 -17 15 -13 16 -12 3 4 -13 16 -21 21 -21
13z"/>
<path d="M3755 640 c3 -5 8 -10 11 -10 2 0 4 5 4 10 0 6 -5 10 -11 10 -5 0 -7
-4 -4 -10z"/>
<path d="M3870 639 c0 -5 5 -7 10 -4 6 3 10 8 10 11 0 2 -4 4 -10 4 -5 0 -10
-5 -10 -11z"/>
<path d="M4416 638 c3 -5 10 -6 15 -3 13 9 11 12 -6 12 -8 0 -12 -4 -9 -9z"/>
<path d="M3794 622 c4 -3 14 -7 22 -8 9 -1 13 0 10 4 -4 3 -14 7 -22 8 -9 1
-13 0 -10 -4z"/>
<path d="M4515 620 c3 -5 8 -10 11 -10 2 0 4 5 4 10 0 6 -5 10 -11 10 -5 0 -7
-4 -4 -10z"/>
<path d="M4216 607 c3 -10 9 -15 12 -12 3 3 0 11 -7 18 -10 9 -11 8 -5 -6z"/>
<path d="M4006 598 c3 -5 10 -6 15 -3 13 9 11 12 -6 12 -8 0 -12 -4 -9 -9z"/>
<path d="M4100 606 c0 -2 8 -10 18 -17 15 -13 16 -12 3 4 -13 16 -21 21 -21
13z"/>
<path d="M4270 601 c0 -6 4 -13 10 -16 6 -3 7 1 4 9 -7 18 -14 21 -14 7z"/>
<path d="M4190 577 c0 -2 6 -10 14 -16 11 -9 16 -9 22 1 4 7 4 10 -1 6 -4 -4
-14 -3 -22 3 -7 6 -13 9 -13 6z"/>
<path d="M3833 553 c0 -9 4 -10 14 -2 7 6 13 12 13 14 0 1 -6 2 -13 2 -8 0
-14 -6 -14 -14z"/>
<path d="M3893 551 c0 -11 5 -18 9 -15 4 3 5 11 1 19 -7 21 -12 19 -10 -4z"/>
<path d="M4070 559 c0 -5 5 -7 10 -4 6 3 10 8 10 11 0 2 -4 4 -10 4 -5 0 -10
-5 -10 -11z"/>
<path d="M4256 558 c3 -5 10 -6 15 -3 13 9 11 12 -6 12 -8 0 -12 -4 -9 -9z"/>
<path d="M4374 556 c1 -8 5 -18 8 -22 4 -3 5 1 4 10 -1 8 -5 18 -8 22 -4 3 -5
-1 -4 -10z"/>
<path d="M4335 540 c3 -5 8 -10 11 -10 2 0 4 5 4 10 0 6 -5 10 -11 10 -5 0 -7
-4 -4 -10z"/>
<path d="M4170 500 c0 -5 5 -10 11 -10 5 0 7 5 4 10 -3 6 -8 10 -11 10 -2 0
-4 -4 -4 -10z"/>
<path d="M4470 496 c0 -2 8 -10 18 -17 15 -13 16 -12 3 4 -13 16 -21 21 -21
13z"/>
<path d="M4236 482 c-3 -5 1 -9 9 -9 8 0 12 4 9 9 -3 4 -7 8 -9 8 -2 0 -6 -4
-9 -8z"/>
<path d="M4134 456 c1 -8 5 -18 8 -22 4 -3 5 1 4 10 -1 8 -5 18 -8 22 -4 3 -5
-1 -4 -10z"/>
</g>
</svg>
